<?xml version="1.0" encoding="UTF-8"?>
<svg version="1.1" xmlns="http://www.w3.org/2000/svg" width="1024" height="1024">
<path d="M0 0 C337.92 0 675.84 0 1024 0 C1024 337.92 1024 675.84 1024 1024 C686.08 1024 348.16 1024 0 1024 C0 686.08 0 348.16 0 0 Z " fill="#FEFEFE" transform="translate(0,0)"/>
<path d="M0 0 C3.06830782 1.37065061 5.18480592 2.93127081 7.5620842 5.29643536 C8.25482713 5.98087929 8.94757005 6.66532323 9.66130519 7.3705079 C10.79125435 8.50203332 10.79125435 8.50203332 11.94403076 9.65641785 C12.7503473 10.45608658 13.55666384 11.25575531 14.38741422 12.07965642 C17.09740118 14.76990434 19.80014665 17.46731098 22.50292969 20.16479492 C24.44034157 22.09238438 26.37919097 24.01852588 28.31790161 25.94480896 C34.14280654 31.73496239 39.95812957 37.53469455 45.77256954 43.33535358 C48.51435846 46.0701766 51.25724065 48.80390257 54.00003815 51.537714 C63.12452753 60.63299271 72.24680338 69.73048126 81.36201096 78.83506298 C81.945445 79.41780633 82.52887905 80.00054969 83.12999292 80.60095193 C83.71479654 81.18506354 84.29960017 81.76917515 84.90212512 82.37098712 C86.08708942 83.55453945 87.27205814 84.73808735 88.45703125 85.92163086 C89.04481249 86.50870692 89.63259372 87.09578299 90.23818651 87.70064924 C99.74541565 97.19564943 109.26780315 106.67529085 118.79679045 116.14844986 C128.5915349 125.88627652 138.37294493 135.63733661 148.14144826 145.40148813 C153.62155734 150.87852465 159.10715706 156.34979264 164.60762787 161.80638695 C169.29561667 166.45708457 173.97122902 171.11980557 178.63166043 175.7981244 C181.0057751 178.1806348 183.386616 180.5551205 185.77985764 182.91850281 C194.92483022 191.95591176 203.21133537 200.19730368 208.52806473 212.03197193 C210.61963852 216.24944659 213.16311804 218.36214365 217 221 C217.01213028 219.48688736 217.01213028 219.48688736 217.02450562 217.94320679 C217.10238703 208.3819677 217.19022773 198.82086361 217.28752708 189.25980186 C217.33722331 184.34575533 217.38355304 179.43172757 217.421875 174.51757812 C217.45906809 169.76474341 217.50551443 165.01207682 217.55806351 160.25938797 C217.57642853 158.45678314 217.59160053 156.65414252 217.60334396 154.85148239 C217.74273851 134.1713203 218.76520162 112.50742532 234.0859375 96.87109375 C237.28824874 93.92472932 239.63556422 91.78385654 244 91 C243.98259766 89.81857422 243.98259766 89.81857422 243.96484375 88.61328125 C243.75118721 62.82188417 243.75118721 62.82188417 250.57421875 55.25390625 C257.89207354 48.39650075 265.86696055 48.68256226 275.4375 48.75 C277.0781543 48.73839844 277.0781543 48.73839844 278.75195312 48.7265625 C287.10812531 48.74668573 294.62775217 49.18390977 301.4609375 54.44140625 C306.53958806 59.58450669 308.1365557 66.4199731 308.09765625 73.421875 C308.09443359 74.44667969 308.09121094 75.47148437 308.08789062 76.52734375 C308.07951172 77.59082031 308.07113281 78.65429688 308.0625 79.75 C308.05798828 80.82894531 308.05347656 81.90789062 308.04882812 83.01953125 C308.03705727 85.67974383 308.02061399 88.33984365 308 91 C309.16801147 91.43892578 309.16801147 91.43892578 310.35961914 91.88671875 C319.47949622 95.73199286 325.32624615 105.9994963 329.18359375 114.65625 C334.19371762 127.42931305 334.32435952 140.38351482 334.4140625 153.890625 C334.43280984 155.68952283 334.45238579 157.4884122 334.4727478 159.28729248 C334.52369881 163.98230967 334.56352073 168.67735526 334.60089111 173.37249756 C334.64116522 178.17939055 334.69214979 182.98616923 334.7421875 187.79296875 C334.83850727 197.19523176 334.92305021 206.59755988 335 216 C338.15072128 212.87427529 341.29793136 209.7450669 344.44213867 206.61279297 C345.50892297 205.55099139 346.57660853 204.49009442 347.64526367 203.43017578 C349.19436334 201.89341087 350.74003011 200.35325887 352.28515625 198.8125 C353.21207275 197.89082031 354.13898926 196.96914063 355.09399414 196.01953125 C357.22057399 193.85642583 359.21537574 191.6126238 361.1900568 189.31036377 C364.91698953 185.03783964 368.84893819 181.01408176 372.86509705 177.01464844 C373.62653521 176.25235585 374.38797337 175.49006327 375.17248541 174.70467091 C377.70499136 172.1705279 380.24103621 169.63995747 382.77709961 167.109375 C384.60098393 165.28577296 386.42464767 163.46195028 388.24810791 161.63792419 C392.16422486 157.72128479 396.08215765 153.8064696 400.00135612 149.89291382 C405.66774444 144.23467838 411.33134492 138.57365912 416.99428505 132.91197288 C426.18376754 123.72467497 435.37547749 114.53960898 444.56860352 105.35595703 C453.49491039 96.43883965 462.42015856 87.52066479 471.34399414 78.60107422 C471.89474926 78.05058182 472.44550438 77.50008943 473.01294904 76.93291545 C475.77612502 74.17104458 478.53928029 71.409153 481.30242527 68.64725113 C504.19840825 45.76162226 527.09801251 22.87962013 550 0 C553.87949716 1.79532109 556.26961294 4.10067055 559.25 7.1875 C563.64809191 11.69233812 568.1746678 15.94893314 573 20 C571.62798539 23.07202807 570.06319773 25.19099079 567.69632721 27.57211494 C567.01024997 28.26710787 566.32417274 28.96210079 565.61730528 29.67815411 C564.86111041 30.43398026 564.10491553 31.18980641 563.32580566 31.96853638 C562.52417008 32.77752534 561.72253449 33.5865143 560.89660692 34.42001808 C558.19955088 37.139162 555.4953273 39.85106167 552.79101562 42.56298828 C550.85845152 44.50701777 548.9273264 46.45247476 546.99604797 48.39778137 C541.18972529 54.24361687 535.37372116 60.07977436 529.55651164 65.91477329 C526.81270423 68.66735546 524.06987728 71.42091427 521.32691956 74.17434311 C512.1984589 83.33683843 503.06747138 92.49680453 493.92922211 101.64953804 C491.55810178 104.0244778 489.1869921 106.39942818 486.81591797 108.77441406 C486.22663822 109.36466129 485.63735847 109.95490852 485.03022176 110.56304203 C475.5067321 120.1030955 466.0003901 129.66004413 456.50120312 139.22429027 C446.73248704 149.05935945 436.94857369 158.87910364 427.14981031 168.68423831 C421.65512948 174.18323151 416.16709185 179.68850056 410.69599915 185.21097183 C406.0311837 189.91949336 401.35257737 194.61376757 396.65620995 199.29082747 C394.26592797 201.67210066 391.88485232 204.06088822 389.51648903 206.46407127 C379.06810593 217.05729581 369.26272353 225.53139177 355.83448786 232.04463464 C347.39306491 236.44076244 339.61305284 243.68006305 335 252 C332.10864489 261.65100121 332.8712447 271.74276316 333.3125 281.6875 C333.37053902 284.34705264 333.39816448 287.005869 333.42773438 289.66601562 C333.51812649 296.11608172 333.71549709 302.55572648 334 309 C334.5986084 308.99066437 335.1972168 308.98132874 335.81396484 308.97171021 C342.12960534 308.91660884 348.33611417 309.24947399 354.625 309.8046875 C355.61137451 309.88872833 356.59774902 309.97276917 357.61401367 310.05935669 C359.69157977 310.23726335 361.76897168 310.41721493 363.84619141 310.59912109 C366.96346362 310.87180399 370.08126119 311.13762546 373.19921875 311.40234375 C385.15460603 312.4278446 397.08232459 313.60245694 409 315 C409.0095874 314.08919678 409.0191748 313.17839355 409.02905273 312.23999023 C409.05192057 310.06754557 409.07478841 307.89510091 409.09765625 305.72265625 C409.31262571 303.08552366 409.31262571 303.08552366 408 302 C407.67 303.98 407.34 305.96 407 308 C404.36 308 401.72 308 399 308 C399 300.08 399 292.16 399 284 C401.31 284 403.62 284 406 284 C406.66 284.66 407.32 285.32 408 286 C409.51062693 284.48937307 409.19532457 283.10608711 409.28125 281 C409.31863281 280.195625 409.35601563 279.39125 409.39453125 278.5625 C409.42933594 277.716875 409.46414063 276.87125 409.5 276 C409.56860509 274.33315029 409.64130223 272.66646226 409.71875 271 C409.74904297 270.2575 409.77933594 269.515 409.81054688 268.75 C410 267 410 267 411 266 C413.5 265.875 413.5 265.875 416 266 C417 267 417 267 417.11352539 269.59204102 C417.10828857 270.71795654 417.10305176 271.84387207 417.09765625 273.00390625 C417.09443359 274.21884766 417.09121094 275.43378906 417.08789062 276.68554688 C417.07951172 277.96494141 417.07113281 279.24433594 417.0625 280.5625 C417.05798828 281.84576172 417.05347656 283.12902344 417.04882812 284.45117188 C417.03699545 287.63416022 417.02051068 290.81705762 417 294 C417.66 294 418.32 294 419 294 C418.96519531 293.06027344 418.96519531 293.06027344 418.9296875 292.1015625 C418.91164063 291.28429687 418.89359375 290.46703125 418.875 289.625 C418.85179687 288.81289063 418.82859375 288.00078125 418.8046875 287.1640625 C419 285 419 285 421 283 C424.625 282.875 424.625 282.875 428 283 C429.33728396 287.57765083 428.94569629 291.84776504 428.6875 296.5625 C428.65205078 297.42552734 428.61660156 298.28855469 428.58007812 299.17773438 C428.53689453 300.00724609 428.49371094 300.83675781 428.44921875 301.69140625 C428.39254028 302.82364624 428.39254028 302.82364624 428.3347168 303.97875977 C428 306 428 306 426 309 C422.9375 309.25 422.9375 309.25 420 309 C419 308 419 308 418.9375 304.9375 C418.958125 303.968125 418.97875 302.99875 419 302 C417.66098208 303.11126659 417.66098208 303.11126659 417.90234375 305.94140625 C417.91394531 307.13636719 417.92554688 308.33132813 417.9375 309.5625 C417.95103516 311.35880859 417.95103516 311.35880859 417.96484375 313.19140625 C417.98224609 314.58166016 417.98224609 314.58166016 418 316 C418.60328125 315.95359375 419.2065625 315.9071875 419.828125 315.859375 C420.62734375 315.82328125 421.4265625 315.7871875 422.25 315.75 C423.03890625 315.70359375 423.8278125 315.6571875 424.640625 315.609375 C428.05932075 316.17538423 428.9519796 317.19329622 431 320 C431.59415486 323.22841016 431.53649648 326.41675666 431.49609375 329.69140625 C431.49754898 330.63306137 431.49900421 331.57471649 431.50050354 332.54490662 C431.49884545 334.53281757 431.48729419 336.52074148 431.46655273 338.50854492 C431.43757061 341.5550775 431.44595101 344.59987295 431.45898438 347.64648438 C431.45274773 349.57813347 431.44435736 351.50977707 431.43359375 353.44140625 C431.43652939 354.35394669 431.43946503 355.26648712 431.44248962 356.2066803 C431.42980545 357.05443527 431.41712128 357.90219025 431.40405273 358.77563477 C431.39864975 359.52079849 431.39324677 360.26596222 431.38768005 361.03370667 C430.88881215 363.56393906 430.01256667 364.42786761 428 366 C425.32623898 366.89125367 423.3080745 367.23424805 420.53198242 367.46484375 C419.17993965 367.58001343 419.17993965 367.58001343 417.80058289 367.69750977 C416.82869522 367.77670654 415.85680756 367.85590332 414.85546875 367.9375 C413.85292557 368.02249756 412.85038239 368.10749512 411.81745911 368.19506836 C408.60775483 368.46686331 405.39767501 368.73382669 402.1875 369 C398.98807675 369.26659855 395.78876033 369.5342964 392.5896759 369.80493164 C390.59874265 369.97324497 388.6076082 370.13919952 386.61625671 370.30249023 C385.25002922 370.41765991 385.25002922 370.41765991 383.85620117 370.53515625 C383.0613884 370.600979 382.26657562 370.66680176 381.44767761 370.73461914 C378.60905595 371.04238674 375.81447802 371.52211184 373 372 C373.41570686 372.41494742 373.83141372 372.82989484 374.25971776 373.25741643 C398.89111412 397.84406843 423.51729728 422.43593012 448.13671126 447.0345806 C451.09199799 449.98736588 454.0473283 452.94010755 457.00268555 455.89282227 C457.59104973 456.48066182 458.1794139 457.06850138 458.7856073 457.67415426 C468.31568772 467.19552919 477.84929475 476.71336545 487.38420699 486.2299014 C497.16592068 495.99292006 506.94384133 505.75972544 516.71824235 515.53006536 C522.75095009 521.56002722 528.7866061 527.58700674 534.82605245 533.61021952 C538.96577113 537.73937622 543.10180374 541.87220134 547.23494474 546.00794198 C549.62058134 548.3948611 552.00834135 550.77954912 554.39942741 553.16101646 C556.99103607 555.74270785 559.57643866 558.33045826 562.16035461 560.91984558 C563.29702205 562.04777449 563.29702205 562.04777449 564.45665246 563.19848984 C565.49495557 564.2427661 565.49495557 564.2427661 566.5542345 565.30813885 C567.15153458 565.90467949 567.74883466 566.50122012 568.36423475 567.11583775 C570 569 570 569 573 574 C566.4 580.6 559.8 587.2 553 594 C549.03685829 592.01842915 546.98430643 590.22894451 543.88980103 587.12358093 C543.38833978 586.62312297 542.88687854 586.12266501 542.3702215 585.60704166 C540.69205804 583.92983035 539.02114549 582.24557795 537.35009766 580.5612793 C536.14787278 579.356853 534.94519937 578.15287427 533.74211121 576.9493103 C531.15226766 574.356533 528.56561328 571.76062958 525.98137283 569.16226768 C521.8930539 565.05168079 517.79765717 560.94819511 513.70126343 556.84565735 C507.22008132 550.3530905 500.74358712 543.85587037 494.26911581 537.35661203 C482.68248879 525.72569684 471.09034059 514.10029108 459.49290311 502.48015529 C455.42421984 498.4030773 451.35836313 494.32320741 447.29477334 490.24105299 C444.76233502 487.69794483 442.22784529 485.1568884 439.69285011 482.61632919 C438.52052571 481.44054451 437.34907348 480.26388947 436.17857552 479.08628654 C434.57610289 477.47430467 432.9705135 475.86548953 431.36416626 474.25737 C430.467848 473.3575323 429.57152973 472.45769461 428.64805031 471.5305891 C426.69341791 469.66265954 424.76580727 467.98006158 422.66473961 466.29641438 C421.78537554 465.53859763 420.90601147 464.78078089 420 464 C420 463.34 420 462.68 420 462 C419.16604706 461.65402267 419.16604706 461.65402267 418.31524658 461.30105591 C415.36855331 459.64515769 413.34138561 457.58048352 410.95605469 455.18310547 C410.46779205 454.69513489 409.97952942 454.20716431 409.47647095 453.70440674 C407.87015038 452.09669725 406.27102287 450.48202899 404.671875 448.8671875 C403.55701683 447.74859765 402.44171513 446.63044971 401.32598877 445.51272583 C398.39529391 442.57440675 395.47065578 439.63013045 392.54724121 436.68457031 C389.56117275 433.67801738 386.56941141 430.67714118 383.578125 427.67578125 C377.71316544 421.78939314 371.85459268 415.896699 366 410 C365.99786247 411.45126785 365.99786247 411.45126785 365.99568176 412.93185425 C365.97895923 422.0824085 365.93602589 431.23252103 365.86790943 440.38284111 C365.83372519 445.08634602 365.80854283 449.78952908 365.80444336 454.49316406 C365.80014195 459.03870964 365.77152767 463.58353023 365.72656822 468.12884903 C365.71365181 469.85659679 365.70926463 471.58443156 365.71384621 473.31222153 C365.73522167 483.82791157 365.53293249 492.96108102 358.0559845 501.12179565 C352.49347837 506.52717448 346.78038535 509.05578079 339.0625 509.4375 C330.85101465 509.1595728 325.55868132 505.84971176 320 500 C319.87471924 500.67651611 319.74943848 501.35303223 319.62036133 502.05004883 C319.2394102 504.10718491 318.85792882 506.16422284 318.47607422 508.22119141 C318.02467836 510.66417636 317.57723516 513.10789424 317.13330078 515.55224609 C316.06292223 521.41804009 314.96629496 527.26377701 313.66015625 533.08203125 C309.40938941 552.60288515 308.60465768 572.25804354 307.57533264 592.15341187 C306.90871541 604.9946122 306.12029533 617.82796537 305.33308506 630.66221714 C305.03397844 635.53903164 304.73836884 640.41604597 304.44506836 645.29321289 C303.65045923 658.48915061 302.83239232 671.68313525 301.97265625 684.875 C301.35549285 694.34983431 300.76307824 703.82537969 300.21875 713.3046875 C300.1282412 714.87864792 300.1282412 714.87864792 300.03590393 716.48440552 C299.79629806 720.6652797 299.55784536 724.8462131 299.32275391 729.02734375 C298.43854104 744.70577016 297.31305928 760.35159935 296 776 C301.94 776.66 307.88 777.32 314 778 C313.835 775.48375 313.67 772.9675 313.5 770.375 C313.02358672 761.96987293 312.86119361 753.56382037 312.82275391 745.14678955 C312.81260896 743.14648324 312.79307412 741.14623174 312.7734375 739.14599609 C312.77214844 737.90414551 312.77085937 736.66229492 312.76953125 735.3828125 C312.76542236 734.27309082 312.76131348 733.16336914 312.75708008 732.02001953 C313.00326842 728.95936643 313.70289489 726.76514406 315 724 C317.375 723.875 317.375 723.875 320 724 C322 726 322 726 322.22705078 728.16320801 C322.21657715 729.0587439 322.20610352 729.95427979 322.1953125 730.87695312 C322.18540283 732.39863098 322.18540283 732.39863098 322.17529297 733.9510498 C322.15869629 735.05001587 322.14209961 736.14898193 322.125 737.28125 C322.11364014 738.96788757 322.11364014 738.96788757 322.10205078 740.68859863 C322.06922575 745.51572054 322.01293802 750.34250912 321.95898438 755.16943359 C321.92297196 758.68585669 321.89868454 762.20222586 321.875 765.71875 C321.85840332 766.81771606 321.84180664 767.91668213 321.82470703 769.0489502 C321.81479736 770.57062805 321.81479736 770.57062805 321.8046875 772.12304688 C321.79421387 773.01858276 321.78374023 773.91411865 321.77294922 774.83679199 C321.79287147 777.2124922 321.79287147 777.2124922 324 779 C326.08381196 779.56877047 326.08381196 779.56877047 328.5390625 779.89453125 C329.49707764 780.04277344 330.45509277 780.19101562 331.44213867 780.34375 C333.01765503 780.57578125 333.01765503 780.57578125 334.625 780.8125 C335.71208252 780.98136719 336.79916504 781.15023437 337.91918945 781.32421875 C343.73613613 782.22446535 349.55845836 783.08346032 355.38531494 783.91667175 C358.27710541 784.33271814 361.16713993 784.76028577 364.05706787 785.1890564 C365.46902551 785.39513628 366.88184141 785.59542495 368.29547119 785.78970337 C370.29657762 786.06478672 372.29485775 786.36019221 374.29296875 786.65625 C375.4430542 786.81931641 376.59313965 786.98238281 377.77807617 787.15039062 C381.5026824 788.13255549 383.9631282 789.65509853 387 792 C390.81240727 799.62481453 387.97715813 814.17650536 386.92578125 822.30078125 C385.63895295 826.05267305 384.12516678 827.52640664 381 830 C377.69178108 830.97684104 374.37702466 831.27516319 370.94921875 831.58203125 C369.97644485 831.68593674 369.00367096 831.78984222 368.00141907 831.89689636 C364.89850405 832.2227378 361.79348075 832.51748361 358.6875 832.8125 C356.6098246 833.02867151 354.53234674 833.2467507 352.45507812 833.46679688 C333.70779196 835.40256771 333.70779196 835.40256771 328 835 C323.04659748 827.56989622 324.90395635 815.69728611 325 807 C324.34 807.33 323.68 807.66 323 808 C322.98786972 808.96053535 322.98786972 808.96053535 322.97549438 809.94047546 C322.88940878 816.60789789 322.78990307 823.27502438 322.68261719 829.94213867 C322.64434422 832.43004383 322.60948843 834.91800401 322.578125 837.40600586 C322.53243858 840.98311012 322.47444892 844.55983617 322.4140625 848.13671875 C322.40251129 849.24834885 322.39096008 850.35997894 322.37905884 851.5052948 C322.3492543 853.06634697 322.3492543 853.06634697 322.31884766 854.65893555 C322.30552399 855.5716069 322.29220032 856.48427826 322.2784729 857.42460632 C321.9738622 860.24172958 321.16355618 862.42827454 320 865 C318.33388095 865.042721 316.66617115 865.04063832 315 865 C312.05991018 862.05991018 312.92752424 853.61780024 312.88647461 849.57202148 C312.88663063 847.58837186 312.89214131 845.60471714 312.90234375 843.62109375 C312.90446617 842.04208031 312.90446617 842.04208031 312.90663147 840.4311676 C312.91218704 837.09991501 312.92473112 833.76873196 312.9375 830.4375 C312.94252075 828.1660166 312.94708265 825.89453214 312.95117188 823.62304688 C312.96214188 818.0820079 312.97883517 812.54100892 313 807 C310.02046641 807.14017826 307.04150696 807.28686342 304.0625 807.4375 C303.21236328 807.47681641 302.36222656 807.51613281 301.48632812 807.55664062 C300.67744141 807.59853516 299.86855469 807.64042969 299.03515625 807.68359375 C298.2862915 807.72025146 297.53742676 807.75690918 296.76586914 807.79467773 C294.97538674 807.81771063 294.97538674 807.81771063 294 809 C293.70283005 810.89188391 293.43739135 812.7887928 293.1875 814.6875 C292.37871388 819.69483758 291.46861945 823.1349669 288 827 C285.3125 828.75 285.3125 828.75 283 830 C281.74567438 832.50865124 281.8087713 834.35855829 281.71875 837.1640625 C281.68136719 838.20433594 281.64398437 839.24460937 281.60546875 840.31640625 C281.55326172 841.95416016 281.55326172 841.95416016 281.5 843.625 C280.86455736 863.13544264 280.86455736 863.13544264 279 865 C276.66702567 865.04092937 274.33294775 865.04241723 272 865 C270.51155832 862.02311663 270.72623302 858.92713789 270.60546875 855.65625 C270.53670773 854.16792688 270.4670178 852.67964643 270.39648438 851.19140625 C270.28893945 848.84116811 270.18718131 846.49127355 270.10131836 844.14013672 C270.01611188 841.87350185 269.90659888 839.60911404 269.79296875 837.34375 C269.76302071 836.28589294 269.76302071 836.28589294 269.73246765 835.20666504 C269.65396797 833.00299547 269.65396797 833.00299547 269 830 C267.07965984 828.45745478 267.07965984 828.45745478 265 828 C264.401875 828.928125 263.80375 829.85625 263.1875 830.8125 C260.01918854 835.42918241 260.01918854 835.42918241 258 837 C249.40275573 838.20172843 240.09201825 836.59935409 231.50390625 835.7578125 C230.13976156 835.62769559 228.77557913 835.49797377 227.41136169 835.36862183 C224.57132955 835.09810868 221.7317047 834.82375426 218.89233398 834.54638672 C215.29165624 834.19483344 211.69024422 833.85162488 208.08850193 833.51117134 C205.27658677 833.24465612 202.46504828 832.97432483 199.65360832 832.70284653 C197.69270562 832.51395812 195.73155682 832.32762992 193.770401 832.14138794 C187.75981491 831.55108442 181.75948441 830.89497819 175.77319336 830.09326172 C174.73343857 829.95604706 173.69368378 829.8188324 172.62242126 829.67745972 C169.76828502 828.94014022 168.72957244 828.34893677 167 826 C164.71537585 819.14612756 164.3711894 812.17914041 164 805 C163.92265625 803.97519531 163.8453125 802.95039062 163.765625 801.89453125 C163.5415945 797.2832368 163.43246282 794.84270671 166.0625 790.9375 C171.61095794 787.2778788 178.07254424 786.55076586 184.53515625 785.6328125 C185.35548843 785.5131311 186.17582062 785.39344971 187.02101135 785.2701416 C189.70065389 784.88218396 192.3814184 784.50287615 195.0625 784.125 C195.97819763 783.99438171 196.89389526 783.86376343 197.83734131 783.72918701 C217.17339613 780.98009038 236.561769 778.87352391 256 777 C255.91024902 775.77192627 255.82049805 774.54385254 255.72802734 773.27856445 C253.36127706 740.69205324 251.31153161 708.09097947 249.38946533 675.4755249 C249.06450326 669.962477 248.73719016 664.44957181 248.40901756 658.93671417 C247.25272373 639.50934453 246.10077394 620.08230167 245.05891609 600.64842033 C243.11426043 562.48357228 243.11426043 562.48357228 236.66650391 524.88378906 C235.67483687 520.59310371 234.88654294 516.27394447 234.125 511.9375 C233.90070313 510.72964844 233.67640625 509.52179688 233.4453125 508.27734375 C232.97468529 504.8136926 232.91994677 501.49121027 233 498 C232.34 498 231.68 498 231 498 C230.79375 498.556875 230.5875 499.11375 230.375 499.6875 C227.52187574 504.48593626 223.19626635 507.26017868 218 509 C210.00759067 510.16632701 203.58821916 508.64984855 197 504 C191.26553314 498.82836044 188.33653054 494.0376849 187.68356323 486.20339966 C187.64269918 484.76360413 187.61188491 483.32349989 187.58935547 481.88330078 C187.56955627 481.09238541 187.54975708 480.30147003 187.52935791 479.48658752 C187.4665184 476.88961486 187.41677008 474.2925692 187.3671875 471.6953125 C187.32601453 469.88782929 187.28402072 468.08036461 187.24124146 466.2729187 C187.13114936 461.52859553 187.03217812 456.78410362 186.93554688 452.03948975 C186.8348605 447.19284142 186.7236226 442.34643643 186.61328125 437.5 C186.39854599 428.00020816 186.19556238 418.50020452 186 409 C184.35113941 410.62192821 182.7059976 412.24763772 181.0625 413.875 C180.14597656 414.77992188 179.22945312 415.68484375 178.28515625 416.6171875 C175.98812373 418.77682255 175.98812373 418.77682255 175 421 C174.34 421 173.68 421 173 421 C172.77634766 421.54817383 172.55269531 422.09634766 172.32226562 422.66113281 C170.60286971 425.70245719 168.30376001 427.98233621 165.84375 430.421875 C165.34081421 430.92672424 164.83787842 431.43157349 164.31970215 431.95172119 C163.25970014 433.01307997 162.19718512 434.07193419 161.13232422 435.12841797 C159.49859954 436.75139124 157.87586706 438.38481068 156.25390625 440.01953125 C155.22199524 441.05012146 154.18946441 442.08009152 153.15625 443.109375 C152.66974976 443.59992371 152.18324951 444.09047241 151.68200684 444.59588623 C148.22994349 448 148.22994349 448 146 448 C145.67 448.99 145.34 449.98 145 451 C143.59022617 452.39088535 143.59022617 452.39088535 141.71595764 453.91712952 C135.66911383 459.05466304 130.14564981 464.71460602 124.54467773 470.32592773 C123.303846 471.56540225 122.06280211 472.80466441 120.82156372 474.04373169 C117.47016689 477.3905923 114.12191377 480.74058113 110.77437472 484.09129977 C107.25978214 487.60843571 103.74273713 491.12311794 100.22608948 494.63819885 C94.32251103 500.53996136 88.42103642 506.44382142 82.52075195 512.34887695 C75.7129805 519.16208992 68.90161424 525.97169311 62.08836979 532.77943271 C56.2238797 538.63937528 50.36135255 544.5012763 44.50044209 550.36479908 C41.00648327 553.86031165 37.51186488 557.35515763 34.0154705 560.84823418 C30.72750648 564.13329563 27.44202493 567.42082037 24.15839005 570.71020889 C22.95761127 571.91230251 21.7559945 573.11355977 20.55344963 574.31388664 C14.97621687 579.8817854 9.42939719 585.42120256 4.39088535 591.49256992 C3 593 3 593 0 595 C-6.93 588.07 -13.86 581.14 -21 574 C-10.02543948 561.19634606 1.64152656 549.21923736 13.58129883 537.32104492 C15.21723466 535.68703266 16.85293972 534.05278933 18.48843384 532.41833496 C21.98502481 528.92488296 25.48315742 525.43298495 28.98252296 521.94231224 C34.52040476 516.41804724 40.05438571 510.88988535 45.58781433 505.36116028 C53.34732248 497.60881455 61.10836785 489.85801079 68.87084961 482.10864258 C69.36166008 481.61865991 69.85247056 481.12867725 70.35815408 480.62384663 C73.84288714 477.14501542 77.3276873 473.66625143 80.8125 470.1875 C84.80205123 466.20488335 88.79156784 462.22223201 92.78100586 458.23950195 C93.27272362 457.74861232 93.76444137 457.25772269 94.27105967 456.75195762 C102.48279923 448.55392461 110.69253808 440.35389092 118.90092105 432.15249711 C124.39784122 426.66054692 129.89718714 421.17104106 135.39842856 415.68341959 C138.82010347 412.26921877 142.23969203 408.85293413 145.65872574 405.43608856 C147.24005164 403.85662978 148.82223932 402.27803324 150.4053669 400.70038033 C152.57224957 398.54075388 154.73598191 396.37801736 156.89900208 394.21452332 C157.52021511 393.59690524 158.14142815 392.97928716 158.78146583 392.34295338 C165.12017036 385.98943986 170.91263851 379.39979853 176 372 C167.73789486 370.88287424 159.49200923 369.90071793 151.17578125 369.2890625 C150.08219803 369.20588776 150.08219803 369.20588776 148.96652222 369.12103271 C145.9864968 368.89508842 143.0067362 368.67093175 140.0246582 368.47363281 C137.80265584 368.32424651 135.58333169 368.15233166 133.36328125 367.9765625 C132.06688721 367.88455566 130.77049316 367.79254883 129.43481445 367.69775391 C125.56760385 366.91216233 123.7914755 365.74057994 121 363 C118.43409442 357.86818884 119.68656088 349.74721833 119.64990234 344.03393555 C119.63334668 342.14155781 119.60606165 340.2492425 119.56787109 338.35717773 C119.51305528 335.62711186 119.49122182 332.8985111 119.4765625 330.16796875 C119.44255844 328.9036628 119.44255844 328.9036628 119.40786743 327.61381531 C119.42364346 323.21874079 119.58296059 321.53026683 122.39282227 317.95751953 C126.26485065 315.05032564 128.30139011 315.60181272 133 316 C133 313.03 133 310.06 133 307 C132.34 307.66 131.68 308.32 131 309 C128.5625 309.4375 128.5625 309.4375 126 309 C122.01134259 304.4442349 122.6553774 299.38823019 122.8125 293.6875 C122.82603516 292.75615234 122.83957031 291.82480469 122.85351562 290.86523438 C122.88873118 288.57622354 122.93797901 286.28841542 123 284 C126.375 283.875 126.375 283.875 130 284 C132.1385485 286.1385485 132.42655063 287.13275314 133 290 C133.01981934 289.34402832 133.03963867 288.68805664 133.06005859 288.01220703 C133.15512507 285.04938931 133.26487752 282.08729468 133.375 279.125 C133.4059375 278.09246094 133.436875 277.05992187 133.46875 275.99609375 C133.52675781 274.51689453 133.52675781 274.51689453 133.5859375 273.0078125 C133.6173584 272.09660645 133.6487793 271.18540039 133.68115234 270.24658203 C134 268 134 268 136 266 C140.55555556 266.55555556 140.55555556 266.55555556 142 268 C142.08748207 269.92667507 142.10697334 271.85651861 142.09765625 273.78515625 C142.09443359 274.95498047 142.09121094 276.12480469 142.08789062 277.33007812 C142.07951172 278.56177734 142.07113281 279.79347656 142.0625 281.0625 C142.05798828 282.29806641 142.05347656 283.53363281 142.04882812 284.80664062 C142.03699608 287.87114117 142.02051173 290.93554721 142 294 C142.66 294 143.32 294 144 294 C143.95875 292.72125 143.9175 291.4425 143.875 290.125 C143.8046875 287.9453125 143.8046875 287.9453125 144 286 C146 284 146 284 149.0625 283.8125 C152 284 152 284 153 285 C153.0991657 286.62257544 153.13079777 288.24939831 153.1328125 289.875 C153.13410156 290.85984375 153.13539063 291.8446875 153.13671875 292.859375 C153.13285156 293.89578125 153.12898437 294.9321875 153.125 296 C153.12886719 297.03640625 153.13273438 298.0728125 153.13671875 299.140625 C153.13478516 300.61789062 153.13478516 300.61789062 153.1328125 302.125 C153.13168457 303.03507812 153.13055664 303.94515625 153.12939453 304.8828125 C153 307 153 307 152 308 C148.5 308.125 148.5 308.125 145 308 C144 307 144 307 143.9375 304.4375 C143.958125 303.633125 143.97875 302.82875 144 302 C143.34 302 142.68 302 142 302 C142.16371094 302.56203125 142.32742188 303.1240625 142.49609375 303.703125 C143.02864997 306.13059056 143.09898681 308.26889681 143.0625 310.75 C143.05347656 311.54921875 143.04445313 312.3484375 143.03515625 313.171875 C143.01775391 314.07679688 143.01775391 314.07679688 143 315 C143.70455322 314.92483154 144.40910645 314.84966309 145.13500977 314.7722168 C161.40762748 313.05253685 177.68531986 311.56818076 194 310.3125 C195.28102097 310.21284439 195.28102097 310.21284439 196.58792114 310.11117554 C199.0375673 309.92143477 201.48745819 309.73533592 203.9375 309.55078125 C205.0279789 309.4666246 205.0279789 309.4666246 206.14048767 309.38076782 C210.10317051 309.08851832 214.02685646 308.94520606 218 309 C221.41949394 293.12751936 224.62554873 272.78642532 215.87654877 258.11621094 C204.13039145 240.84269147 186.88169989 226.57784015 171.15232849 213.0402832 C170.59090936 212.55606683 170.02949022 212.07185045 169.45105839 211.57296085 C167.94733292 210.28218854 166.43553499 209.00083662 164.92306519 207.72032166 C162.73098478 205.68028375 160.84951225 203.72664162 158.9176178 201.46621704 C153.75907446 195.46164155 148.08939381 189.94983787 142.49047852 184.36108398 C141.23129979 183.1005481 139.97233343 181.83980004 138.71356201 180.57885742 C135.31298448 177.173743 131.9092778 173.77177298 128.50484204 170.37051654 C124.93165186 166.79986935 121.36091496 163.22677013 117.78977966 159.65406799 C111.79386033 153.65633262 105.79584314 147.66070126 99.79663086 141.66625977 C92.87435478 134.74942521 85.95568836 127.82899573 79.03888565 120.90668815 C73.08552547 114.94878073 67.13020716 108.99283586 61.17326683 103.038508 C57.62186284 99.48865792 54.07112578 95.93814784 50.52215767 92.38586235 C47.18456641 89.04536895 43.84451252 85.70735705 40.50259399 82.37119293 C39.28114957 81.15106358 38.06054194 79.93009582 36.84086418 78.70820045 C31.24138248 73.0994822 25.64678849 67.54179947 19.61611843 62.39041042 C17.4873741 60.55896772 15.49363977 58.61368464 13.51171875 56.62524414 C12.73151367 55.84496353 11.95130859 55.06468292 11.14746094 54.26075745 C10.33567383 53.44380905 9.52388672 52.62686066 8.6875 51.78515625 C7.83317383 50.92941513 6.97884766 50.07367401 6.09863281 49.19200134 C3.39671138 46.48452619 0.69830641 43.77357746 -2 41.0625 C-3.84221577 39.21526325 -5.68466143 37.36825573 -7.52734375 35.52148438 C-12.02089061 31.01696997 -16.5115632 26.50960595 -21 22 C-19.48661665 18.82504866 -17.91445048 16.66792251 -15.41015625 14.1796875 C-14.70826172 13.47972656 -14.00636719 12.77976562 -13.28320312 12.05859375 C-12.55037109 11.33800781 -11.81753906 10.61742188 -11.0625 9.875 C-10.33353516 9.14667969 -9.60457031 8.41835937 -8.85351562 7.66796875 C-5.98624216 4.82434832 -3.36994192 2.24662795 0 0 Z " fill="#394142" transform="translate(236,84)"/>
<path d="M0 0 C20.46 0 40.92 0 62 0 C62.12375 8.435625 62.2475 16.87125 62.375 25.5625 C62.45024902 28.1929126 62.52549805 30.8233252 62.60302734 33.53344727 C62.7569179 52.35819241 62.7569179 52.35819241 55.89517212 60.23802185 C53.07063384 63.05644698 50.16474613 65.56761088 47 68 C45.91996704 67.51321777 45.91996704 67.51321777 44.81811523 67.01660156 C41.96314569 65.98670525 39.92500922 65.74230808 36.91015625 65.734375 C35.96076172 65.73179687 35.01136719 65.72921875 34.03320312 65.7265625 C32.56270508 65.73816406 32.56270508 65.73816406 31.0625 65.75 C30.08603516 65.74226563 29.10957031 65.73453125 28.10351562 65.7265625 C27.15283203 65.72914063 26.20214844 65.73171875 25.22265625 65.734375 C23.93500366 65.73775879 23.93500366 65.73775879 22.62133789 65.74121094 C19.53839951 66.04557106 16.89935847 66.93355712 14 68 C1.22431845 57.93353445 1.22431845 57.93353445 -0.16650391 50.74853516 C-0.65659625 46.09871912 -0.49895236 41.47571638 -0.3125 36.8125 C-0.29544079 35.2415901 -0.28435145 33.67060377 -0.27929688 32.09960938 C-0.2609011 29.14197377 -0.20749222 26.18980247 -0.11450195 23.23364258 C0.05489525 15.49085382 0 7.74464158 0 0 Z " fill="#FCFCFC" transform="translate(481,278)"/>
<path d="M0 0 C0.88141663 -0.01283524 1.76283325 -0.02567047 2.67095947 -0.03889465 C3.62613464 -0.04628159 4.58130981 -0.05366852 5.56542969 -0.0612793 C6.54719177 -0.06935104 7.52895386 -0.07742279 8.54046631 -0.08573914 C10.62184887 -0.09958597 12.70325419 -0.11030543 14.78466797 -0.11816406 C17.96072767 -0.1353542 21.13574042 -0.17923261 24.31152344 -0.22338867 C26.3336512 -0.23351754 28.35578781 -0.24203304 30.37792969 -0.2487793 C31.32500793 -0.26628738 32.27208618 -0.28379547 33.24786377 -0.30183411 C38.86440032 -0.28345481 42.52981413 0.0772642 46.73730469 4.17700195 C50.62288055 10.21025648 51.27041749 15.78287781 50.90917969 22.8059082 C50.88549316 23.58317261 50.86180664 24.36043701 50.83740234 25.16125488 C50.74404902 28.02152794 50.61359104 30.88049364 50.48730469 33.73950195 C50.11605469 43.36106445 50.11605469 43.36106445 49.73730469 53.17700195 C28.94730469 53.17700195 8.15730469 53.17700195 -13.26269531 53.17700195 C-13.9597436 44.11537416 -14.47203223 35.34953745 -14.51269531 26.30200195 C-14.53332031 25.1315332 -14.55394531 23.96106445 -14.57519531 22.75512695 C-14.6115301 14.74330552 -14.18688353 9.45779849 -8.70019531 3.30200195 C-5.55022289 0.55587215 -4.0659349 0.05152124 0 0 Z " fill="#FDFDFD" transform="translate(494.2626953125,215.822998046875)"/>
<path d="M0 0 C2.5 0.125 2.5 0.125 3.5 1.125 C3.58758003 3.12464982 3.60696576 5.1273611 3.59765625 7.12890625 C3.59443359 8.34384766 3.59121094 9.55878906 3.58789062 10.81054688 C3.57951172 12.08994141 3.57113281 13.36933594 3.5625 14.6875 C3.55798828 15.97076172 3.55347656 17.25402344 3.54882812 18.57617188 C3.53699545 21.75916022 3.52051068 24.94205762 3.5 28.125 C4.16 28.125 4.82 28.125 5.5 28.125 C5.47679687 27.49851562 5.45359375 26.87203125 5.4296875 26.2265625 C5.41164063 25.40929687 5.39359375 24.59203125 5.375 23.75 C5.35179687 22.93789063 5.32859375 22.12578125 5.3046875 21.2890625 C5.5 19.125 5.5 19.125 7.5 17.125 C11.125 17 11.125 17 14.5 17.125 C15.83728396 21.70265083 15.44569629 25.97276504 15.1875 30.6875 C15.15205078 31.55052734 15.11660156 32.41355469 15.08007812 33.30273438 C15.03689453 34.13224609 14.99371094 34.96175781 14.94921875 35.81640625 C14.91143311 36.57123291 14.87364746 37.32605957 14.8347168 38.10375977 C14.5 40.125 14.5 40.125 12.5 43.125 C9.4375 43.375 9.4375 43.375 6.5 43.125 C5.5 42.125 5.5 42.125 5.4375 39.0625 C5.458125 38.093125 5.47875 37.12375 5.5 36.125 C4.84 36.125 4.18 36.125 3.5 36.125 C3.5 38.105 3.5 40.085 3.5 42.125 C2.51 42.125 1.52 42.125 0.5 42.125 C-0.16 41.465 -0.82 40.805 -1.5 40.125 C-1.83 43.425 -2.16 46.725 -2.5 50.125 C-6.07510111 51.01877528 -7.74917563 51.1508444 -11.25 50.6875 C-12.04921875 50.58566406 -12.8484375 50.48382813 -13.671875 50.37890625 C-14.27515625 50.29511719 -14.8784375 50.21132813 -15.5 50.125 C-15.5 49.795 -15.5 49.465 -15.5 49.125 C-11.87 49.125 -8.24 49.125 -4.5 49.125 C-4.47313447 47.14590602 -4.45366625 45.16671029 -4.4375 43.1875 C-4.42589844 42.08535156 -4.41429687 40.98320312 -4.40234375 39.84765625 C-4.18737429 37.21052366 -4.18737429 37.21052366 -5.5 36.125 C-5.83 38.105 -6.16 40.085 -6.5 42.125 C-9.14 42.125 -11.78 42.125 -14.5 42.125 C-14.5 34.205 -14.5 26.285 -14.5 18.125 C-12.19 18.125 -9.88 18.125 -7.5 18.125 C-6.84 18.785 -6.18 19.445 -5.5 20.125 C-3.98937307 18.61437307 -4.30467543 17.23108711 -4.21875 15.125 C-4.18136719 14.320625 -4.14398437 13.51625 -4.10546875 12.6875 C-4.07066406 11.841875 -4.03585937 10.99625 -4 10.125 C-3.93139491 8.45815029 -3.85869777 6.79146226 -3.78125 5.125 C-3.73581055 4.01125 -3.73581055 4.01125 -3.68945312 2.875 C-3.38383181 0.05194126 -2.85516386 0.14275819 0 0 Z " fill="#2F3638" transform="translate(649.5,349.875)"/>
<path d="M0 0 C2.375 -0.125 2.375 -0.125 5 0 C7 2 7 2 7.22705078 5.71533203 C7.22673351 7.31286052 7.21539982 8.91041027 7.1953125 10.5078125 C7.1924826 11.34843231 7.18965271 12.18905212 7.18673706 13.05514526 C7.1755243 15.74524046 7.15041803 18.4350051 7.125 21.125 C7.1149716 22.94660978 7.10584551 24.76822477 7.09765625 26.58984375 C7.07558142 31.06002358 7.04104434 35.52995571 7 40 C6.34 39.67 5.68 39.34 5 39 C4.67 42.3 4.34 45.6 4 49 C3.01 48.67 2.02 48.34 1 48 C0.67 49.98 0.34 51.96 0 54 C-0.33 54 -0.66 54 -1 54 C-1.77193846 43.05501537 -2.1271425 32.11782834 -2.17724609 21.14678955 C-2.18739104 19.14648324 -2.20692588 17.14623174 -2.2265625 15.14599609 C-2.22785156 13.90414551 -2.22914063 12.66229492 -2.23046875 11.3828125 C-2.23457764 10.27309082 -2.23868652 9.16336914 -2.24291992 8.02001953 C-1.99673158 4.95936643 -1.29710511 2.76514406 0 0 Z " fill="#2D3436" transform="translate(551,808)"/>
<path d="M0 0 C2.475 0.99 2.475 0.99 5 2 C5 10.58 5 19.16 5 28 C4.01 27.34 3.02 26.68 2 26 C1.34 26.66 0.68 27.32 0 28 C-0.19581346 23.52115561 -0.3802636 19.04191574 -0.5625 14.5625 C-0.61857422 13.28310547 -0.67464844 12.00371094 -0.73242188 10.68554688 C-0.78076172 9.47060547 -0.82910156 8.25566406 -0.87890625 7.00390625 C-0.9260376 5.87799072 -0.97316895 4.7520752 -1.02172852 3.59204102 C-1 1 -1 1 0 0 Z " fill="#3D4446" transform="translate(647,350)"/>
<path d="M0 0 C-1.32 0.33 -2.64 0.66 -4 1 C-4 1.66 -4 2.32 -4 3 C-6.31 3.66 -8.62 4.32 -11 5 C-11.33 11.93 -11.66 18.86 -12 26 C-12.33 26 -12.66 26 -13 26 C-15.38410596 7.82119205 -15.38410596 7.82119205 -11.625 2.875 C-7.46884355 -0.09368318 -5.10467931 -0.0945311 0 0 Z " fill="#24292B" transform="translate(414,872)"/>
<path d="M0 0 C0.33 0 0.66 0 1 0 C1.05783842 4.29161047 1.0935412 8.58312145 1.125 12.875 C1.14175781 14.09832031 1.15851562 15.32164062 1.17578125 16.58203125 C1.18222656 17.74863281 1.18867187 18.91523438 1.1953125 20.1171875 C1.20578613 21.19597168 1.21625977 22.27475586 1.22705078 23.38623047 C1 26 1 26 -1 28 C-1.97299156 23.14270355 -2.12038805 18.5499375 -2.0625 13.625 C-2.05798828 12.88894531 -2.05347656 12.15289062 -2.04882812 11.39453125 C-2.03715142 9.59631842 -2.01922011 7.79814803 -2 6 C-1.67 6 -1.34 6 -1 6 C-0.67 4.02 -0.34 2.04 0 0 Z " fill="#434A4C" transform="translate(544,279)"/>
<path d="M0 0 C0.33 0 0.66 0 1 0 C1 6.6 1 13.2 1 20 C0.67 19.34 0.34 18.68 0 18 C-0.66 18 -1.32 18 -2 18 C-2.05397335 15.5622037 -2.09365616 13.12560315 -2.125 10.6875 C-2.14175781 9.99720703 -2.15851562 9.30691406 -2.17578125 8.59570312 C-2.21217794 4.82864604 -2.14378864 3.21568296 0 0 Z " fill="#4A5153" transform="translate(546,237)"/>
<path d="M0 0 C-1.34577308 4.28133304 -3.02013447 6.18609797 -6.625 8.8125 C-7.85089844 9.71935547 -7.85089844 9.71935547 -9.1015625 10.64453125 C-9.72804688 11.09183594 -10.35453125 11.53914063 -11 12 C-11.66 11.67 -12.32 11.34 -13 11 C-11.40559179 9.15730683 -9.80058539 7.32621907 -8.1875 5.5 C-7.73568359 4.97535156 -7.28386719 4.45070313 -6.81835938 3.91015625 C-3.33984375 0 -3.33984375 0 0 0 Z " fill="#33393A" transform="translate(603,270)"/>
<path d="M0 0 C3 3 3 3 3.29296875 5.04296875 C3.1953125 7.02864583 3.09765625 9.01432292 3 11 C2.67 11 2.34 11 2 11 C1.67 13.31 1.34 15.62 1 18 C0.67 18 0.34 18 0 18 C0 12.06 0 6.12 0 0 Z " fill="#42494B" transform="translate(541,658)"/>
<path d="M0 0 C1.485 0.99 1.485 0.99 3 2 C3.29296875 4.8203125 3.29296875 4.8203125 3.1875 8.125 C3.16042969 9.22070312 3.13335938 10.31640625 3.10546875 11.4453125 C3.07066406 12.28835938 3.03585937 13.13140625 3 14 C2.01 14.33 1.02 14.66 0 15 C0 10.05 0 5.1 0 0 Z " fill="#4B5253" transform="translate(555,846)"/>
<path d="M0 0 C0.99 0.33 1.98 0.66 3 1 C0.12286176 4.03697926 -2.29152325 6.14576163 -6 8 C-7.73425773 10.03317007 -7.73425773 10.03317007 -9 12 C-8.51113445 7.71872287 -7.38573844 5.90797457 -4.125 3.125 C-3.42632812 2.50882813 -2.72765625 1.89265625 -2.0078125 1.2578125 C-1.34523438 0.84273437 -0.68265625 0.42765625 0 0 Z " fill="#222729" transform="translate(492,135)"/>
<path d="M0 0 C0.66 0 1.32 0 2 0 C2 4.62 2 9.24 2 14 C-1.3878628 9.4828496 -1.3878628 9.4828496 -1.25 5.3125 C-1.23453125 4.52488281 -1.2190625 3.73726562 -1.203125 2.92578125 C-1 1 -1 1 0 0 Z " fill="#4A5153" transform="translate(485,729)"/>
<path d="M0 0 C0.66 0.33 1.32 0.66 2 1 C2 4.96 2 8.92 2 13 C1.01 12.34 0.02 11.68 -1 11 C-1.26518132 6.82339427 -1.31886422 3.95659266 0 0 Z " fill="#434B4C" transform="translate(562,896)"/>
<path d="M0 0 C0.33 0 0.66 0 1 0 C1 1.65 1 3.3 1 5 C1.61875 4.814375 2.2375 4.62875 2.875 4.4375 C5 4 5 4 7 5 C7 3.35 7 1.7 7 0 C7.33 0 7.66 0 8 0 C8.04254356 1.99954746 8.04080783 4.00041636 8 6 C7 7 7 7 4 7.125 C1 7 1 7 0 6 C-0.04080783 4.00041636 -0.04254356 1.99954746 0 0 Z " fill="#1A1F20" transform="translate(655,386)"/>
<path d="M0 0 C0.33 0.474375 0.66 0.94875 1 1.4375 C4.09813267 3.85791615 7.12026792 3.68198917 11 4 C9.9375 5.5625 9.9375 5.5625 8 7 C1.55555556 6.55555556 1.55555556 6.55555556 0 5 C-0.04063832 3.33382885 -0.042721 1.66611905 0 0 Z " fill="#41494C" transform="translate(564,912)"/>
<path d="M0 0 C0.66 0 1.32 0 2 0 C2.08131463 1.43655854 2.13933559 2.8744483 2.1875 4.3125 C2.23970703 5.51326172 2.23970703 5.51326172 2.29296875 6.73828125 C1.93801608 9.47851584 1.10633718 10.29171079 -1 12 C-1.02687279 10.18757948 -1.04633715 8.37504767 -1.0625 6.5625 C-1.07410156 5.55316406 -1.08570313 4.54382813 -1.09765625 3.50390625 C-1 1 -1 1 0 0 Z " fill="#484F50" transform="translate(537,744)"/>
<path d="M0 0 C2.13586678 3.20380017 2.23132175 4.01939967 2.125 7.6875 C2.10695313 8.49574219 2.08890625 9.30398438 2.0703125 10.13671875 C2.04710937 10.75160156 2.02390625 11.36648438 2 12 C-0.56295176 9.33025858 -0.99337817 8.09767206 -1.25 4.3125 C-1 1 -1 1 0 0 Z " fill="#41484A" transform="translate(481,662)"/>
<path d="M0 0 C0.99 0 1.98 0 3 0 C3.1953125 6.0546875 3.1953125 6.0546875 3 8 C2.34 8.66 1.68 9.32 1 10 C-0.60725635 6.78548731 -0.05748185 3.56387464 0 0 Z " fill="#4B5253" transform="translate(555,810)"/>
<path d="M0 0 C1.32 1.65 2.64 3.3 4 5 C3.34 6.65 2.68 8.3 2 10 C1.01 9.67 0.02 9.34 -1 9 C-0.67 6.03 -0.34 3.06 0 0 Z " fill="#454D4F" transform="translate(476,614)"/>
<path d="M0 0 C0.99 0 1.98 0 3 0 C3 2.64 3 5.28 3 8 C2.01 8 1.02 8 0 8 C0 5.36 0 2.72 0 0 Z " fill="#434A4C" transform="translate(541,152)"/>
<path d="M0 0 C0 3 0 3 -1.3125 4.60546875 C-1.869375 5.12753906 -2.42625 5.64960937 -3 6.1875 C-3.556875 6.71730469 -4.11375 7.24710937 -4.6875 7.79296875 C-5.120625 8.19128906 -5.55375 8.58960937 -6 9 C-6.99 8.67 -7.98 8.34 -9 8 C-7.18776037 6.18776037 -5.32472605 4.53587775 -3.375 2.875 C-2.74335938 2.33617188 -2.11171875 1.79734375 -1.4609375 1.2421875 C-0.97882813 0.83226563 -0.49671875 0.42234375 0 0 Z " fill="#41494B" transform="translate(231,90)"/>
</svg>
