<?xml version="1.0" encoding="utf-8" ?>
<svg baseProfile="tiny" height="100%" version="1.2" width="100%" xmlns="http://www.w3.org/2000/svg" xmlns:ev="http://www.w3.org/2001/xml-events" xmlns:xlink="http://www.w3.org/1999/xlink"><defs /><polygon fill="gray" points="622.0,189.5 621.0,189.5 620.0,189.5 619.0,189.5 618.0,189.5 617.0,189.5 616.0,189.5 615.0,189.5 614.5,190.0 614.0,190.5 613.0,190.5 612.5,191.0 612.5,192.0 612.5,193.0 612.0,193.5 611.5,194.0 611.5,195.0 611.5,196.0 611.5,197.0 611.0,197.5 610.5,198.0 610.5,199.0 610.5,200.0 610.0,200.5 609.5,201.0 609.5,202.0 609.5,203.0 609.5,204.0 609.0,204.5 608.5,205.0 608.5,206.0 608.5,207.0 608.5,208.0 608.0,208.5 607.5,209.0 607.5,210.0 607.5,211.0 607.5,212.0 607.0,212.5 606.5,213.0 606.5,214.0 606.5,215.0 606.5,216.0 606.0,216.5 605.5,217.0 605.5,218.0 605.5,219.0 605.5,220.0 605.0,220.5 604.5,221.0 604.5,222.0 604.5,223.0 604.5,224.0 604.0,224.5 603.5,225.0 603.5,226.0 603.5,227.0 603.5,228.0 603.0,228.5 602.5,229.0 602.5,230.0 602.5,231.0 602.5,232.0 602.5,233.0 602.0,233.5 601.5,234.0 601.5,235.0 601.5,236.0 601.5,237.0 601.0,237.5 600.5,238.0 600.5,239.0 600.5,240.0 600.5,241.0 600.0,241.5 599.5,242.0 599.5,243.0 599.5,244.0 599.5,245.0 599.0,245.5 598.5,246.0 598.5,247.0 598.5,248.0 598.5,249.0 598.5,250.0 598.0,250.5 597.5,251.0 597.5,252.0 597.5,253.0 597.5,254.0 597.0,254.5 596.5,255.0 596.5,256.0 596.5,257.0 596.5,258.0 596.5,259.0 596.0,259.5 595.5,260.0 595.5,261.0 595.5,262.0 595.5,263.0 595.0,263.5 594.5,264.0 594.5,265.0 594.5,266.0 594.5,267.0 594.5,268.0 594.0,268.5 593.5,269.0 593.5,270.0 593.5,271.0 593.5,272.0 593.5,273.0 593.0,273.5 592.5,274.0 592.5,275.0 592.5,276.0 592.5,277.0 592.5,278.0 592.0,278.5 591.5,279.0 591.5,280.0 591.5,281.0 591.5,282.0 591.5,283.0 591.0,283.5 590.5,284.0 590.5,285.0 590.5,286.0 590.5,287.0 590.5,288.0 590.0,288.5 589.5,289.0 589.5,290.0 589.5,291.0 589.5,292.0 589.5,293.0 589.0,293.5 588.5,294.0 588.5,295.0 588.5,296.0 588.5,297.0 588.0,297.5 587.5,298.0 587.5,299.0 587.5,300.0 587.5,301.0 587.5,302.0 587.0,302.5 586.5,303.0 586.5,304.0 586.5,305.0 586.5,306.0 586.5,307.0 586.0,307.5 585.5,308.0 585.5,309.0 585.5,310.0 585.5,311.0 585.5,312.0 585.0,312.5 584.5,313.0 584.5,314.0 584.5,315.0 584.5,316.0 584.5,317.0 584.0,317.5 583.5,318.0 583.5,319.0 583.5,320.0 583.5,321.0 583.0,321.5 582.5,322.0 582.5,323.0 582.5,324.0 582.5,325.0 582.5,326.0 582.0,326.5 581.5,327.0 581.5,328.0 581.5,329.0 581.5,330.0 581.0,330.5 580.5,331.0 580.5,332.0 580.5,333.0 580.5,334.0 580.5,335.0 580.0,335.5 579.5,336.0 579.5,337.0 579.5,338.0 579.5,339.0 579.0,339.5 578.5,340.0 578.5,341.0 578.5,342.0 578.5,343.0 578.5,344.0 578.0,344.5 577.5,345.0 577.5,346.0 577.5,347.0 577.5,348.0 577.0,348.5 576.5,349.0 576.5,350.0 576.5,351.0 576.5,352.0 576.5,353.0 576.0,353.5 575.5,354.0 575.5,355.0 575.5,356.0 575.5,357.0 575.0,357.5 574.5,358.0 574.0,358.5 573.5,358.0 573.5,357.0 573.5,356.0 573.5,355.0 573.5,354.0 573.5,353.0 573.0,352.5 572.5,352.0 572.5,351.0 572.5,350.0 572.5,349.0 572.5,348.0 572.5,347.0 572.0,346.5 571.5,346.0 571.5,345.0 571.5,344.0 571.5,343.0 571.5,342.0 571.5,341.0 571.0,340.5 570.5,340.0 570.5,339.0 570.5,338.0 570.5,337.0 570.5,336.0 570.5,335.0 570.0,334.5 569.5,334.0 569.5,333.0 569.5,332.0 569.5,331.0 569.5,330.0 569.5,329.0 569.0,328.5 568.5,328.0 568.5,327.0 568.5,326.0 568.5,325.0 568.5,324.0 568.5,323.0 568.0,322.5 567.5,322.0 567.5,321.0 567.5,320.0 567.5,319.0 567.5,318.0 567.5,317.0 567.0,316.5 566.5,316.0 566.5,315.0 566.5,314.0 566.5,313.0 566.5,312.0 566.5,311.0 566.0,310.5 565.5,310.0 565.5,309.0 565.5,308.0 565.5,307.0 565.0,306.5 564.0,306.5 563.0,306.5 562.0,306.5 561.5,306.0 561.0,305.5 560.0,305.5 559.0,305.5 558.0,305.5 557.0,305.5 556.0,305.5 555.5,305.0 555.0,304.5 554.0,304.5 553.0,304.5 552.0,304.5 551.0,304.5 550.0,304.5 549.5,304.0 549.0,303.5 548.0,303.5 547.0,303.5 546.0,303.5 545.0,303.5 544.0,303.5 543.0,303.5 542.5,303.0 542.0,302.5 541.0,302.5 540.0,302.5 539.0,302.5 538.0,302.5 537.0,302.5 536.0,302.5 535.0,302.5 534.5,302.0 534.0,301.5 533.0,301.5 532.0,301.5 531.5,301.0 531.5,300.0 531.5,299.0 531.5,298.0 531.0,297.5 530.5,297.0 530.5,296.0 530.5,295.0 530.5,294.0 530.5,293.0 530.5,292.0 530.5,291.0 530.0,290.5 529.5,290.0 529.5,289.0 529.5,288.0 529.5,287.0 529.5,286.0 529.5,285.0 529.5,284.0 529.5,283.0 529.0,282.5 528.5,282.0 528.5,281.0 528.5,280.0 528.5,279.0 528.5,278.0 528.5,277.0 528.0,276.5 527.0,276.5 526.0,276.5 525.0,276.5 524.0,276.5 523.0,276.5 522.0,276.5 521.0,276.5 520.0,276.5 519.0,276.5 518.0,276.5 517.0,276.5 516.0,276.5 515.0,276.5 514.0,276.5 513.0,276.5 512.0,276.5 511.0,276.5 510.0,276.5 509.0,276.5 508.0,276.5 507.0,276.5 506.0,276.5 505.0,276.5 504.0,276.5 503.0,276.5 502.0,276.5 501.0,276.5 500.0,276.5 499.0,276.5 498.0,276.5 497.0,276.5 496.0,276.5 495.0,276.5 494.5,277.0 494.5,278.0 494.5,279.0 494.5,280.0 494.0,280.5 493.5,281.0 493.5,282.0 493.5,283.0 493.5,284.0 493.5,285.0 493.5,286.0 493.0,286.5 492.5,287.0 492.5,288.0 492.5,289.0 492.5,290.0 492.5,291.0 492.5,292.0 492.5,293.0 492.0,293.5 491.5,294.0 491.5,295.0 491.5,296.0 491.5,297.0 491.5,298.0 491.5,299.0 491.0,299.5 490.5,300.0 490.5,301.0 490.5,302.0 490.0,302.5 489.0,302.5 488.0,302.5 487.0,302.5 486.0,302.5 485.0,302.5 484.0,302.5 483.5,303.0 483.0,303.5 482.0,303.5 481.0,303.5 480.0,303.5 479.0,303.5 478.0,303.5 477.0,303.5 476.5,304.0 476.0,304.5 475.0,304.5 474.0,304.5 473.0,304.5 472.0,304.5 471.0,304.5 470.0,304.5 469.5,305.0 469.0,305.5 468.0,305.5 467.0,305.5 466.0,305.5 465.0,305.5 464.0,305.5 463.5,306.0 463.0,306.5 462.0,306.5 461.0,306.5 460.0,306.5 459.0,306.5 458.0,306.5 457.5,307.0 457.0,307.5 456.5,308.0 456.5,309.0 456.5,310.0 456.5,311.0 456.0,311.5 455.5,312.0 455.5,313.0 455.5,314.0 455.5,315.0 455.5,316.0 455.5,317.0 455.0,317.5 454.5,318.0 454.5,319.0 454.5,320.0 454.5,321.0 454.5,322.0 454.5,323.0 454.0,323.5 453.5,324.0 453.5,325.0 453.5,326.0 453.5,327.0 453.5,328.0 453.5,329.0 453.0,329.5 452.5,330.0 452.5,331.0 452.5,332.0 452.5,333.0 452.5,334.0 452.0,334.5 451.5,335.0 451.5,336.0 451.5,337.0 451.5,338.0 451.5,339.0 451.5,340.0 451.0,340.5 450.5,341.0 450.5,342.0 450.5,343.0 450.5,344.0 450.5,345.0 450.5,346.0 450.5,347.0 450.0,347.5 449.5,348.0 449.5,349.0 449.5,350.0 449.5,351.0 449.5,352.0 449.5,353.0 449.5,354.0 449.0,354.5 448.5,355.0 448.5,356.0 448.5,357.0 448.5,358.0 448.0,358.5 447.5,358.0 447.5,357.0 447.0,356.5 446.5,356.0 446.5,355.0 446.5,354.0 446.5,353.0 446.0,352.5 445.5,352.0 445.5,351.0 445.5,350.0 445.5,349.0 445.5,348.0 445.0,347.5 444.5,347.0 444.5,346.0 444.5,345.0 444.5,344.0 444.5,343.0 444.0,342.5 443.5,342.0 443.5,341.0 443.5,340.0 443.5,339.0 443.5,338.0 443.0,337.5 442.5,337.0 442.5,336.0 442.5,335.0 442.5,334.0 442.5,333.0 442.0,332.5 441.5,332.0 441.5,331.0 441.5,330.0 441.5,329.0 441.0,328.5 440.5,328.0 440.5,327.0 440.5,326.0 440.5,325.0 440.5,324.0 440.0,323.5 439.5,323.0 439.5,322.0 439.5,321.0 439.5,320.0 439.0,319.5 438.5,319.0 438.5,318.0 438.5,317.0 438.5,316.0 438.5,315.0 438.0,314.5 437.5,314.0 437.5,313.0 437.5,312.0 437.5,311.0 437.5,310.0 437.0,309.5 436.5,309.0 436.5,308.0 436.5,307.0 436.5,306.0 436.0,305.5 435.5,305.0 435.5,304.0 435.5,303.0 435.5,302.0 435.5,301.0 435.0,300.5 434.5,300.0 434.5,299.0 434.5,298.0 434.5,297.0 434.5,296.0 434.0,295.5 433.5,295.0 433.5,294.0 433.5,293.0 433.5,292.0 433.0,291.5 432.5,291.0 432.5,290.0 432.5,289.0 432.5,288.0 432.5,287.0 432.0,286.5 431.5,286.0 431.5,285.0 431.5,284.0 431.5,283.0 431.5,282.0 431.0,281.5 430.5,281.0 430.5,280.0 430.5,279.0 430.5,278.0 430.5,277.0 430.0,276.5 429.5,276.0 429.5,275.0 429.5,274.0 429.5,273.0 429.5,272.0 429.0,271.5 428.5,271.0 428.5,270.0 428.5,269.0 428.5,268.0 428.0,267.5 427.5,267.0 427.5,266.0 427.5,265.0 427.5,264.0 427.0,263.5 426.5,263.0 426.5,262.0 426.5,261.0 426.5,260.0 426.5,259.0 426.0,258.5 425.5,258.0 425.5,257.0 425.5,256.0 425.5,255.0 425.5,254.0 425.0,253.5 424.5,253.0 424.5,252.0 424.5,251.0 424.5,250.0 424.0,249.5 423.5,249.0 423.5,248.0 423.5,247.0 423.5,246.0 423.5,245.0 423.0,244.5 422.5,244.0 422.5,243.0 422.5,242.0 422.5,241.0 422.0,240.5 421.5,240.0 421.5,239.0 421.5,238.0 421.5,237.0 421.5,236.0 421.0,235.5 420.5,235.0 420.5,234.0 420.5,233.0 420.5,232.0 420.0,231.5 419.5,231.0 419.5,230.0 419.5,229.0 419.5,228.0 419.0,227.5 418.5,227.0 418.5,226.0 418.5,225.0 418.5,224.0 418.0,223.5 417.5,223.0 417.5,222.0 417.5,221.0 417.5,220.0 417.0,219.5 416.5,219.0 416.5,218.0 416.5,217.0 416.5,216.0 416.5,215.0 416.0,214.5 415.5,214.0 415.5,213.0 415.5,212.0 415.5,211.0 415.0,210.5 414.5,210.0 414.5,209.0 414.5,208.0 414.5,207.0 414.0,206.5 413.5,206.0 413.5,205.0 413.5,204.0 413.5,203.0 413.0,202.5 412.5,202.0 412.5,201.0 412.5,200.0 412.5,199.0 412.0,198.5 411.5,198.0 411.5,197.0 411.5,196.0 411.5,195.0 411.0,194.5 410.5,194.0 410.5,193.0 410.5,192.0 410.0,191.5 409.5,191.0 409.0,190.5 408.5,190.0 408.0,189.5 407.0,189.5 406.0,189.5 405.0,189.5 404.0,189.5 403.0,189.5 402.0,189.5 401.0,189.5 400.5,190.0 400.0,190.5 399.0,190.5 398.0,190.5 397.0,190.5 396.0,190.5 395.0,190.5 394.0,190.5 393.5,191.0 393.0,191.5 392.0,191.5 391.0,191.5 390.0,191.5 389.0,191.5 388.0,191.5 387.5,192.0 387.0,192.5 386.0,192.5 385.0,192.5 384.0,192.5 383.0,192.5 382.0,192.5 381.5,193.0 381.0,193.5 380.0,193.5 379.0,193.5 378.0,193.5 377.0,193.5 376.0,193.5 375.5,194.0 375.0,194.5 374.0,194.5 373.0,194.5 372.0,194.5 371.0,194.5 370.0,194.5 369.5,195.0 369.0,195.5 368.0,195.5 367.0,195.5 366.0,195.5 365.0,195.5 364.5,196.0 364.0,196.5 363.0,196.5 362.0,196.5 361.0,196.5 360.0,196.5 359.0,196.5 358.5,197.0 358.0,197.5 357.0,197.5 356.0,197.5 355.0,197.5 354.0,197.5 353.0,197.5 352.0,197.5 351.5,198.0 351.0,198.5 350.0,198.5 349.0,198.5 348.0,198.5 347.0,198.5 346.0,198.5 345.5,199.0 345.0,199.5 344.0,199.5 343.0,199.5 342.0,199.5 341.0,199.5 340.0,199.5 339.5,200.0 339.0,200.5 338.0,200.5 337.0,200.5 336.0,200.5 335.0,200.5 334.0,200.5 333.5,201.0 333.0,201.5 332.0,201.5 331.0,201.5 330.0,201.5 329.0,201.5 328.0,201.5 327.5,202.0 327.0,202.5 326.0,202.5 325.0,202.5 324.0,202.5 323.0,202.5 322.0,202.5 321.5,203.0 321.0,203.5 320.0,203.5 319.0,203.5 318.0,203.5 317.0,203.5 316.0,203.5 315.5,204.0 315.0,204.5 314.0,204.5 313.0,204.5 312.0,204.5 311.0,204.5 310.0,204.5 309.5,205.0 309.0,205.5 308.0,205.5 307.0,205.5 306.0,205.5 305.0,205.5 304.0,205.5 303.0,205.5 302.5,206.0 302.0,206.5 301.0,206.5 300.0,206.5 299.0,206.5 298.0,206.5 297.5,207.0 297.0,207.5 296.0,207.5 295.0,207.5 294.0,207.5 293.0,207.5 292.0,207.5 291.0,207.5 290.5,208.0 290.0,208.5 289.0,208.5 288.0,208.5 287.0,208.5 286.0,208.5 285.0,208.5 284.5,209.0 284.0,209.5 283.0,209.5 282.0,209.5 281.0,209.5 280.0,209.5 279.0,209.5 278.0,209.5 277.5,210.0 277.0,210.5 276.0,210.5 275.0,210.5 274.0,210.5 273.0,210.5 272.0,210.5 271.5,211.0 271.0,211.5 270.0,211.5 269.0,211.5 268.0,211.5 267.0,211.5 266.0,211.5 265.5,212.0 265.0,212.5 264.0,212.5 263.0,212.5 262.0,212.5 261.0,212.5 260.0,212.5 259.5,213.0 259.0,213.5 258.0,213.5 257.0,213.5 256.0,213.5 255.0,213.5 254.0,213.5 253.5,214.0 253.0,214.5 252.0,214.5 251.0,214.5 250.0,214.5 249.0,214.5 248.0,214.5 247.0,214.5 246.5,215.0 246.0,215.5 245.0,215.5 244.0,215.5 243.0,215.5 242.0,215.5 241.0,215.5 240.5,216.0 240.0,216.5 239.0,216.5 238.0,216.5 237.0,216.5 236.0,216.5 235.0,216.5 234.5,217.0 234.0,217.5 233.0,217.5 232.0,217.5 231.0,217.5 230.0,217.5 229.0,217.5 228.5,218.0 228.0,218.5 227.0,218.5 226.0,218.5 225.0,218.5 224.0,218.5 223.5,219.0 223.0,219.5 222.0,219.5 221.5,220.0 221.0,220.5 220.5,221.0 220.5,222.0 220.5,223.0 220.5,224.0 220.5,225.0 220.5,226.0 220.5,227.0 220.5,228.0 220.5,229.0 220.5,230.0 220.5,231.0 220.5,232.0 220.5,233.0 220.5,234.0 220.5,235.0 220.5,236.0 220.5,237.0 220.5,238.0 220.5,239.0 220.5,240.0 220.5,241.0 220.5,242.0 220.5,243.0 220.5,244.0 220.5,245.0 220.5,246.0 220.5,247.0 220.5,248.0 220.5,249.0 220.5,250.0 220.5,251.0 220.5,252.0 220.5,253.0 220.5,254.0 220.5,255.0 220.5,256.0 220.5,257.0 220.5,258.0 220.5,259.0 220.5,260.0 220.5,261.0 220.5,262.0 220.5,263.0 220.5,264.0 220.5,265.0 220.5,266.0 220.5,267.0 220.5,268.0 220.5,269.0 220.5,270.0 220.5,271.0 220.5,272.0 220.5,273.0 220.5,274.0 220.5,275.0 220.5,276.0 220.5,277.0 220.5,278.0 220.5,279.0 221.0,279.5 221.5,280.0 221.0,280.5 220.5,281.0 220.5,282.0 220.5,283.0 220.5,284.0 220.5,285.0 220.5,286.0 220.5,287.0 221.0,287.5 221.5,288.0 221.0,288.5 220.5,289.0 220.5,290.0 220.5,291.0 220.5,292.0 220.5,293.0 220.5,294.0 220.5,295.0 220.5,296.0 221.0,296.5 221.5,297.0 221.5,298.0 221.5,299.0 221.5,300.0 221.5,301.0 221.5,302.0 221.5,303.0 221.5,304.0 221.0,304.5 220.5,305.0 220.5,306.0 220.5,307.0 221.0,307.5 221.5,308.0 221.0,308.5 220.5,309.0 220.5,310.0 220.5,311.0 220.5,312.0 220.5,313.0 220.5,314.0 220.5,315.0 220.5,316.0 220.5,317.0 220.5,318.0 220.5,319.0 221.0,319.5 221.5,320.0 221.5,321.0 221.5,322.0 222.0,322.5 222.5,323.0 223.0,323.5 223.5,324.0 224.0,324.5 224.5,325.0 225.0,325.5 225.5,326.0 226.0,326.5 226.5,327.0 227.0,327.5 227.5,328.0 228.0,328.5 229.0,328.5 229.5,329.0 230.0,329.5 230.5,330.0 231.0,330.5 231.5,331.0 232.0,331.5 232.5,332.0 233.0,332.5 233.5,333.0 234.0,333.5 234.5,334.0 235.0,334.5 235.5,335.0 236.0,335.5 236.5,336.0 237.0,336.5 237.5,337.0 238.0,337.5 238.5,338.0 239.0,338.5 239.5,339.0 240.0,339.5 241.0,339.5 241.5,340.0 242.0,340.5 242.5,341.0 243.0,341.5 243.5,342.0 244.0,342.5 244.5,343.0 245.0,343.5 245.5,344.0 246.0,344.5 246.5,345.0 247.0,345.5 247.5,346.0 248.0,346.5 248.5,347.0 249.0,347.5 249.5,348.0 250.0,348.5 250.5,349.0 251.0,349.5 252.0,349.5 252.5,350.0 253.0,350.5 253.5,351.0 254.0,351.5 254.5,352.0 255.0,352.5 255.5,353.0 256.0,353.5 256.5,354.0 257.0,354.5 257.5,355.0 258.0,355.5 258.5,356.0 259.0,356.5 259.5,357.0 260.0,357.5 260.5,358.0 261.0,358.5 261.5,359.0 262.0,359.5 263.0,359.5 263.5,360.0 264.0,360.5 264.5,361.0 265.0,361.5 265.5,362.0 266.0,362.5 266.5,363.0 267.0,363.5 267.5,364.0 268.0,364.5 268.5,365.0 269.0,365.5 269.5,366.0 270.0,366.5 270.5,367.0 271.0,367.5 271.5,368.0 272.0,368.5 272.5,369.0 273.0,369.5 274.0,369.5 274.5,370.0 275.0,370.5 275.5,371.0 276.0,371.5 276.5,372.0 277.0,372.5 277.5,373.0 278.0,373.5 278.5,374.0 279.0,374.5 279.5,375.0 280.0,375.5 280.5,376.0 281.0,376.5 281.5,377.0 282.0,377.5 282.5,378.0 283.0,378.5 283.5,379.0 284.0,379.5 284.5,380.0 285.0,380.5 286.0,380.5 286.5,381.0 287.0,381.5 287.5,382.0 288.0,382.5 288.5,383.0 289.0,383.5 289.5,384.0 290.0,384.5 290.5,385.0 291.0,385.5 291.5,386.0 292.0,386.5 292.5,387.0 293.0,387.5 293.5,388.0 294.0,388.5 294.5,389.0 295.0,389.5 296.0,389.5 296.5,390.0 297.0,390.5 297.5,391.0 298.0,391.5 298.5,392.0 299.0,392.5 299.5,393.0 300.0,393.5 300.5,394.0 301.0,394.5 301.5,395.0 302.0,395.5 302.5,396.0 303.0,396.5 303.5,397.0 304.0,397.5 304.5,398.0 305.0,398.5 305.5,399.0 306.0,399.5 306.5,400.0 307.0,400.5 308.0,400.5 308.5,401.0 309.0,401.5 309.5,402.0 310.0,402.5 310.5,403.0 311.0,403.5 311.5,404.0 312.0,404.5 312.5,405.0 313.0,405.5 313.5,406.0 314.0,406.5 314.5,407.0 315.0,407.5 315.5,408.0 316.0,408.5 316.5,409.0 317.0,409.5 317.5,410.0 318.0,410.5 318.5,411.0 319.0,411.5 320.0,411.5 320.5,412.0 321.0,412.5 321.5,413.0 322.0,413.5 322.5,414.0 323.0,414.5 323.5,415.0 324.0,415.5 324.5,416.0 325.0,416.5 325.5,417.0 326.0,417.5 326.5,418.0 327.0,418.5 327.5,419.0 328.0,419.5 328.5,420.0 329.0,420.5 329.5,421.0 330.0,421.5 330.5,422.0 331.0,422.5 332.0,422.5 332.5,423.0 333.0,423.5 333.5,424.0 334.0,424.5 334.5,425.0 335.0,425.5 335.5,426.0 336.0,426.5 336.5,427.0 337.0,427.5 337.5,428.0 338.0,428.5 338.5,429.0 339.0,429.5 339.5,430.0 340.0,430.5 340.5,431.0 341.0,431.5 341.5,432.0 342.0,432.5 342.5,433.0 343.0,433.5 343.5,434.0 343.5,435.0 343.5,436.0 343.5,437.0 343.5,438.0 343.5,439.0 343.5,440.0 343.5,441.0 343.5,442.0 344.0,442.5 344.5,443.0 344.5,444.0 344.5,445.0 344.5,446.0 344.5,447.0 344.5,448.0 344.5,449.0 344.5,450.0 344.5,451.0 344.5,452.0 344.5,453.0 344.5,454.0 344.5,455.0 344.5,456.0 344.5,457.0 344.0,457.5 343.5,458.0 343.0,458.5 342.0,458.5 341.0,458.5 340.0,458.5 339.5,459.0 339.0,459.5 338.0,459.5 337.0,459.5 336.0,459.5 335.0,459.5 334.0,459.5 333.5,460.0 333.0,460.5 332.0,460.5 331.0,460.5 330.0,460.5 329.0,460.5 328.5,461.0 328.0,461.5 327.0,461.5 326.0,461.5 325.0,461.5 324.0,461.5 323.0,461.5 322.5,462.0 322.0,462.5 321.0,462.5 320.0,462.5 319.0,462.5 318.0,462.5 317.0,462.5 316.5,463.0 316.0,463.5 315.0,463.5 314.0,463.5 313.0,463.5 312.0,463.5 311.0,463.5 310.5,464.0 310.0,464.5 309.0,464.5 308.0,464.5 307.0,464.5 306.0,464.5 305.5,465.0 305.0,465.5 304.0,465.5 303.0,465.5 302.0,465.5 301.0,465.5 300.0,465.5 299.5,466.0 299.0,466.5 298.0,466.5 297.0,466.5 296.0,466.5 295.0,466.5 294.5,467.0 294.0,467.5 293.0,467.5 292.0,467.5 291.0,467.5 290.0,467.5 289.0,467.5 288.5,468.0 288.0,468.5 287.0,468.5 286.0,468.5 285.0,468.5 284.0,468.5 283.0,468.5 282.5,469.0 282.0,469.5 281.0,469.5 280.0,469.5 279.0,469.5 278.0,469.5 277.5,470.0 277.0,470.5 276.0,470.5 275.0,470.5 274.0,470.5 273.0,470.5 272.0,470.5 271.5,471.0 271.0,471.5 270.0,471.5 269.0,471.5 268.0,471.5 267.0,471.5 266.0,471.5 265.5,472.0 265.0,472.5 264.0,472.5 263.0,472.5 262.0,472.5 261.0,472.5 260.5,473.0 260.0,473.5 259.0,473.5 258.0,473.5 257.0,473.5 256.0,473.5 255.0,473.5 254.5,474.0 254.0,474.5 253.0,474.5 252.0,474.5 251.0,474.5 250.0,474.5 249.5,475.0 249.0,475.5 248.0,475.5 247.0,475.5 246.0,475.5 245.0,475.5 244.0,475.5 243.5,476.0 243.0,476.5 242.0,476.5 241.0,476.5 240.0,476.5 239.0,476.5 238.5,477.0 238.0,477.5 237.0,477.5 236.0,477.5 235.0,477.5 234.0,477.5 233.0,477.5 232.5,478.0 232.0,478.5 231.0,478.5 230.0,478.5 229.0,478.5 228.0,478.5 227.5,479.0 227.0,479.5 226.0,479.5 225.0,479.5 224.0,479.5 223.0,479.5 222.0,479.5 221.5,480.0 221.0,480.5 220.0,480.5 219.0,480.5 218.0,480.5 217.0,480.5 216.5,481.0 216.0,481.5 215.0,481.5 214.0,481.5 213.0,481.5 212.0,481.5 211.0,481.5 210.5,482.0 210.0,482.5 209.0,482.5 208.0,482.5 207.0,482.5 206.0,482.5 205.0,482.5 204.5,483.0 204.0,483.5 203.0,483.5 202.0,483.5 201.0,483.5 200.0,483.5 199.5,484.0 199.0,484.5 198.0,484.5 197.0,484.5 196.0,484.5 195.0,484.5 194.5,485.0 194.0,485.5 193.0,485.5 192.0,485.5 191.0,485.5 190.0,485.5 189.0,485.5 188.5,486.0 188.0,486.5 187.0,486.5 186.0,486.5 185.0,486.5 184.0,486.5 183.0,486.5 182.5,487.0 182.0,487.5 181.0,487.5 180.0,487.5 179.0,487.5 178.0,487.5 177.5,488.0 177.0,488.5 176.0,488.5 175.0,488.5 174.0,488.5 173.0,488.5 172.0,488.5 171.5,489.0 171.0,489.5 170.0,489.5 169.0,489.5 168.0,489.5 167.0,489.5 166.0,489.5 165.5,490.0 165.0,490.5 164.0,490.5 163.0,490.5 162.0,490.5 161.0,490.5 160.5,491.0 160.0,491.5 159.0,491.5 158.0,491.5 157.0,491.5 156.0,491.5 155.5,492.0 155.0,492.5 154.0,492.5 153.0,492.5 152.0,492.5 151.0,492.5 150.0,492.5 149.5,493.0 149.0,493.5 148.0,493.5 147.0,493.5 146.0,493.5 145.0,493.5 144.0,493.5 143.5,494.0 143.0,494.5 142.0,494.5 141.0,494.5 140.0,494.5 139.0,494.5 138.5,495.0 138.0,495.5 137.0,495.5 136.0,495.5 135.0,495.5 134.0,495.5 133.0,495.5 132.5,496.0 132.0,496.5 131.0,496.5 130.0,496.5 129.0,496.5 128.0,496.5 127.5,497.0 127.0,497.5 126.0,497.5 125.0,497.5 124.0,497.5 123.0,497.5 122.0,497.5 121.5,498.0 121.0,498.5 120.0,498.5 119.0,498.5 118.0,498.5 117.0,498.5 116.0,498.5 115.5,499.0 115.0,499.5 114.0,499.5 113.0,499.5 112.0,499.5 111.0,499.5 110.5,500.0 110.0,500.5 109.0,500.5 108.0,500.5 107.0,500.5 106.0,500.5 105.0,500.5 104.5,501.0 104.0,501.5 103.0,501.5 102.0,501.5 101.0,501.5 100.0,501.5 99.0,501.5 98.5,502.0 98.0,502.5 97.0,502.5 96.0,502.5 95.0,502.5 94.0,502.5 93.0,502.5 92.5,503.0 92.0,503.5 91.0,503.5 90.0,503.5 89.0,503.5 88.0,503.5 87.5,504.0 87.0,504.5 86.0,504.5 85.0,504.5 84.0,504.5 83.0,504.5 82.0,504.5 81.5,505.0 81.0,505.5 80.0,505.5 79.0,505.5 78.0,505.5 77.0,505.5 76.5,506.0 76.0,506.5 75.0,506.5 74.0,506.5 73.0,506.5 72.5,507.0 72.0,507.5 71.0,507.5 70.5,508.0 70.0,508.5 69.5,509.0 69.5,510.0 69.5,511.0 69.5,512.0 69.5,513.0 69.5,514.0 69.5,515.0 69.5,516.0 69.5,517.0 69.5,518.0 69.5,519.0 69.5,520.0 69.5,521.0 69.5,522.0 69.5,523.0 69.5,524.0 69.5,525.0 69.5,526.0 69.5,527.0 69.5,528.0 69.5,529.0 69.5,530.0 69.5,531.0 69.5,532.0 69.5,533.0 69.5,534.0 69.5,535.0 69.5,536.0 69.5,537.0 69.5,538.0 69.5,539.0 69.5,540.0 69.5,541.0 69.5,542.0 69.5,543.0 69.5,544.0 69.5,545.0 69.5,546.0 69.5,547.0 69.5,548.0 69.5,549.0 69.5,550.0 69.5,551.0 69.5,552.0 69.5,553.0 69.5,554.0 69.5,555.0 69.5,556.0 69.5,557.0 69.5,558.0 69.5,559.0 69.5,560.0 69.5,561.0 69.5,562.0 69.5,563.0 69.5,564.0 69.5,565.0 69.5,566.0 69.5,567.0 69.5,568.0 69.5,569.0 69.5,570.0 69.5,571.0 69.5,572.0 69.5,573.0 69.5,574.0 69.5,575.0 69.5,576.0 69.5,577.0 69.5,578.0 69.5,579.0 69.5,580.0 69.5,581.0 69.5,582.0 69.5,583.0 69.5,584.0 69.5,585.0 69.5,586.0 69.5,587.0 69.5,588.0 69.5,589.0 69.5,590.0 69.5,591.0 69.5,592.0 69.5,593.0 69.5,594.0 69.5,595.0 69.5,596.0 69.5,597.0 69.5,598.0 69.5,599.0 69.5,600.0 69.5,601.0 69.5,602.0 69.5,603.0 69.5,604.0 69.5,605.0 69.5,606.0 69.5,607.0 69.5,608.0 69.5,609.0 69.5,610.0 69.5,611.0 69.5,612.0 69.5,613.0 69.5,614.0 69.5,615.0 69.5,616.0 69.5,617.0 69.5,618.0 69.5,619.0 69.5,620.0 69.5,621.0 69.5,622.0 69.5,623.0 69.5,624.0 69.5,625.0 69.5,626.0 69.5,627.0 69.5,628.0 69.5,629.0 69.5,630.0 70.0,630.5 70.5,631.0 71.0,631.5 71.5,632.0 72.0,632.5 73.0,632.5 73.5,633.0 74.0,633.5 74.5,634.0 75.0,634.5 76.0,634.5 76.5,635.0 77.0,635.5 77.5,636.0 78.0,636.5 79.0,636.5 79.5,637.0 80.0,637.5 80.5,638.0 81.0,638.5 81.5,639.0 82.0,639.5 83.0,639.5 83.5,640.0 84.0,640.5 84.5,641.0 85.0,641.5 85.5,642.0 86.0,642.5 87.0,642.5 87.5,643.0 88.0,643.5 88.5,644.0 89.0,644.5 89.5,645.0 90.0,645.5 90.5,646.0 91.0,646.5 92.0,646.5 92.5,647.0 93.0,647.5 93.5,648.0 94.0,648.5 94.5,649.0 95.0,649.5 96.0,649.5 96.5,650.0 97.0,650.5 97.5,651.0 98.0,651.5 98.5,652.0 99.0,652.5 100.0,652.5 100.5,653.0 101.0,653.5 101.5,654.0 102.0,654.5 102.5,655.0 103.0,655.5 103.5,656.0 104.0,656.5 105.0,656.5 105.5,657.0 106.0,657.5 106.5,658.0 107.0,658.5 107.5,659.0 108.0,659.5 109.0,659.5 109.5,660.0 110.0,660.5 110.5,661.0 111.0,661.5 111.5,662.0 112.0,662.5 113.0,662.5 113.5,663.0 114.0,663.5 114.5,664.0 115.0,664.5 115.5,665.0 116.0,665.5 117.0,665.5 117.5,666.0 118.0,666.5 118.5,667.0 119.0,667.5 119.5,668.0 120.0,668.5 120.5,669.0 121.0,669.5 122.0,669.5 122.5,670.0 123.0,670.5 123.5,671.0 124.0,671.5 124.5,672.0 125.0,672.5 126.0,672.5 126.5,673.0 127.0,673.5 127.5,674.0 128.0,674.5 128.5,675.0 129.0,675.5 130.0,675.5 130.5,676.0 131.0,676.5 131.5,677.0 132.0,677.5 132.5,678.0 133.0,678.5 134.0,678.5 134.5,679.0 135.0,679.5 135.5,680.0 136.0,680.5 136.5,681.0 137.0,681.5 137.5,682.0 138.0,682.5 139.0,682.5 139.5,683.0 140.0,683.5 140.5,684.0 141.0,684.5 141.5,685.0 142.0,685.5 143.0,685.5 143.5,686.0 144.0,686.5 144.5,687.0 145.0,687.5 145.5,688.0 146.0,688.5 147.0,688.5 147.5,689.0 148.0,689.5 148.5,690.0 149.0,690.5 149.5,691.0 150.0,691.5 151.0,691.5 151.5,692.0 152.0,692.5 152.5,693.0 153.0,693.5 153.5,694.0 154.0,694.5 155.0,694.5 155.5,695.0 156.0,695.5 156.5,696.0 157.0,696.5 157.5,697.0 158.0,697.5 158.5,698.0 159.0,698.5 160.0,698.5 160.5,699.0 161.0,699.5 161.5,700.0 162.0,700.5 162.5,701.0 163.0,701.5 164.0,701.5 164.5,702.0 165.0,702.5 165.5,703.0 166.0,703.5 166.5,704.0 167.0,704.5 168.0,704.5 168.5,705.0 169.0,705.5 169.5,706.0 170.0,706.5 170.5,707.0 171.0,707.5 172.0,707.5 172.5,708.0 173.0,708.5 173.5,709.0 174.0,709.5 174.5,710.0 175.0,710.5 175.5,711.0 176.0,711.5 177.0,711.5 177.5,712.0 178.0,712.5 178.5,713.0 179.0,713.5 179.5,714.0 180.0,714.5 181.0,714.5 181.5,715.0 182.0,715.5 182.5,716.0 183.0,716.5 183.5,717.0 184.0,717.5 185.0,717.5 185.5,718.0 186.0,718.5 186.5,719.0 187.0,719.5 187.5,720.0 188.0,720.5 189.0,720.5 189.5,721.0 190.0,721.5 190.5,722.0 191.0,722.5 191.5,723.0 192.0,723.5 192.5,724.0 193.0,724.5 194.0,724.5 194.5,725.0 195.0,725.5 195.5,726.0 196.0,726.5 196.5,727.0 197.0,727.5 198.0,727.5 198.5,728.0 199.0,728.5 199.5,729.0 200.0,729.5 200.5,730.0 201.0,730.5 202.0,730.5 202.5,731.0 203.0,731.5 203.5,732.0 204.0,732.5 204.5,733.0 205.0,733.5 206.0,733.5 206.5,734.0 207.0,734.5 207.5,735.0 208.0,735.5 208.5,736.0 209.0,736.5 209.5,737.0 210.0,737.5 211.0,737.5 211.5,738.0 212.0,738.5 212.5,739.0 213.0,739.5 213.5,740.0 214.0,740.5 215.0,740.5 215.5,741.0 216.0,741.5 216.5,742.0 217.0,742.5 217.5,743.0 218.0,743.5 219.0,743.5 219.5,744.0 220.0,744.5 220.5,745.0 221.0,745.5 221.5,746.0 222.0,746.5 222.5,747.0 223.0,747.5 224.0,747.5 224.5,748.0 225.0,748.5 225.5,749.0 226.0,749.5 226.5,750.0 227.0,750.5 228.0,750.5 228.5,751.0 229.0,751.5 229.5,752.0 230.0,752.5 230.5,753.0 231.0,753.5 232.0,753.5 232.5,754.0 233.0,754.5 233.5,755.0 234.0,755.5 234.5,756.0 235.0,756.5 235.5,757.0 236.0,757.5 237.0,757.5 237.5,758.0 238.0,758.5 238.5,759.0 239.0,759.5 239.5,760.0 240.0,760.5 241.0,760.5 241.5,761.0 242.0,761.5 242.5,762.0 243.0,762.5 243.5,763.0 244.0,763.5 245.0,763.5 245.5,764.0 246.0,764.5 246.5,765.0 247.0,765.5 247.5,766.0 248.0,766.5 248.5,767.0 249.0,767.5 250.0,767.5 250.5,768.0 251.0,768.5 251.5,769.0 252.0,769.5 252.5,770.0 253.0,770.5 254.0,770.5 254.5,771.0 255.0,771.5 255.5,772.0 256.0,772.5 256.5,773.0 257.0,773.5 258.0,773.5 258.5,774.0 259.0,774.5 259.5,775.0 260.0,775.5 260.5,776.0 261.0,776.5 261.5,777.0 262.0,777.5 263.0,777.5 263.5,778.0 264.0,778.5 264.5,779.0 265.0,779.5 265.5,780.0 266.0,780.5 267.0,780.5 267.5,781.0 268.0,781.5 268.5,782.0 269.0,782.5 269.5,783.0 270.0,783.5 271.0,783.5 271.5,784.0 272.0,784.5 272.5,785.0 273.0,785.5 273.5,786.0 274.0,786.5 274.5,787.0 275.0,787.5 276.0,787.5 276.5,788.0 277.0,788.5 277.5,789.0 278.0,789.5 278.5,790.0 279.0,790.5 280.0,790.5 280.5,791.0 281.0,791.5 281.5,792.0 282.0,792.5 282.5,793.0 283.0,793.5 283.5,794.0 284.0,794.5 285.0,794.5 285.5,795.0 286.0,795.5 286.5,796.0 287.0,796.5 287.5,797.0 288.0,797.5 289.0,797.5 289.5,798.0 290.0,798.5 290.5,799.0 291.0,799.5 291.5,800.0 292.0,800.5 292.5,801.0 293.0,801.5 294.0,801.5 294.5,802.0 295.0,802.5 295.5,803.0 296.0,803.5 296.5,804.0 297.0,804.5 298.0,804.5 298.5,805.0 299.0,805.5 299.5,806.0 300.0,806.5 300.5,807.0 301.0,807.5 302.0,807.5 302.5,808.0 303.0,808.5 303.5,809.0 304.0,809.5 304.5,810.0 305.0,810.5 305.5,811.0 306.0,811.5 307.0,811.5 307.5,812.0 308.0,812.5 308.5,813.0 309.0,813.5 309.5,814.0 310.0,814.5 311.0,814.5 311.5,815.0 312.0,815.5 312.5,816.0 313.0,816.5 313.5,817.0 314.0,817.5 315.0,817.5 315.5,818.0 316.0,818.5 316.5,819.0 317.0,819.5 317.5,820.0 318.0,820.5 318.5,821.0 319.0,821.5 320.0,821.5 320.5,822.0 321.0,822.5 321.5,823.0 322.0,823.5 322.5,824.0 323.0,824.5 323.5,825.0 324.0,825.5 325.0,825.5 325.5,826.0 326.0,826.5 326.5,827.0 327.0,827.5 327.5,828.0 328.0,828.5 329.0,828.5 329.5,829.0 330.0,829.5 330.5,830.0 331.0,830.5 331.5,831.0 332.0,831.5 332.5,832.0 333.0,832.5 334.0,832.5 334.5,833.0 335.0,833.5 335.5,834.0 336.0,834.5 336.5,835.0 337.0,835.5 337.5,836.0 338.0,836.5 339.0,836.5 339.5,837.0 340.0,837.5 340.5,838.0 341.0,838.5 341.5,839.0 342.0,839.5 342.5,840.0 343.0,840.5 343.5,841.0 344.0,841.5 344.5,842.0 345.0,842.5 346.0,842.5 346.5,843.0 347.0,843.5 347.5,844.0 348.0,844.5 348.5,845.0 349.0,845.5 349.5,846.0 350.0,846.5 350.5,847.0 351.0,847.5 351.5,848.0 351.5,849.0 352.0,849.5 352.5,850.0 352.5,851.0 353.0,851.5 353.5,852.0 353.5,853.0 354.0,853.5 354.5,854.0 354.5,855.0 355.0,855.5 355.5,856.0 355.5,857.0 356.0,857.5 356.5,858.0 356.5,859.0 357.0,859.5 357.5,860.0 357.5,861.0 358.0,861.5 358.5,862.0 358.5,863.0 359.0,863.5 359.5,864.0 359.5,865.0 360.0,865.5 360.5,866.0 360.5,867.0 361.0,867.5 361.5,868.0 361.5,869.0 362.0,869.5 362.5,870.0 362.5,871.0 363.0,871.5 363.5,872.0 363.5,873.0 364.0,873.5 364.5,874.0 364.5,875.0 365.0,875.5 365.5,876.0 365.5,877.0 366.0,877.5 366.5,878.0 366.5,879.0 367.0,879.5 367.5,880.0 367.5,881.0 368.0,881.5 368.5,882.0 368.5,883.0 369.0,883.5 369.5,884.0 369.5,885.0 370.0,885.5 370.5,886.0 370.5,887.0 371.0,887.5 371.5,888.0 371.5,889.0 372.0,889.5 372.5,890.0 372.5,891.0 373.0,891.5 373.5,892.0 373.5,893.0 374.0,893.5 374.5,894.0 374.5,895.0 375.0,895.5 375.5,896.0 375.5,897.0 376.0,897.5 376.5,898.0 376.5,899.0 376.5,900.0 377.0,900.5 377.5,901.0 377.5,902.0 378.0,902.5 378.5,903.0 378.5,904.0 378.5,905.0 379.0,905.5 379.5,906.0 379.5,907.0 379.5,908.0 379.5,909.0 380.0,909.5 380.5,910.0 380.5,911.0 380.5,912.0 380.5,913.0 380.5,914.0 380.5,915.0 380.5,916.0 380.5,917.0 381.0,917.5 381.5,918.0 381.5,919.0 381.5,920.0 381.5,921.0 381.5,922.0 381.5,923.0 381.5,924.0 381.5,925.0 381.5,926.0 381.5,927.0 381.5,928.0 381.5,929.0 381.5,930.0 381.5,931.0 381.5,932.0 382.0,932.5 382.5,933.0 382.5,934.0 382.5,935.0 382.5,936.0 382.5,937.0 382.5,938.0 382.5,939.0 382.5,940.0 382.5,941.0 382.5,942.0 382.5,943.0 382.5,944.0 382.5,945.0 382.5,946.0 382.5,947.0 382.5,948.0 382.5,949.0 383.0,949.5 383.5,950.0 383.5,951.0 383.5,952.0 383.5,953.0 383.5,954.0 383.5,955.0 383.5,956.0 383.5,957.0 383.5,958.0 383.5,959.0 383.5,960.0 383.5,961.0 383.5,962.0 383.5,963.0 383.5,964.0 383.5,965.0 383.5,966.0 383.5,967.0 383.5,968.0 384.0,968.5 384.5,969.0 384.5,970.0 384.5,971.0 384.5,972.0 384.5,973.0 384.5,974.0 384.5,975.0 384.5,976.0 384.5,977.0 384.5,978.0 384.5,979.0 384.5,980.0 384.5,981.0 384.5,982.0 384.5,983.0 384.5,984.0 384.5,985.0 384.5,986.0 385.0,986.5 385.5,987.0 385.5,988.0 385.5,989.0 385.5,990.0 385.5,991.0 385.5,992.0 385.5,993.0 385.5,994.0 385.5,995.0 385.5,996.0 385.5,997.0 385.5,998.0 385.5,999.0 385.5,1000.0 385.5,1001.0 385.5,1002.0 385.5,1003.0 385.5,1004.0 386.0,1004.5 386.5,1005.0 386.5,1006.0 386.5,1007.0 386.5,1008.0 386.5,1009.0 386.5,1010.0 386.5,1011.0 386.5,1012.0 386.5,1013.0 386.5,1014.0 386.5,1015.0 386.5,1016.0 386.5,1017.0 386.5,1018.0 386.5,1019.0 386.5,1020.0 386.5,1021.0 386.5,1022.0 387.0,1022.5 387.5,1023.0 387.5,1024.0 387.5,1025.0 387.5,1026.0 387.5,1027.0 387.5,1028.0 387.5,1029.0 387.5,1030.0 387.5,1031.0 387.5,1032.0 387.5,1033.0 387.5,1034.0 387.5,1035.0 387.5,1036.0 387.5,1037.0 387.5,1038.0 387.5,1039.0 388.0,1039.5 388.5,1040.0 388.5,1041.0 388.5,1042.0 388.5,1043.0 388.5,1044.0 388.5,1045.0 388.5,1046.0 388.5,1047.0 388.5,1048.0 388.5,1049.0 388.5,1050.0 388.5,1051.0 388.5,1052.0 388.5,1053.0 388.5,1054.0 388.5,1055.0 389.0,1055.5 389.5,1056.0 389.5,1057.0 389.5,1058.0 389.5,1059.0 389.5,1060.0 389.5,1061.0 389.5,1062.0 389.5,1063.0 389.5,1064.0 389.5,1065.0 389.5,1066.0 389.5,1067.0 389.5,1068.0 389.5,1069.0 389.5,1070.0 389.5,1071.0 390.0,1071.5 390.5,1072.0 390.5,1073.0 390.5,1074.0 390.5,1075.0 390.5,1076.0 390.5,1077.0 390.5,1078.0 390.5,1079.0 390.5,1080.0 390.5,1081.0 390.5,1082.0 390.5,1083.0 390.5,1084.0 390.5,1085.0 390.5,1086.0 390.5,1087.0 390.5,1088.0 390.5,1089.0 391.0,1089.5 391.5,1090.0 391.5,1091.0 392.0,1091.5 392.5,1092.0 392.5,1093.0 393.0,1093.5 393.5,1094.0 394.0,1094.5 394.5,1095.0 394.5,1096.0 395.0,1096.5 395.5,1097.0 395.5,1098.0 396.0,1098.5 396.5,1099.0 397.0,1099.5 397.5,1100.0 397.5,1101.0 398.0,1101.5 398.5,1102.0 398.5,1103.0 399.0,1103.5 399.5,1104.0 400.0,1104.5 400.5,1105.0 400.5,1106.0 401.0,1106.5 401.5,1107.0 401.5,1108.0 402.0,1108.5 402.5,1109.0 403.0,1109.5 403.5,1110.0 403.5,1111.0 404.0,1111.5 404.5,1112.0 404.5,1113.0 405.0,1113.5 405.5,1114.0 406.0,1114.5 406.5,1115.0 406.5,1116.0 407.0,1116.5 407.5,1117.0 407.5,1118.0 408.0,1118.5 408.5,1119.0 409.0,1119.5 409.5,1120.0 409.5,1121.0 410.0,1121.5 410.5,1122.0 411.0,1122.5 411.5,1123.0 411.5,1124.0 412.0,1124.5 412.5,1125.0 412.5,1126.0 413.0,1126.5 414.0,1126.5 414.5,1126.0 415.0,1125.5 415.5,1125.0 415.5,1124.0 416.0,1123.5 416.5,1123.0 417.0,1122.5 417.5,1122.0 418.0,1121.5 418.5,1121.0 418.5,1120.0 419.0,1119.5 419.5,1119.0 420.0,1118.5 420.5,1118.0 421.0,1117.5 421.5,1117.0 421.5,1116.0 422.0,1115.5 422.5,1115.0 423.0,1114.5 423.5,1114.0 424.0,1113.5 424.5,1113.0 424.5,1112.0 425.0,1111.5 425.5,1111.0 426.0,1110.5 426.5,1110.0 427.0,1109.5 427.5,1109.0 427.5,1108.0 428.0,1107.5 428.5,1107.0 429.0,1106.5 429.5,1106.0 430.0,1105.5 430.5,1105.0 430.5,1104.0 431.0,1103.5 431.5,1103.0 432.0,1102.5 432.5,1102.0 433.0,1101.5 433.5,1101.0 433.5,1100.0 434.0,1099.5 434.5,1099.0 435.0,1098.5 435.5,1098.0 436.0,1097.5 436.5,1097.0 436.5,1096.0 437.0,1095.5 437.5,1095.0 438.0,1094.5 438.5,1094.0 439.0,1093.5 439.5,1093.0 439.5,1092.0 440.0,1091.5 440.5,1091.0 441.0,1090.5 441.5,1090.0 442.0,1089.5 442.5,1089.0 442.5,1088.0 443.0,1087.5 444.0,1087.5 444.5,1088.0 444.5,1089.0 444.5,1090.0 444.5,1091.0 444.5,1092.0 445.0,1092.5 445.5,1093.0 445.5,1094.0 445.5,1095.0 445.5,1096.0 445.5,1097.0 445.5,1098.0 445.5,1099.0 446.0,1099.5 446.5,1100.0 446.5,1101.0 446.5,1102.0 446.5,1103.0 446.5,1104.0 446.5,1105.0 446.5,1106.0 447.0,1106.5 447.5,1107.0 447.5,1108.0 447.5,1109.0 447.5,1110.0 447.5,1111.0 447.5,1112.0 447.5,1113.0 448.0,1113.5 448.5,1114.0 448.5,1115.0 448.5,1116.0 448.5,1117.0 448.5,1118.0 448.5,1119.0 448.5,1120.0 448.5,1121.0 449.0,1121.5 449.5,1122.0 449.5,1123.0 449.5,1124.0 449.5,1125.0 449.5,1126.0 449.5,1127.0 449.5,1128.0 450.0,1128.5 450.5,1129.0 450.5,1130.0 450.5,1131.0 450.5,1132.0 450.5,1133.0 450.5,1134.0 450.5,1135.0 451.0,1135.5 451.5,1136.0 451.5,1137.0 451.5,1138.0 451.5,1139.0 451.5,1140.0 451.5,1141.0 451.5,1142.0 452.0,1142.5 452.5,1143.0 452.5,1144.0 452.5,1145.0 452.5,1146.0 452.5,1147.0 452.5,1148.0 452.5,1149.0 453.0,1149.5 453.5,1150.0 453.5,1151.0 453.5,1152.0 453.5,1153.0 453.5,1154.0 453.5,1155.0 453.5,1156.0 453.5,1157.0 454.0,1157.5 454.5,1158.0 454.5,1159.0 454.5,1160.0 454.5,1161.0 454.5,1162.0 454.5,1163.0 454.5,1164.0 455.0,1164.5 455.5,1165.0 455.5,1166.0 455.5,1167.0 455.5,1168.0 455.5,1169.0 455.5,1170.0 455.5,1171.0 456.0,1171.5 456.5,1172.0 456.5,1173.0 456.5,1174.0 456.5,1175.0 456.5,1176.0 456.5,1177.0 456.5,1178.0 457.0,1178.5 457.5,1179.0 457.5,1180.0 457.5,1181.0 457.5,1182.0 457.5,1183.0 457.5,1184.0 457.5,1185.0 458.0,1185.5 458.5,1186.0 458.5,1187.0 458.5,1188.0 458.5,1189.0 458.5,1190.0 458.5,1191.0 458.5,1192.0 459.0,1192.5 459.5,1193.0 459.5,1194.0 459.5,1195.0 459.5,1196.0 459.5,1197.0 459.5,1198.0 460.0,1198.5 460.5,1199.0 460.5,1200.0 460.5,1201.0 460.5,1202.0 460.5,1203.0 460.5,1204.0 461.0,1204.5 461.5,1205.0 461.5,1206.0 461.5,1207.0 461.5,1208.0 461.5,1209.0 461.5,1210.0 462.0,1210.5 462.5,1211.0 462.5,1212.0 462.5,1213.0 462.5,1214.0 462.5,1215.0 462.5,1216.0 462.5,1217.0 463.0,1217.5 463.5,1218.0 463.5,1219.0 463.5,1220.0 463.5,1221.0 463.5,1222.0 463.5,1223.0 464.0,1223.5 464.5,1224.0 464.5,1225.0 464.5,1226.0 464.5,1227.0 464.5,1228.0 464.5,1229.0 465.0,1229.5 465.5,1230.0 465.5,1231.0 465.5,1232.0 465.5,1233.0 465.5,1234.0 466.0,1234.5 466.5,1235.0 466.5,1236.0 466.5,1237.0 466.5,1238.0 466.5,1239.0 466.5,1240.0 467.0,1240.5 467.5,1241.0 467.5,1242.0 467.5,1243.0 467.5,1244.0 467.5,1245.0 468.0,1245.5 468.5,1246.0 468.5,1247.0 468.5,1248.0 468.5,1249.0 468.5,1250.0 468.5,1251.0 469.0,1251.5 469.5,1252.0 469.5,1253.0 469.5,1254.0 469.5,1255.0 469.5,1256.0 470.0,1256.5 470.5,1257.0 470.5,1258.0 470.5,1259.0 470.5,1260.0 470.5,1261.0 470.5,1262.0 471.0,1262.5 471.5,1263.0 471.5,1264.0 471.5,1265.0 471.5,1266.0 471.5,1267.0 472.0,1267.5 472.5,1268.0 472.5,1269.0 472.5,1270.0 472.5,1271.0 472.5,1272.0 473.0,1272.5 473.5,1273.0 473.5,1274.0 473.5,1275.0 473.5,1276.0 473.5,1277.0 474.0,1277.5 474.5,1278.0 474.5,1279.0 474.5,1280.0 474.5,1281.0 474.5,1282.0 474.5,1283.0 475.0,1283.5 475.5,1284.0 475.5,1285.0 475.5,1286.0 475.5,1287.0 475.5,1288.0 476.0,1288.5 476.5,1289.0 476.5,1290.0 476.5,1291.0 476.5,1292.0 476.5,1293.0 477.0,1293.5 477.5,1294.0 477.5,1295.0 477.5,1296.0 477.5,1297.0 477.5,1298.0 477.5,1299.0 478.0,1299.5 478.5,1300.0 478.5,1301.0 478.5,1302.0 478.5,1303.0 478.5,1304.0 479.0,1304.5 479.5,1305.0 479.5,1306.0 479.5,1307.0 479.5,1308.0 479.5,1309.0 480.0,1309.5 480.5,1310.0 480.5,1311.0 480.5,1312.0 480.5,1313.0 480.5,1314.0 481.0,1314.5 481.5,1315.0 481.5,1316.0 481.5,1317.0 481.5,1318.0 481.5,1319.0 481.5,1320.0 482.0,1320.5 482.5,1321.0 482.5,1322.0 482.5,1323.0 482.5,1324.0 482.5,1325.0 483.0,1325.5 483.5,1326.0 483.5,1327.0 483.5,1328.0 483.5,1329.0 483.5,1330.0 484.0,1330.5 484.5,1331.0 484.5,1332.0 484.5,1333.0 484.5,1334.0 484.5,1335.0 485.0,1335.5 485.5,1336.0 485.5,1337.0 485.5,1338.0 485.5,1339.0 485.5,1340.0 485.5,1341.0 486.0,1341.5 486.5,1342.0 486.5,1343.0 486.5,1344.0 486.5,1345.0 486.5,1346.0 487.0,1346.5 487.5,1347.0 487.5,1348.0 487.5,1349.0 487.5,1350.0 487.5,1351.0 488.0,1351.5 488.5,1352.0 488.5,1353.0 488.5,1354.0 488.5,1355.0 488.5,1356.0 489.0,1356.5 489.5,1357.0 489.5,1358.0 489.5,1359.0 489.5,1360.0 489.5,1361.0 490.0,1361.5 490.5,1362.0 490.5,1363.0 490.5,1364.0 490.5,1365.0 490.5,1366.0 491.0,1366.5 491.5,1367.0 491.5,1368.0 491.5,1369.0 491.5,1370.0 491.5,1371.0 492.0,1371.5 492.5,1372.0 492.5,1373.0 492.5,1374.0 492.5,1375.0 492.5,1376.0 493.0,1376.5 493.5,1377.0 493.5,1378.0 493.5,1379.0 493.5,1380.0 493.5,1381.0 493.5,1382.0 494.0,1382.5 494.5,1383.0 494.5,1384.0 494.5,1385.0 494.5,1386.0 494.5,1387.0 495.0,1387.5 495.5,1388.0 495.5,1389.0 495.5,1390.0 495.5,1391.0 495.5,1392.0 495.5,1393.0 496.0,1393.5 496.5,1394.0 496.5,1395.0 496.5,1396.0 496.5,1397.0 496.5,1398.0 497.0,1398.5 497.5,1399.0 497.5,1400.0 497.5,1401.0 497.5,1402.0 497.5,1403.0 498.0,1403.5 498.5,1404.0 498.5,1405.0 498.5,1406.0 498.5,1407.0 498.5,1408.0 499.0,1408.5 499.5,1409.0 499.5,1410.0 499.5,1411.0 499.5,1412.0 499.5,1413.0 499.5,1414.0 500.0,1414.5 500.5,1415.0 500.5,1416.0 500.5,1417.0 500.5,1418.0 500.5,1419.0 501.0,1419.5 501.5,1420.0 501.5,1421.0 501.5,1422.0 501.5,1423.0 501.5,1424.0 502.0,1424.5 502.5,1425.0 502.5,1426.0 502.5,1427.0 502.5,1428.0 503.0,1428.5 503.5,1429.0 503.5,1430.0 503.5,1431.0 503.5,1432.0 503.5,1433.0 503.5,1434.0 504.0,1434.5 504.5,1435.0 504.5,1436.0 504.5,1437.0 504.5,1438.0 504.5,1439.0 505.0,1439.5 505.5,1440.0 505.5,1441.0 505.5,1442.0 505.5,1443.0 505.5,1444.0 506.0,1444.5 506.5,1445.0 506.5,1446.0 506.5,1447.0 506.5,1448.0 506.5,1449.0 507.0,1449.5 507.5,1450.0 507.5,1451.0 507.5,1452.0 507.5,1453.0 507.5,1454.0 507.5,1455.0 508.0,1455.5 508.5,1456.0 508.5,1457.0 508.5,1458.0 508.5,1459.0 508.5,1460.0 509.0,1460.5 509.5,1461.0 509.5,1462.0 509.5,1463.0 509.5,1464.0 509.5,1465.0 510.0,1465.5 510.5,1466.0 510.5,1467.0 510.5,1468.0 510.5,1469.0 510.5,1470.0 510.5,1471.0 510.5,1472.0 511.0,1472.5 511.5,1473.0 511.5,1474.0 511.5,1475.0 511.5,1476.0 511.5,1477.0 511.5,1478.0 512.0,1478.5 512.5,1478.0 512.5,1477.0 512.5,1476.0 512.5,1475.0 512.5,1474.0 512.5,1473.0 512.5,1472.0 513.0,1471.5 513.5,1471.0 513.5,1470.0 513.5,1469.0 513.5,1468.0 513.5,1467.0 513.5,1466.0 514.0,1465.5 514.5,1465.0 514.5,1464.0 514.5,1463.0 514.5,1462.0 514.5,1461.0 514.5,1460.0 514.5,1459.0 515.0,1458.5 515.5,1458.0 515.5,1457.0 515.5,1456.0 515.5,1455.0 515.5,1454.0 516.0,1453.5 516.5,1453.0 516.5,1452.0 516.5,1451.0 516.5,1450.0 516.5,1449.0 516.5,1448.0 517.0,1447.5 517.5,1447.0 517.5,1446.0 517.5,1445.0 517.5,1444.0 517.5,1443.0 517.5,1442.0 518.0,1441.5 518.5,1441.0 518.5,1440.0 518.5,1439.0 518.5,1438.0 518.5,1437.0 518.5,1436.0 519.0,1435.5 519.5,1435.0 519.5,1434.0 519.5,1433.0 519.5,1432.0 519.5,1431.0 519.5,1430.0 520.0,1429.5 520.5,1429.0 520.5,1428.0 520.5,1427.0 520.5,1426.0 520.5,1425.0 521.0,1424.5 521.5,1424.0 521.5,1423.0 521.5,1422.0 521.5,1421.0 521.5,1420.0 521.5,1419.0 522.0,1418.5 522.5,1418.0 522.5,1417.0 522.5,1416.0 522.5,1415.0 522.5,1414.0 523.0,1413.5 523.5,1413.0 523.5,1412.0 523.5,1411.0 523.5,1410.0 523.5,1409.0 524.0,1408.5 524.5,1408.0 524.5,1407.0 524.5,1406.0 524.5,1405.0 524.5,1404.0 524.5,1403.0 525.0,1402.5 525.5,1402.0 525.5,1401.0 525.5,1400.0 525.5,1399.0 525.5,1398.0 526.0,1397.5 526.5,1397.0 526.5,1396.0 526.5,1395.0 526.5,1394.0 526.5,1393.0 527.0,1392.5 527.5,1392.0 527.5,1391.0 527.5,1390.0 527.5,1389.0 527.5,1388.0 528.0,1387.5 528.5,1387.0 528.5,1386.0 528.5,1385.0 528.5,1384.0 528.5,1383.0 529.0,1382.5 529.5,1382.0 529.5,1381.0 529.5,1380.0 529.5,1379.0 529.5,1378.0 530.0,1377.5 530.5,1377.0 530.5,1376.0 530.5,1375.0 530.5,1374.0 530.5,1373.0 531.0,1372.5 531.5,1372.0 531.5,1371.0 531.5,1370.0 531.5,1369.0 531.5,1368.0 532.0,1367.5 532.5,1367.0 532.5,1366.0 532.5,1365.0 532.5,1364.0 532.5,1363.0 533.0,1362.5 533.5,1362.0 533.5,1361.0 533.5,1360.0 533.5,1359.0 534.0,1358.5 534.5,1358.0 534.5,1357.0 534.5,1356.0 534.5,1355.0 534.5,1354.0 535.0,1353.5 535.5,1353.0 535.5,1352.0 535.5,1351.0 535.5,1350.0 535.5,1349.0 536.0,1348.5 536.5,1348.0 536.5,1347.0 536.5,1346.0 536.5,1345.0 536.5,1344.0 537.0,1343.5 537.5,1343.0 537.5,1342.0 537.5,1341.0 537.5,1340.0 537.5,1339.0 538.0,1338.5 538.5,1338.0 538.5,1337.0 538.5,1336.0 538.5,1335.0 538.5,1334.0 539.0,1333.5 539.5,1333.0 539.5,1332.0 539.5,1331.0 539.5,1330.0 539.5,1329.0 540.0,1328.5 540.5,1328.0 540.5,1327.0 540.5,1326.0 540.5,1325.0 540.5,1324.0 541.0,1323.5 541.5,1323.0 541.5,1322.0 541.5,1321.0 541.5,1320.0 541.5,1319.0 541.5,1318.0 542.0,1317.5 542.5,1317.0 542.5,1316.0 542.5,1315.0 542.5,1314.0 542.5,1313.0 542.5,1312.0 543.0,1311.5 543.5,1311.0 543.5,1310.0 543.5,1309.0 543.5,1308.0 543.5,1307.0 544.0,1306.5 544.5,1306.0 544.5,1305.0 544.5,1304.0 544.5,1303.0 544.5,1302.0 545.0,1301.5 545.5,1301.0 545.5,1300.0 545.5,1299.0 545.5,1298.0 545.5,1297.0 545.5,1296.0 546.0,1295.5 546.5,1295.0 546.5,1294.0 546.5,1293.0 546.5,1292.0 546.5,1291.0 547.0,1290.5 547.5,1290.0 547.5,1289.0 547.5,1288.0 547.5,1287.0 547.5,1286.0 547.5,1285.0 548.0,1284.5 548.5,1284.0 548.5,1283.0 548.5,1282.0 548.5,1281.0 548.5,1280.0 549.0,1279.5 549.5,1279.0 549.5,1278.0 549.5,1277.0 549.5,1276.0 549.5,1275.0 549.5,1274.0 550.0,1273.5 550.5,1273.0 550.5,1272.0 550.5,1271.0 550.5,1270.0 550.5,1269.0 551.0,1268.5 551.5,1268.0 551.5,1267.0 551.5,1266.0 551.5,1265.0 551.5,1264.0 551.5,1263.0 552.0,1262.5 552.5,1262.0 552.5,1261.0 552.5,1260.0 552.5,1259.0 552.5,1258.0 553.0,1257.5 553.5,1257.0 553.5,1256.0 553.5,1255.0 553.5,1254.0 553.5,1253.0 553.5,1252.0 554.0,1251.5 554.5,1251.0 554.5,1250.0 554.5,1249.0 554.5,1248.0 554.5,1247.0 554.5,1246.0 555.0,1245.5 555.5,1245.0 555.5,1244.0 555.5,1243.0 555.5,1242.0 555.5,1241.0 556.0,1240.5 556.5,1240.0 556.5,1239.0 556.5,1238.0 556.5,1237.0 556.5,1236.0 556.5,1235.0 557.0,1234.5 557.5,1234.0 557.5,1233.0 557.5,1232.0 557.5,1231.0 557.5,1230.0 557.5,1229.0 558.0,1228.5 558.5,1228.0 558.5,1227.0 558.5,1226.0 558.5,1225.0 558.5,1224.0 558.5,1223.0 559.0,1222.5 559.5,1222.0 559.5,1221.0 559.5,1220.0 559.5,1219.0 559.5,1218.0 559.5,1217.0 560.0,1216.5 560.5,1216.0 560.5,1215.0 560.5,1214.0 560.5,1213.0 560.5,1212.0 560.5,1211.0 561.0,1210.5 561.5,1210.0 561.5,1209.0 561.5,1208.0 561.5,1207.0 561.5,1206.0 561.5,1205.0 562.0,1204.5 562.5,1204.0 562.5,1203.0 562.5,1202.0 562.5,1201.0 562.5,1200.0 562.5,1199.0 563.0,1198.5 563.5,1198.0 563.5,1197.0 563.5,1196.0 563.5,1195.0 563.5,1194.0 563.5,1193.0 564.0,1192.5 564.5,1192.0 564.5,1191.0 564.5,1190.0 564.5,1189.0 564.5,1188.0 564.5,1187.0 565.0,1186.5 565.5,1186.0 565.5,1185.0 565.5,1184.0 565.5,1183.0 565.5,1182.0 565.5,1181.0 565.5,1180.0 565.5,1179.0 566.0,1178.5 566.5,1178.0 566.5,1177.0 566.5,1176.0 566.5,1175.0 566.5,1174.0 566.5,1173.0 566.5,1172.0 567.0,1171.5 567.5,1171.0 567.5,1170.0 567.5,1169.0 567.5,1168.0 567.5,1167.0 567.5,1166.0 567.5,1165.0 567.5,1164.0 568.0,1163.5 568.5,1163.0 568.5,1162.0 568.5,1161.0 568.5,1160.0 568.5,1159.0 568.5,1158.0 568.5,1157.0 569.0,1156.5 569.5,1156.0 569.5,1155.0 569.5,1154.0 569.5,1153.0 569.5,1152.0 569.5,1151.0 569.5,1150.0 569.5,1149.0 570.0,1148.5 570.5,1148.0 570.5,1147.0 570.5,1146.0 570.5,1145.0 570.5,1144.0 570.5,1143.0 570.5,1142.0 571.0,1141.5 571.5,1141.0 571.5,1140.0 571.5,1139.0 571.5,1138.0 571.5,1137.0 571.5,1136.0 571.5,1135.0 572.0,1134.5 572.5,1134.0 572.5,1133.0 572.5,1132.0 572.5,1131.0 572.5,1130.0 572.5,1129.0 572.5,1128.0 572.5,1127.0 573.0,1126.5 573.5,1126.0 573.5,1125.0 573.5,1124.0 573.5,1123.0 573.5,1122.0 573.5,1121.0 573.5,1120.0 574.0,1119.5 574.5,1119.0 574.5,1118.0 574.5,1117.0 574.5,1116.0 574.5,1115.0 574.5,1114.0 574.5,1113.0 575.0,1112.5 575.5,1112.0 575.5,1111.0 575.5,1110.0 575.5,1109.0 575.5,1108.0 575.5,1107.0 575.5,1106.0 575.5,1105.0 576.0,1104.5 576.5,1104.0 576.5,1103.0 576.5,1102.0 576.5,1101.0 576.5,1100.0 576.5,1099.0 576.5,1098.0 577.0,1097.5 577.5,1097.0 577.5,1096.0 577.5,1095.0 577.5,1094.0 577.5,1093.0 577.5,1092.0 578.0,1091.5 578.5,1091.0 578.5,1090.0 578.5,1089.0 578.5,1088.0 579.0,1087.5 579.5,1088.0 580.0,1088.5 580.5,1089.0 581.0,1089.5 581.5,1090.0 581.5,1091.0 582.0,1091.5 582.5,1092.0 583.0,1092.5 583.5,1093.0 584.0,1093.5 584.5,1094.0 584.5,1095.0 585.0,1095.5 585.5,1096.0 586.0,1096.5 586.5,1097.0 587.0,1097.5 587.5,1098.0 588.0,1098.5 588.5,1099.0 588.5,1100.0 589.0,1100.5 589.5,1101.0 590.0,1101.5 590.5,1102.0 591.0,1102.5 591.5,1103.0 591.5,1104.0 592.0,1104.5 592.5,1105.0 593.0,1105.5 593.5,1106.0 594.0,1106.5 594.5,1107.0 594.5,1108.0 595.0,1108.5 595.5,1109.0 596.0,1109.5 596.5,1110.0 597.0,1110.5 597.5,1111.0 598.0,1111.5 598.5,1112.0 598.5,1113.0 599.0,1113.5 599.5,1114.0 600.0,1114.5 600.5,1115.0 601.0,1115.5 601.5,1116.0 601.5,1117.0 602.0,1117.5 602.5,1118.0 603.0,1118.5 603.5,1119.0 604.0,1119.5 604.5,1120.0 604.5,1121.0 605.0,1121.5 605.5,1122.0 606.0,1122.5 606.5,1123.0 607.0,1123.5 607.5,1124.0 607.5,1125.0 608.0,1125.5 608.5,1126.0 609.0,1126.5 609.5,1127.0 610.0,1127.5 610.5,1127.0 610.5,1126.0 611.0,1125.5 611.5,1125.0 611.5,1124.0 612.0,1123.5 612.5,1123.0 613.0,1122.5 613.5,1122.0 613.5,1121.0 614.0,1120.5 614.5,1120.0 614.5,1119.0 615.0,1118.5 615.5,1118.0 615.5,1117.0 616.0,1116.5 616.5,1116.0 616.5,1115.0 617.0,1114.5 617.5,1114.0 618.0,1113.5 618.5,1113.0 618.5,1112.0 619.0,1111.5 619.5,1111.0 619.5,1110.0 620.0,1109.5 620.5,1109.0 620.5,1108.0 621.0,1107.5 621.5,1107.0 621.5,1106.0 622.0,1105.5 622.5,1105.0 622.5,1104.0 623.0,1103.5 623.5,1103.0 623.5,1102.0 624.0,1101.5 624.5,1101.0 625.0,1100.5 625.5,1100.0 625.5,1099.0 626.0,1098.5 626.5,1098.0 626.5,1097.0 627.0,1096.5 627.5,1096.0 627.5,1095.0 628.0,1094.5 628.5,1094.0 628.5,1093.0 629.0,1092.5 629.5,1092.0 629.5,1091.0 630.0,1090.5 630.5,1090.0 630.5,1089.0 630.5,1088.0 630.5,1087.0 630.5,1086.0 630.5,1085.0 630.5,1084.0 630.5,1083.0 630.5,1082.0 630.5,1081.0 630.5,1080.0 630.5,1079.0 630.5,1078.0 630.5,1077.0 631.0,1076.5 631.5,1076.0 631.5,1075.0 631.5,1074.0 631.5,1073.0 631.5,1072.0 631.5,1071.0 631.5,1070.0 631.5,1069.0 631.5,1068.0 631.5,1067.0 631.5,1066.0 631.5,1065.0 631.5,1064.0 631.5,1063.0 631.5,1062.0 631.5,1061.0 631.5,1060.0 632.0,1059.5 632.5,1059.0 632.5,1058.0 632.5,1057.0 632.5,1056.0 632.5,1055.0 632.5,1054.0 632.5,1053.0 632.5,1052.0 632.5,1051.0 632.5,1050.0 632.5,1049.0 632.5,1048.0 632.5,1047.0 632.5,1046.0 632.5,1045.0 632.5,1044.0 632.5,1043.0 632.5,1042.0 633.0,1041.5 633.5,1041.0 633.5,1040.0 633.5,1039.0 633.5,1038.0 633.5,1037.0 633.5,1036.0 633.5,1035.0 633.5,1034.0 633.5,1033.0 633.5,1032.0 633.5,1031.0 633.5,1030.0 633.5,1029.0 633.5,1028.0 633.5,1027.0 633.5,1026.0 633.5,1025.0 633.5,1024.0 634.0,1023.5 634.5,1023.0 634.5,1022.0 634.5,1021.0 634.5,1020.0 634.5,1019.0 634.5,1018.0 634.5,1017.0 634.5,1016.0 634.5,1015.0 634.5,1014.0 634.5,1013.0 634.5,1012.0 634.5,1011.0 634.5,1010.0 634.5,1009.0 634.5,1008.0 635.0,1007.5 635.5,1007.0 635.5,1006.0 635.5,1005.0 635.5,1004.0 635.5,1003.0 635.5,1002.0 635.5,1001.0 635.5,1000.0 635.5,999.0 635.5,998.0 635.5,997.0 635.5,996.0 635.5,995.0 635.5,994.0 635.5,993.0 636.0,992.5 636.5,992.0 636.5,991.0 636.5,990.0 636.5,989.0 636.5,988.0 636.5,987.0 636.5,986.0 636.5,985.0 636.5,984.0 636.5,983.0 636.5,982.0 636.5,981.0 636.5,980.0 636.5,979.0 637.0,978.5 637.5,978.0 637.5,977.0 637.5,976.0 637.5,975.0 637.5,974.0 637.5,973.0 637.5,972.0 637.5,971.0 637.5,970.0 637.5,969.0 637.5,968.0 637.5,967.0 638.0,966.5 638.5,966.0 638.5,965.0 638.5,964.0 638.5,963.0 638.5,962.0 638.5,961.0 638.5,960.0 638.5,959.0 638.5,958.0 638.5,957.0 638.5,956.0 638.5,955.0 638.5,954.0 639.0,953.5 639.5,953.0 639.5,952.0 639.5,951.0 639.5,950.0 639.5,949.0 639.5,948.0 639.5,947.0 639.5,946.0 639.5,945.0 639.5,944.0 639.5,943.0 639.5,942.0 639.5,941.0 640.0,940.5 640.5,940.0 640.5,939.0 640.5,938.0 640.5,937.0 640.5,936.0 640.5,935.0 640.5,934.0 640.5,933.0 640.5,932.0 640.5,931.0 640.5,930.0 640.5,929.0 641.0,928.5 641.5,928.0 641.5,927.0 641.5,926.0 641.5,925.0 641.5,924.0 641.5,923.0 641.5,922.0 641.5,921.0 641.5,920.0 641.5,919.0 641.5,918.0 642.0,917.5 642.5,917.0 642.5,916.0 642.5,915.0 642.5,914.0 642.5,913.0 642.5,912.0 642.5,911.0 642.5,910.0 642.5,909.0 642.5,908.0 643.0,907.5 643.5,907.0 643.5,906.0 643.5,905.0 643.5,904.0 644.0,903.5 644.5,903.0 644.5,902.0 644.5,901.0 645.0,900.5 645.5,900.0 645.5,899.0 646.0,898.5 646.5,898.0 646.5,897.0 647.0,896.5 647.5,896.0 647.5,895.0 647.5,894.0 648.0,893.5 648.5,893.0 649.0,892.5 649.5,892.0 649.5,891.0 649.5,890.0 650.0,889.5 650.5,889.0 650.5,888.0 651.0,887.5 651.5,887.0 652.0,886.5 652.5,886.0 652.5,885.0 653.0,884.5 653.5,884.0 653.5,883.0 654.0,882.5 654.5,882.0 654.5,881.0 655.0,880.5 655.5,880.0 655.5,879.0 656.0,878.5 656.5,878.0 656.5,877.0 657.0,876.5 657.5,876.0 657.5,875.0 658.0,874.5 658.5,874.0 658.5,873.0 659.0,872.5 659.5,872.0 659.5,871.0 660.0,870.5 660.5,870.0 660.5,869.0 661.0,868.5 661.5,868.0 661.5,867.0 662.0,866.5 662.5,866.0 662.5,865.0 663.0,864.5 663.5,864.0 663.5,863.0 664.0,862.5 664.5,862.0 664.5,861.0 665.0,860.5 665.5,860.0 665.5,859.0 666.0,858.5 666.5,858.0 666.5,857.0 667.0,856.5 667.5,856.0 667.5,855.0 668.0,854.5 668.5,854.0 668.5,853.0 669.0,852.5 669.5,852.0 669.5,851.0 670.0,850.5 670.5,850.0 671.0,849.5 671.5,849.0 671.5,848.0 672.0,847.5 672.5,847.0 673.0,846.5 673.5,846.0 674.0,845.5 674.5,845.0 675.0,844.5 675.5,844.0 676.0,843.5 676.5,843.0 677.0,842.5 677.5,842.0 678.0,841.5 678.5,841.0 679.0,840.5 680.0,840.5 680.5,840.0 681.0,839.5 681.5,839.0 682.0,838.5 682.5,838.0 683.0,837.5 683.5,837.0 684.0,836.5 684.5,836.0 685.0,835.5 685.5,835.0 686.0,834.5 687.0,834.5 687.5,834.0 688.0,833.5 688.5,833.0 689.0,832.5 689.5,832.0 690.0,831.5 690.5,831.0 691.0,830.5 691.5,830.0 692.0,829.5 693.0,829.5 693.5,829.0 694.0,828.5 694.5,828.0 695.0,827.5 695.5,827.0 696.0,826.5 696.5,826.0 697.0,825.5 698.0,825.5 698.5,825.0 699.0,824.5 699.5,824.0 700.0,823.5 700.5,823.0 701.0,822.5 701.5,822.0 702.0,821.5 703.0,821.5 703.5,821.0 704.0,820.5 704.5,820.0 705.0,819.5 705.5,819.0 706.0,818.5 706.5,818.0 707.0,817.5 708.0,817.5 708.5,817.0 709.0,816.5 709.5,816.0 710.0,815.5 710.5,815.0 711.0,814.5 711.5,814.0 712.0,813.5 713.0,813.5 713.5,813.0 714.0,812.5 714.5,812.0 715.0,811.5 715.5,811.0 716.0,810.5 716.5,810.0 717.0,809.5 718.0,809.5 718.5,809.0 719.0,808.5 719.5,808.0 720.0,807.5 720.5,807.0 721.0,806.5 722.0,806.5 722.5,806.0 723.0,805.5 723.5,805.0 724.0,804.5 724.5,804.0 725.0,803.5 726.0,803.5 726.5,803.0 727.0,802.5 727.5,802.0 728.0,801.5 728.5,801.0 729.0,800.5 729.5,800.0 730.0,799.5 731.0,799.5 731.5,799.0 732.0,798.5 732.5,798.0 733.0,797.5 733.5,797.0 734.0,796.5 735.0,796.5 735.5,796.0 736.0,795.5 736.5,795.0 737.0,794.5 737.5,794.0 738.0,793.5 739.0,793.5 739.5,793.0 740.0,792.5 740.5,792.0 741.0,791.5 741.5,791.0 742.0,790.5 742.5,790.0 743.0,789.5 744.0,789.5 744.5,789.0 745.0,788.5 745.5,788.0 746.0,787.5 746.5,787.0 747.0,786.5 748.0,786.5 748.5,786.0 749.0,785.5 749.5,785.0 750.0,784.5 750.5,784.0 751.0,783.5 752.0,783.5 752.5,783.0 753.0,782.5 753.5,782.0 754.0,781.5 754.5,781.0 755.0,780.5 755.5,780.0 756.0,779.5 757.0,779.5 757.5,779.0 758.0,778.5 758.5,778.0 759.0,777.5 759.5,777.0 760.0,776.5 761.0,776.5 761.5,776.0 762.0,775.5 762.5,775.0 763.0,774.5 763.5,774.0 764.0,773.5 765.0,773.5 765.5,773.0 766.0,772.5 766.5,772.0 767.0,771.5 767.5,771.0 768.0,770.5 769.0,770.5 769.5,770.0 770.0,769.5 770.5,769.0 771.0,768.5 771.5,768.0 772.0,767.5 773.0,767.5 773.5,767.0 774.0,766.5 774.5,766.0 775.0,765.5 775.5,765.0 776.0,764.5 776.5,764.0 777.0,763.5 778.0,763.5 778.5,763.0 779.0,762.5 779.5,762.0 780.0,761.5 780.5,761.0 781.0,760.5 782.0,760.5 782.5,760.0 783.0,759.5 783.5,759.0 784.0,758.5 784.5,758.0 785.0,757.5 786.0,757.5 786.5,757.0 787.0,756.5 787.5,756.0 788.0,755.5 788.5,755.0 789.0,754.5 789.5,754.0 790.0,753.5 791.0,753.5 791.5,753.0 792.0,752.5 792.5,752.0 793.0,751.5 793.5,751.0 794.0,750.5 795.0,750.5 795.5,750.0 796.0,749.5 796.5,749.0 797.0,748.5 797.5,748.0 798.0,747.5 799.0,747.5 799.5,747.0 800.0,746.5 800.5,746.0 801.0,745.5 801.5,745.0 802.0,744.5 803.0,744.5 803.5,744.0 804.0,743.5 804.5,743.0 805.0,742.5 805.5,742.0 806.0,741.5 806.5,741.0 807.0,740.5 808.0,740.5 808.5,740.0 809.0,739.5 809.5,739.0 810.0,738.5 810.5,738.0 811.0,737.5 812.0,737.5 812.5,737.0 813.0,736.5 813.5,736.0 814.0,735.5 814.5,735.0 815.0,734.5 816.0,734.5 816.5,734.0 817.0,733.5 817.5,733.0 818.0,732.5 818.5,732.0 819.0,731.5 820.0,731.5 820.5,731.0 821.0,730.5 821.5,730.0 822.0,729.5 822.5,729.0 823.0,728.5 823.5,728.0 824.0,727.5 825.0,727.5 825.5,727.0 826.0,726.5 826.5,726.0 827.0,725.5 827.5,725.0 828.0,724.5 829.0,724.5 829.5,724.0 830.0,723.5 830.5,723.0 831.0,722.5 831.5,722.0 832.0,721.5 833.0,721.5 833.5,721.0 834.0,720.5 834.5,720.0 835.0,719.5 835.5,719.0 836.0,718.5 837.0,718.5 837.5,718.0 838.0,717.5 838.5,717.0 839.0,716.5 839.5,716.0 840.0,715.5 840.5,715.0 841.0,714.5 842.0,714.5 842.5,714.0 843.0,713.5 843.5,713.0 844.0,712.5 844.5,712.0 845.0,711.5 846.0,711.5 846.5,711.0 847.0,710.5 847.5,710.0 848.0,709.5 848.5,709.0 849.0,708.5 849.5,708.0 850.0,707.5 851.0,707.5 851.5,707.0 852.0,706.5 852.5,706.0 853.0,705.5 853.5,705.0 854.0,704.5 855.0,704.5 855.5,704.0 856.0,703.5 856.5,703.0 857.0,702.5 857.5,702.0 858.0,701.5 859.0,701.5 859.5,701.0 860.0,700.5 860.5,700.0 861.0,699.5 861.5,699.0 862.0,698.5 862.5,698.0 863.0,697.5 864.0,697.5 864.5,697.0 865.0,696.5 865.5,696.0 866.0,695.5 866.5,695.0 867.0,694.5 868.0,694.5 868.5,694.0 869.0,693.5 869.5,693.0 870.0,692.5 870.5,692.0 871.0,691.5 872.0,691.5 872.5,691.0 873.0,690.5 873.5,690.0 874.0,689.5 874.5,689.0 875.0,688.5 876.0,688.5 876.5,688.0 877.0,687.5 877.5,687.0 878.0,686.5 878.5,686.0 879.0,685.5 879.5,685.0 880.0,684.5 881.0,684.5 881.5,684.0 882.0,683.5 882.5,683.0 883.0,682.5 883.5,682.0 884.0,681.5 885.0,681.5 885.5,681.0 886.0,680.5 886.5,680.0 887.0,679.5 887.5,679.0 888.0,678.5 889.0,678.5 889.5,678.0 890.0,677.5 890.5,677.0 891.0,676.5 891.5,676.0 892.0,675.5 892.5,675.0 893.0,674.5 894.0,674.5 894.5,674.0 895.0,673.5 895.5,673.0 896.0,672.5 896.5,672.0 897.0,671.5 898.0,671.5 898.5,671.0 899.0,670.5 899.5,670.0 900.0,669.5 900.5,669.0 901.0,668.5 902.0,668.5 902.5,668.0 903.0,667.5 903.5,667.0 904.0,666.5 904.5,666.0 905.0,665.5 906.0,665.5 906.5,665.0 907.0,664.5 907.5,664.0 908.0,663.5 908.5,663.0 909.0,662.5 909.5,662.0 910.0,661.5 911.0,661.5 911.5,661.0 912.0,660.5 912.5,660.0 913.0,659.5 913.5,659.0 914.0,658.5 915.0,658.5 915.5,658.0 916.0,657.5 916.5,657.0 917.0,656.5 917.5,656.0 918.0,655.5 919.0,655.5 919.5,655.0 920.0,654.5 920.5,654.0 921.0,653.5 921.5,653.0 922.0,652.5 922.5,652.0 923.0,651.5 924.0,651.5 924.5,651.0 925.0,650.5 925.5,650.0 926.0,649.5 926.5,649.0 927.0,648.5 928.0,648.5 928.5,648.0 929.0,647.5 929.5,647.0 930.0,646.5 930.5,646.0 931.0,645.5 932.0,645.5 932.5,645.0 933.0,644.5 933.5,644.0 934.0,643.5 934.5,643.0 935.0,642.5 935.5,642.0 936.0,641.5 937.0,641.5 937.5,641.0 938.0,640.5 938.5,640.0 939.0,639.5 939.5,639.0 940.0,638.5 941.0,638.5 941.5,638.0 942.0,637.5 942.5,637.0 943.0,636.5 943.5,636.0 944.0,635.5 944.5,635.0 945.0,634.5 946.0,634.5 946.5,634.0 947.0,633.5 947.5,633.0 948.0,632.5 948.5,632.0 949.0,631.5 950.0,631.5 950.5,631.0 951.0,630.5 951.5,630.0 952.0,629.5 952.5,629.0 953.0,628.5 953.5,628.0 953.5,627.0 953.5,626.0 953.5,625.0 953.5,624.0 953.5,623.0 953.5,622.0 953.5,621.0 953.5,620.0 953.5,619.0 953.5,618.0 953.5,617.0 953.5,616.0 953.5,615.0 953.5,614.0 953.5,613.0 953.5,612.0 953.5,611.0 953.5,610.0 953.5,609.0 953.5,608.0 953.5,607.0 953.5,606.0 953.5,605.0 953.5,604.0 953.5,603.0 953.5,602.0 953.5,601.0 953.5,600.0 953.5,599.0 953.5,598.0 953.5,597.0 953.5,596.0 953.5,595.0 953.5,594.0 953.5,593.0 953.5,592.0 953.5,591.0 953.5,590.0 953.5,589.0 953.5,588.0 953.5,587.0 953.5,586.0 953.5,585.0 953.5,584.0 953.5,583.0 953.5,582.0 953.5,581.0 953.5,580.0 953.5,579.0 953.5,578.0 953.5,577.0 953.5,576.0 953.5,575.0 953.5,574.0 953.5,573.0 953.5,572.0 953.5,571.0 953.5,570.0 953.5,569.0 953.5,568.0 953.5,567.0 953.5,566.0 953.5,565.0 953.5,564.0 953.5,563.0 953.5,562.0 953.5,561.0 953.5,560.0 953.5,559.0 953.5,558.0 953.5,557.0 953.5,556.0 953.5,555.0 953.5,554.0 953.5,553.0 953.5,552.0 953.5,551.0 953.5,550.0 953.5,549.0 953.5,548.0 953.5,547.0 953.5,546.0 953.5,545.0 953.5,544.0 953.5,543.0 953.5,542.0 953.5,541.0 953.5,540.0 953.5,539.0 953.5,538.0 953.5,537.0 953.5,536.0 953.5,535.0 953.5,534.0 953.5,533.0 953.5,532.0 953.5,531.0 953.5,530.0 953.5,529.0 953.5,528.0 953.5,527.0 953.5,526.0 953.5,525.0 953.5,524.0 953.5,523.0 953.5,522.0 953.5,521.0 953.5,520.0 953.5,519.0 953.5,518.0 953.5,517.0 953.5,516.0 953.5,515.0 953.5,514.0 953.5,513.0 953.5,512.0 953.5,511.0 953.5,510.0 953.5,509.0 953.0,508.5 952.5,508.0 952.0,507.5 951.0,507.5 950.5,507.0 950.0,506.5 949.0,506.5 948.0,506.5 947.0,506.5 946.0,506.5 945.5,506.0 945.0,505.5 944.0,505.5 943.0,505.5 942.0,505.5 941.0,505.5 940.5,505.0 940.0,504.5 939.0,504.5 938.0,504.5 937.0,504.5 936.0,504.5 935.0,504.5 934.5,504.0 934.0,503.5 933.0,503.5 932.0,503.5 931.0,503.5 930.0,503.5 929.5,503.0 929.0,502.5 928.0,502.5 927.0,502.5 926.0,502.5 925.0,502.5 924.0,502.5 923.5,502.0 923.0,501.5 922.0,501.5 921.0,501.5 920.0,501.5 919.0,501.5 918.0,501.5 917.5,501.0 917.0,500.5 916.0,500.5 915.0,500.5 914.0,500.5 913.0,500.5 912.5,500.0 912.0,499.5 911.0,499.5 910.0,499.5 909.0,499.5 908.0,499.5 907.0,499.5 906.5,499.0 906.0,498.5 905.0,498.5 904.0,498.5 903.0,498.5 902.0,498.5 901.5,498.0 901.0,497.5 900.0,497.5 899.0,497.5 898.0,497.5 897.0,497.5 896.0,497.5 895.5,497.0 895.0,496.5 894.0,496.5 893.0,496.5 892.0,496.5 891.0,496.5 890.5,496.0 890.0,495.5 889.0,495.5 888.0,495.5 887.0,495.5 886.0,495.5 885.0,495.5 884.5,495.0 884.0,494.5 883.0,494.5 882.0,494.5 881.0,494.5 880.0,494.5 879.5,494.0 879.0,493.5 878.0,493.5 877.0,493.5 876.0,493.5 875.0,493.5 874.0,493.5 873.5,493.0 873.0,492.5 872.0,492.5 871.0,492.5 870.0,492.5 869.0,492.5 868.0,492.5 867.5,492.0 867.0,491.5 866.0,491.5 865.0,491.5 864.0,491.5 863.0,491.5 862.5,491.0 862.0,490.5 861.0,490.5 860.0,490.5 859.0,490.5 858.0,490.5 857.0,490.5 856.5,490.0 856.0,489.5 855.0,489.5 854.0,489.5 853.0,489.5 852.0,489.5 851.5,489.0 851.0,488.5 850.0,488.5 849.0,488.5 848.0,488.5 847.0,488.5 846.0,488.5 845.5,488.0 845.0,487.5 844.0,487.5 843.0,487.5 842.0,487.5 841.0,487.5 840.5,487.0 840.0,486.5 839.0,486.5 838.0,486.5 837.0,486.5 836.0,486.5 835.0,486.5 834.5,486.0 834.0,485.5 833.0,485.5 832.0,485.5 831.0,485.5 830.0,485.5 829.0,485.5 828.5,485.0 828.0,484.5 827.0,484.5 826.0,484.5 825.0,484.5 824.0,484.5 823.5,484.0 823.0,483.5 822.0,483.5 821.0,483.5 820.0,483.5 819.0,483.5 818.0,483.5 817.5,483.0 817.0,482.5 816.0,482.5 815.0,482.5 814.0,482.5 813.0,482.5 812.5,482.0 812.0,481.5 811.0,481.5 810.0,481.5 809.0,481.5 808.0,481.5 807.0,481.5 806.5,481.0 806.0,480.5 805.0,480.5 804.0,480.5 803.0,480.5 802.0,480.5 801.0,480.5 800.5,480.0 800.0,479.5 799.0,479.5 798.0,479.5 797.0,479.5 796.0,479.5 795.5,479.0 795.0,478.5 794.0,478.5 793.0,478.5 792.0,478.5 791.0,478.5 790.5,478.0 790.0,477.5 789.0,477.5 788.0,477.5 787.0,477.5 786.0,477.5 785.0,477.5 784.5,477.0 784.0,476.5 783.0,476.5 782.0,476.5 781.0,476.5 780.0,476.5 779.5,476.0 779.0,475.5 778.0,475.5 777.0,475.5 776.0,475.5 775.0,475.5 774.0,475.5 773.5,475.0 773.0,474.5 772.0,474.5 771.0,474.5 770.0,474.5 769.0,474.5 768.5,474.0 768.0,473.5 767.0,473.5 766.0,473.5 765.0,473.5 764.0,473.5 763.0,473.5 762.5,473.0 762.0,472.5 761.0,472.5 760.0,472.5 759.0,472.5 758.0,472.5 757.5,472.0 757.0,471.5 756.0,471.5 755.0,471.5 754.0,471.5 753.0,471.5 752.0,471.5 751.5,471.0 751.0,470.5 750.0,470.5 749.0,470.5 748.0,470.5 747.0,470.5 746.0,470.5 745.5,470.0 745.0,469.5 744.0,469.5 743.0,469.5 742.0,469.5 741.0,469.5 740.5,469.0 740.0,468.5 739.0,468.5 738.0,468.5 737.0,468.5 736.0,468.5 735.0,468.5 734.5,468.0 734.0,467.5 733.0,467.5 732.0,467.5 731.0,467.5 730.0,467.5 729.5,467.0 729.0,466.5 728.0,466.5 727.0,466.5 726.0,466.5 725.0,466.5 724.5,466.0 724.0,465.5 723.0,465.5 722.0,465.5 721.0,465.5 720.0,465.5 719.0,465.5 718.5,465.0 718.0,464.5 717.0,464.5 716.0,464.5 715.0,464.5 714.0,464.5 713.5,464.0 713.0,463.5 712.0,463.5 711.0,463.5 710.0,463.5 709.0,463.5 708.0,463.5 707.5,463.0 707.0,462.5 706.0,462.5 705.0,462.5 704.0,462.5 703.0,462.5 702.5,462.0 702.0,461.5 701.0,461.5 700.0,461.5 699.0,461.5 698.0,461.5 697.0,461.5 696.5,461.0 696.0,460.5 695.0,460.5 694.0,460.5 693.0,460.5 692.0,460.5 691.5,460.0 691.0,459.5 690.0,459.5 689.0,459.5 688.0,459.5 687.0,459.5 686.5,459.0 686.0,458.5 685.0,458.5 684.0,458.5 683.0,458.5 682.0,458.5 681.0,458.5 680.5,458.0 680.0,457.5 679.0,457.5 678.5,457.0 678.5,456.0 678.5,455.0 678.5,454.0 678.5,453.0 678.5,452.0 678.5,451.0 678.5,450.0 678.5,449.0 678.5,448.0 678.5,447.0 678.5,446.0 678.5,445.0 678.5,444.0 678.5,443.0 678.5,442.0 678.5,441.0 678.5,440.0 678.5,439.0 678.5,438.0 678.5,437.0 678.5,436.0 678.5,435.0 678.5,434.0 679.0,433.5 679.5,433.0 679.5,432.0 680.0,431.5 680.5,431.0 681.0,430.5 681.5,430.0 682.0,429.5 683.0,429.5 683.5,429.0 684.0,428.5 684.5,428.0 685.0,427.5 685.5,427.0 686.0,426.5 686.5,426.0 687.0,425.5 687.5,425.0 688.0,424.5 688.5,424.0 689.0,423.5 690.0,423.5 690.5,423.0 691.0,422.5 691.5,422.0 692.0,421.5 692.5,421.0 693.0,420.5 693.5,420.0 694.0,419.5 694.5,419.0 695.0,418.5 695.5,418.0 696.0,417.5 696.5,417.0 697.0,416.5 697.5,416.0 698.0,415.5 698.5,415.0 699.0,414.5 700.0,414.5 700.5,414.0 701.0,413.5 701.5,413.0 702.0,412.5 702.5,412.0 703.0,411.5 703.5,411.0 704.0,410.5 704.5,410.0 705.0,409.5 705.5,409.0 706.0,408.5 706.5,408.0 707.0,407.5 707.5,407.0 708.0,406.5 708.5,406.0 709.0,405.5 709.5,405.0 710.0,404.5 711.0,404.5 711.5,404.0 712.0,403.5 712.5,403.0 713.0,402.5 713.5,402.0 714.0,401.5 714.5,401.0 715.0,400.5 715.5,400.0 716.0,399.5 716.5,399.0 717.0,398.5 717.5,398.0 718.0,397.5 718.5,397.0 719.0,396.5 719.5,396.0 720.0,395.5 721.0,395.5 721.5,395.0 722.0,394.5 722.5,394.0 723.0,393.5 723.5,393.0 724.0,392.5 724.5,392.0 725.0,391.5 725.5,391.0 726.0,390.5 726.5,390.0 727.0,389.5 727.5,389.0 728.0,388.5 728.5,388.0 729.0,387.5 729.5,387.0 730.0,386.5 731.0,386.5 731.5,386.0 732.0,385.5 732.5,385.0 733.0,384.5 733.5,384.0 734.0,383.5 734.5,383.0 735.0,382.5 735.5,382.0 736.0,381.5 736.5,381.0 737.0,380.5 737.5,380.0 738.0,379.5 738.5,379.0 739.0,378.5 740.0,378.5 740.5,378.0 741.0,377.5 741.5,377.0 742.0,376.5 742.5,376.0 743.0,375.5 743.5,375.0 744.0,374.5 744.5,374.0 745.0,373.5 745.5,373.0 746.0,372.5 746.5,372.0 747.0,371.5 747.5,371.0 748.0,370.5 748.5,370.0 749.0,369.5 749.5,369.0 750.0,368.5 751.0,368.5 751.5,368.0 752.0,367.5 752.5,367.0 753.0,366.5 753.5,366.0 754.0,365.5 754.5,365.0 755.0,364.5 755.5,364.0 756.0,363.5 756.5,363.0 757.0,362.5 757.5,362.0 758.0,361.5 759.0,361.5 759.5,361.0 760.0,360.5 760.5,360.0 761.0,359.5 761.5,359.0 762.0,358.5 762.5,358.0 763.0,357.5 763.5,357.0 764.0,356.5 764.5,356.0 765.0,355.5 765.5,355.0 766.0,354.5 767.0,354.5 767.5,354.0 768.0,353.5 768.5,353.0 769.0,352.5 769.5,352.0 770.0,351.5 770.5,351.0 771.0,350.5 771.5,350.0 772.0,349.5 772.5,349.0 773.0,348.5 773.5,348.0 774.0,347.5 774.5,347.0 775.0,346.5 775.5,346.0 776.0,345.5 777.0,345.5 777.5,345.0 778.0,344.5 778.5,344.0 779.0,343.5 779.5,343.0 780.0,342.5 780.5,342.0 781.0,341.5 781.5,341.0 782.0,340.5 782.5,340.0 783.0,339.5 783.5,339.0 784.0,338.5 784.5,338.0 785.0,337.5 785.5,337.0 786.0,336.5 786.5,336.0 787.0,335.5 787.5,335.0 788.0,334.5 789.0,334.5 789.5,334.0 790.0,333.5 790.5,333.0 791.0,332.5 791.5,332.0 792.0,331.5 792.5,331.0 793.0,330.5 793.5,330.0 794.0,329.5 794.5,329.0 795.0,328.5 795.5,328.0 796.0,327.5 796.5,327.0 797.0,326.5 797.5,326.0 798.0,325.5 798.5,325.0 799.0,324.5 799.5,324.0 800.0,323.5 800.5,323.0 801.0,322.5 801.5,322.0 801.5,321.0 801.5,320.0 801.5,319.0 801.5,318.0 801.5,317.0 801.5,316.0 801.5,315.0 801.5,314.0 801.5,313.0 801.5,312.0 801.5,311.0 801.5,310.0 801.5,309.0 801.5,308.0 801.5,307.0 801.5,306.0 801.5,305.0 801.5,304.0 801.5,303.0 801.5,302.0 801.5,301.0 801.5,300.0 801.5,299.0 801.5,298.0 801.5,297.0 801.5,296.0 801.5,295.0 801.5,294.0 801.5,293.0 801.5,292.0 801.5,291.0 801.5,290.0 801.5,289.0 801.5,288.0 801.5,287.0 801.5,286.0 801.5,285.0 801.5,284.0 801.5,283.0 801.5,282.0 801.5,281.0 801.5,280.0 801.5,279.0 801.5,278.0 801.5,277.0 801.5,276.0 801.5,275.0 801.5,274.0 801.5,273.0 801.5,272.0 801.5,271.0 801.5,270.0 801.5,269.0 801.5,268.0 801.5,267.0 801.5,266.0 801.5,265.0 801.5,264.0 801.5,263.0 801.5,262.0 801.5,261.0 801.5,260.0 801.5,259.0 801.5,258.0 801.5,257.0 801.5,256.0 801.5,255.0 801.5,254.0 801.5,253.0 801.5,252.0 801.5,251.0 801.5,250.0 801.5,249.0 801.5,248.0 801.5,247.0 801.5,246.0 801.5,245.0 801.5,244.0 801.5,243.0 801.5,242.0 801.5,241.0 801.5,240.0 801.5,239.0 801.5,238.0 801.5,237.0 801.5,236.0 801.5,235.0 801.5,234.0 801.5,233.0 801.5,232.0 801.5,231.0 801.5,230.0 801.5,229.0 801.5,228.0 801.5,227.0 801.5,226.0 801.5,225.0 801.5,224.0 801.5,223.0 801.5,222.0 802.0,221.5 802.5,221.0 802.0,220.5 801.5,220.0 801.0,219.5 800.5,219.0 800.0,218.5 799.0,218.5 798.0,218.5 797.0,218.5 796.0,218.5 795.5,218.0 795.0,217.5 794.0,217.5 793.0,217.5 792.0,217.5 791.0,217.5 790.0,217.5 789.0,217.5 788.5,217.0 788.0,216.5 787.0,216.5 786.0,216.5 785.0,216.5 784.0,216.5 783.0,216.5 782.5,216.0 782.0,215.5 781.0,215.5 780.0,215.5 779.0,215.5 778.0,215.5 777.0,215.5 776.5,215.0 776.0,214.5 775.0,214.5 774.0,214.5 773.0,214.5 772.0,214.5 771.0,214.5 770.5,214.0 770.0,213.5 769.0,213.5 768.0,213.5 767.0,213.5 766.0,213.5 765.0,213.5 764.5,213.0 764.0,212.5 763.0,212.5 762.0,212.5 761.0,212.5 760.0,212.5 759.0,212.5 758.0,212.5 757.5,212.0 757.0,211.5 756.0,211.5 755.0,211.5 754.0,211.5 753.0,211.5 752.0,211.5 751.5,211.0 751.0,210.5 750.0,210.5 749.0,210.5 748.0,210.5 747.0,210.5 746.0,210.5 745.5,210.0 745.0,209.5 744.0,209.5 743.0,209.5 742.0,209.5 741.0,209.5 740.0,209.5 739.5,209.0 739.0,208.5 738.0,208.5 737.0,208.5 736.0,208.5 735.0,208.5 734.0,208.5 733.5,208.0 733.0,207.5 732.0,207.5 731.0,207.5 730.0,207.5 729.0,207.5 728.0,207.5 727.5,207.0 727.0,206.5 726.0,206.5 725.0,206.5 724.0,206.5 723.0,206.5 722.0,206.5 721.0,206.5 720.5,206.0 720.0,205.5 719.0,205.5 718.0,205.5 717.0,205.5 716.0,205.5 715.0,205.5 714.5,205.0 714.0,204.5 713.0,204.5 712.0,204.5 711.0,204.5 710.0,204.5 709.0,204.5 708.5,204.0 708.0,203.5 707.0,203.5 706.0,203.5 705.0,203.5 704.0,203.5 703.0,203.5 702.5,203.0 702.0,202.5 701.0,202.5 700.0,202.5 699.0,202.5 698.0,202.5 697.0,202.5 696.5,202.0 696.0,201.5 695.0,201.5 694.0,201.5 693.0,201.5 692.0,201.5 691.0,201.5 690.5,201.0 690.0,200.5 689.0,200.5 688.0,200.5 687.0,200.5 686.0,200.5 685.0,200.5 684.5,200.0 684.0,199.5 683.0,199.5 682.0,199.5 681.0,199.5 680.0,199.5 679.0,199.5 678.5,199.0 678.0,198.5 677.0,198.5 676.0,198.5 675.0,198.5 674.0,198.5 673.0,198.5 672.5,198.0 672.0,197.5 671.0,197.5 670.0,197.5 669.0,197.5 668.0,197.5 667.0,197.5 666.0,197.5 665.5,197.0 665.0,196.5 664.0,196.5 663.0,196.5 662.0,196.5 661.0,196.5 660.0,196.5 659.5,196.0 659.0,195.5 658.0,195.5 657.0,195.5 656.0,195.5 655.0,195.5 654.0,195.5 653.5,195.0 653.0,194.5 652.0,194.5 651.0,194.5 650.0,194.5 649.0,194.5 648.0,194.5 647.5,194.0 647.0,193.5 646.0,193.5 645.0,193.5 644.0,193.5 643.0,193.5 642.0,193.5 641.0,193.5 640.5,193.0 640.0,192.5 639.0,192.5 638.0,192.5 637.0,192.5 636.0,192.5 635.5,192.0 635.0,191.5 634.0,191.5 633.0,191.5 632.0,191.5 631.0,191.5 630.0,191.5 629.0,191.5 628.5,191.0 628.0,190.5 627.0,190.5 626.0,190.5 625.0,190.5 624.0,190.5 623.0,190.5 622.5,190.0 622.0,189.5" /></svg>