<?xml version="1.0" encoding="UTF-8"?>
<svg version="1.1" xmlns="http://www.w3.org/2000/svg" width="1024" height="1024">
<path d="M0 0 C337.92 0 675.84 0 1024 0 C1024 337.92 1024 675.84 1024 1024 C686.08 1024 348.16 1024 0 1024 C0 686.08 0 348.16 0 0 Z " fill="#FEFEFE" transform="translate(0,0)"/>
<path d="M0 0 C4.4769293 3.73077442 8.66578561 7.58590115 12.71484375 11.77734375 C14.53718697 13.5498451 16.37546683 15.16834318 18.31420898 16.80541992 C23.96065832 21.73443562 29.15412845 27.10791244 34.40381241 32.45090866 C36.9435134 35.03311436 39.4929304 37.6056387 42.04173088 40.1788578 C46.77149501 44.95417343 51.49713893 49.73340478 56.20654297 54.52880859 C59.49877386 57.88041039 62.80307144 61.21968667 66.11568832 64.55113602 C67.37132198 65.81850053 68.62241117 67.09038457 69.86877823 68.36686325 C71.60831855 70.14740487 73.36282819 71.91180316 75.12158203 73.67333984 C75.62978485 74.20109009 76.13798767 74.72884033 76.66159058 75.27258301 C79.0257831 77.61029932 80.92003668 78.97226604 84.07543945 80.06666565 C87.91387265 79.97916818 88.96153659 78.93148048 91.67138672 76.26000977 C92.53455505 75.4250296 93.39772339 74.59004944 94.28704834 73.72976685 C95.18232239 72.82894379 96.07759644 71.92812073 97 71 C97.88931213 70.1311618 98.77862427 69.26232361 99.69488525 68.36715698 C102.57048248 65.54530001 105.41669709 62.69628935 108.2578125 59.83984375 C109.29705063 58.79873453 110.33651421 57.75785032 111.37619019 56.71717834 C114.07771851 54.01187914 116.77622721 51.30358831 119.47406006 48.59460449 C122.2412612 45.81707072 125.01138794 43.04245789 127.78125 40.26757812 C133.1903237 34.8478632 138.59620214 29.42497585 144 24 C149.50572887 28.59017112 154.60946432 33.46689229 159.66992188 38.54052734 C160.50826065 39.3771138 161.34659943 40.21370026 162.21034241 41.07563782 C164.49113234 43.35280105 166.76968337 45.63217374 169.04706764 47.91274214 C171.44324341 50.311468 173.84187904 52.70773219 176.2401123 55.10440063 C180.26652886 59.12900283 184.29084398 63.15569726 188.31396484 67.18359375 C192.94784016 71.82290656 197.5853016 76.45861122 202.22464895 81.09245145 C206.22502022 85.0882662 210.22341627 89.08604958 214.22020578 93.08544695 C216.59970866 95.46649915 218.97985879 97.84689379 221.36180115 100.22550583 C224.02032785 102.88147893 226.67560399 105.540661 229.33007812 108.20068359 C230.10742813 108.97600937 230.88477814 109.75133514 231.6856842 110.55015564 C235.78250933 114.6627726 239.70186602 118.86694591 243.49167442 123.26400948 C245.2881637 125.3316588 247.1652362 127.29869939 249.09594727 129.24121094 C249.81682022 129.96846375 250.53769318 130.69571655 251.28041077 131.44500732 C252.03478928 132.20049866 252.78916779 132.95598999 253.56640625 133.734375 C254.36352524 134.53482239 255.16064423 135.33526978 255.98191833 136.15997314 C257.65550095 137.83858591 259.33041141 139.51587577 261.0065918 141.19189453 C263.56392443 143.75142565 266.11313517 146.31886689 268.66210938 148.88671875 C270.29638501 150.52392676 271.93113442 152.16066201 273.56640625 153.796875 C274.70101036 154.94225739 274.70101036 154.94225739 275.85853577 156.11077881 C281.40798463 161.756791 281.40798463 161.756791 288 166 C292.65583658 164.8501021 294.91577632 162.24054269 298.00007629 158.69451904 C298.97310001 157.59745882 299.94855379 156.50255014 300.926157 155.40956879 C301.43099058 154.84408294 301.93582417 154.27859709 302.45595574 153.6959753 C304.95377379 150.95237667 307.56055031 148.32234872 310.18217468 145.6975708 C310.72071347 145.1577839 311.25925225 144.61799701 311.8141104 144.06185293 C313.54039099 142.33517771 315.26955011 140.61141716 316.9987793 138.88769531 C318.26168471 137.62507279 319.52436836 136.36222841 320.78684998 135.09918213 C324.17641841 131.70932968 327.5690358 128.32254429 330.96225715 124.93634892 C334.5221264 121.38277981 338.07911705 117.82633157 341.63642883 114.27020264 C348.35600374 107.55372156 355.07812102 100.83979112 361.80118161 94.12679935 C369.462294 86.47690896 377.12052802 78.82413979 384.77853525 71.17114115 C400.51584863 55.44424798 416.25672886 39.72092905 432 24 C434.87702372 25.38440708 436.95257101 26.70432316 439.20703125 28.9765625 C440.0877832 29.86021484 440.0877832 29.86021484 440.98632812 30.76171875 C441.8902832 31.68404297 441.8902832 31.68404297 442.8125 32.625 C443.69905273 33.51251953 443.69905273 33.51251953 444.60351562 34.41796875 C447.60694804 37.45087869 450.49877418 40.54222459 453.27905273 43.78125 C456.75348946 47.76784165 460.39618496 51.54140935 464.140625 55.2734375 C464.78948669 55.92325592 465.43834839 56.57307434 466.10687256 57.24258423 C467.46357601 58.59996209 468.82151855 59.95610254 470.18066406 61.31103516 C472.26224108 63.38720931 474.33836605 65.46872963 476.4140625 67.55078125 C477.73926244 68.87532113 479.06477215 70.19955118 480.390625 71.5234375 C481.31878021 72.45462906 481.31878021 72.45462906 482.26568604 73.40463257 C482.84348816 73.97928253 483.42129028 74.5539325 484.01660156 75.14599609 C484.77435883 75.90255997 484.77435883 75.90255997 485.54742432 76.67440796 C487.73889041 78.67429688 489.45203619 79.92101485 492.41400146 80.34796143 C495.77923086 79.89514987 496.92706978 78.76742466 499.37597656 76.43261719 C500.68653015 75.19143127 500.68653015 75.19143127 502.02355957 73.9251709 C503.01762658 72.95207164 504.00965911 71.97689114 505 71 C505.53989059 70.47084488 506.07978119 69.94168976 506.6360321 69.39649963 C510.42110205 65.67844169 514.17151689 61.92673206 517.91164398 58.16352081 C520.02876199 56.03346679 522.14913921 53.90670374 524.27032471 51.78070068 C528.76639336 47.27329624 533.25848495 42.76194141 537.75 38.25 C542.97358201 33.00274344 548.19882115 27.7571589 553.42829132 22.51576996 C555.509747 20.42786799 557.58815185 18.33696202 559.66644287 16.24591064 C560.94772715 14.96099253 562.22915278 13.67621534 563.51074219 12.39160156 C564.08125809 11.81591934 564.65177399 11.24023712 565.23957825 10.64710999 C568.6734806 7.21275994 572.22485002 4.05647979 576 1 C579.13879381 2.3875818 581.22254795 3.99523408 583.609375 6.44921875 C584.28226563 7.13306641 584.95515625 7.81691406 585.6484375 8.52148438 C586.34195313 9.23626953 587.03546875 9.95105469 587.75 10.6875 C589.11719069 12.08978019 590.4869772 13.4895343 591.859375 14.88671875 C592.46233398 15.50764404 593.06529297 16.12856934 593.68652344 16.76831055 C595.54393729 18.56006023 597.42429864 20.21735178 599.38908386 21.88511658 C605.23683319 26.99248159 610.63388662 32.55137705 616.08813477 38.06982422 C617.28949641 39.28130728 618.49113372 40.49251702 619.69302368 41.70347595 C622.26688356 44.29733841 624.83938125 46.89254162 627.41098213 49.48864365 C631.47898758 53.59421708 635.55363662 57.69315289 639.62986755 61.79055786 C640.31945244 62.48378013 641.00903732 63.17700241 641.71951872 63.89123142 C643.12866974 65.30778686 644.53783677 66.72432637 645.94701946 68.14085031 C655.42713061 77.6708572 664.90283514 87.20513536 674.36010742 96.7578125 C680.75412168 103.21622893 687.15868833 109.66397054 693.57568973 116.09955037 C696.96698096 119.50151827 700.35258493 122.90874787 703.72531319 126.32912827 C706.89313424 129.54155201 710.07464253 132.73974854 713.26721573 135.92756844 C714.43546063 137.09906017 715.59856329 138.27570611 716.75605202 139.45782661 C718.33797481 141.0718801 719.93740719 142.66632351 721.54249573 144.2572937 C722.43269692 145.15432447 723.32289812 146.05135525 724.24007511 146.97556877 C727.60139658 149.44113013 729.85479231 149.93292259 734 150 C735.95565131 149.19203357 735.95565131 149.19203357 737.34066772 147.61463928 C737.90417938 147.06067978 738.46769104 146.50672028 739.04827881 145.93597412 C739.63868958 145.3152301 740.22910034 144.69448608 740.83740234 144.05493164 C741.80212967 143.0895472 741.80212967 143.0895472 742.78634644 142.10466003 C744.90559384 139.97474867 746.9952156 137.81804404 749.0859375 135.66015625 C750.55144768 134.17718412 752.01881062 132.69604082 753.48794556 131.21665955 C757.34889887 127.31950382 761.18566049 123.39937284 765.01745605 119.47357178 C769.68739118 114.69760617 774.38451552 109.94841043 779.07824135 105.1958456 C782.72717323 101.50031306 786.37161711 97.80068141 790.00350952 94.08839417 C791.00260345 93.06951111 791.00260345 93.06951111 792.0218811 92.03004456 C793.27160503 90.75522429 794.51937424 89.47848395 795.76489258 88.19955444 C797.15764408 86.78084683 798.575991 85.38733067 800 84 C800.33 84 800.66 84 801 84 C801 189.93 801 295.86 801 405 C463.08 405 125.16 405 -223 405 C-223 299.4 -223 193.8 -223 85 C-218.44948578 88.90044076 -214.14348917 92.72835532 -209.97631836 96.98950195 C-209.14068108 97.83696739 -209.14068108 97.83696739 -208.28816223 98.70155334 C-207.09170445 99.91506772 -205.89631665 101.12963782 -204.70191765 102.3451786 C-202.15730171 104.93219686 -199.60306325 107.50962633 -197.04940891 110.08771801 C-192.30759637 114.87512348 -187.56982302 119.66636486 -182.84838867 124.47387695 C-179.55082912 127.83081219 -176.24119946 131.17541874 -172.9232502 134.51219749 C-171.66482683 135.78235432 -170.4109487 137.05703145 -169.16178703 138.33629799 C-167.41735059 140.12174001 -165.65793912 141.89103618 -163.89428711 143.6574707 C-163.38451324 144.18679199 -162.87473938 144.71611328 -162.34951782 145.26147461 C-160.09700937 147.48883257 -158.03069798 148.9863932 -155.13160706 150.27140808 C-150.02134092 149.82851486 -147.50481726 146.53113551 -144 143 C-143.19182831 142.21230225 -142.38365662 141.42460449 -141.55099487 140.61303711 C-138.71910668 137.83647422 -135.91794218 135.0304701 -133.12109375 132.21875 C-132.04938803 131.14512119 -130.97745152 130.07172273 -129.90530396 128.99853516 C-127.61113509 126.70122402 -125.31852449 124.40237339 -123.02713013 122.10229492 C-119.39774218 118.45929461 -115.76446259 114.82019199 -112.13061523 111.18164062 C-104.41743337 103.45739562 -96.70849372 95.72892317 -89 88 C-80.67578532 79.65372405 -72.35083002 71.30819485 -64.02097034 62.96755219 C-60.41484616 59.3564704 -56.81116849 55.74297062 -53.20939636 52.12754822 C-50.96207884 49.87272878 -48.71265311 47.62002135 -46.46267319 45.36785889 C-45.42664602 44.32997265 -44.39147699 43.29122893 -43.3572731 42.25152588 C-38.24398145 37.11192212 -33.11113636 32.07353604 -27.5811615 27.38110352 C-25.51758342 25.57862164 -23.76141472 23.59547614 -22 21.5 C-15.96163548 14.62179252 -9.16661439 8.52480606 -2.43945312 2.33178711 C-1.6137643 1.5678569 -0.79540914 0.79540914 0 0 Z " fill="#FEFEFE" transform="translate(223,619)"/>
<path d="M0 0 C1.96237235 1.31821911 1.96237235 1.31821911 3.88471538 3.21309352 C4.6255612 3.93142897 5.36640702 4.64976442 6.12970272 5.3898676 C6.93317948 6.19390214 7.73665624 6.99793668 8.56448078 7.82633591 C9.86220792 9.09563585 9.86220792 9.09563585 11.18615177 10.39057821 C13.59840821 12.75516382 15.99900758 15.13058388 18.3953874 17.51119654 C21.00030916 20.09369959 23.61927482 22.661894 26.23639697 25.23202157 C31.43129724 30.33831682 36.61243394 35.45837604 41.78938697 40.5828589 C46.09580532 44.8448789 50.40796462 49.10101715 54.72387314 53.35342598 C55.34610673 53.96651488 55.96834032 54.57960378 56.60942947 55.21127114 C57.87846114 56.46162548 59.14749748 57.71197508 60.41653842 58.96232 C77.58326633 75.8786493 94.71166522 92.83364327 111.83203125 109.796875 C112.88409562 110.83926281 112.88409562 110.83926281 113.95741382 111.90270896 C141.73708452 139.42777895 169.49807211 166.97170297 197.22640161 194.54849595 C204.09885809 201.38331966 210.97202773 208.21742611 217.84545898 215.05126953 C218.60491948 215.80639106 219.36437998 216.5615126 220.14685444 217.3395166 C244.73522205 241.78632125 269.40013872 266.15403119 294.10887172 290.47912863 C319.5228683 315.49925555 344.86399533 340.5908805 370.11413514 365.77641554 C373.68676769 369.33987201 377.26018084 372.90254474 380.83405113 376.46475983 C381.53734223 377.16581681 382.24063332 377.86687379 382.96523626 378.58917492 C394.25158933 389.83562867 405.61075119 401.00561866 416.99909397 412.14867845 C428.46744801 423.37342615 439.85204033 434.67801721 451.15798972 446.06636313 C457.27817831 452.22678212 463.42803742 458.34728449 469.68320656 464.3708744 C511.5674763 504.76465646 511.5674763 504.76465646 512.4328596 527.68840766 C512.32584458 541.47069059 510.71110161 555.84669892 500.90594703 566.36571944 C498.86366855 568.32235644 496.73795144 570.14893648 494.58984375 571.98828125 C493.09542072 573.42057825 491.61020158 574.86253165 490.13368225 576.3132782 C486.2966555 580.03008871 482.34439438 583.5928482 478.34936523 587.13818359 C475.09227785 590.07447474 471.93785374 593.11034188 468.78206539 596.15472126 C464.99976183 599.79988211 461.17665 603.40061856 457.33984375 606.98828125 C456.6166136 607.6661651 455.89338345 608.34404896 455.14823723 609.04247475 C453.10145348 610.94030013 451.02983459 612.80545352 448.94506836 614.66137695 C448.04306953 615.50283012 448.04306953 615.50283012 447.12284851 616.36128235 C444.19127445 618.91151596 442.58419645 620.00981566 438.64374542 619.94360828 C434.43527535 618.85375519 432.24239252 617.06886001 429.31471252 614.0295105 C428.78759782 613.50681678 428.26048312 612.98412306 427.71739525 612.44559014 C425.96051854 610.69623466 424.22592223 608.92636228 422.49047852 607.15576172 C421.23280407 605.89475642 419.97379689 604.63507913 418.71356201 603.37663269 C415.29718738 599.95770891 411.89956586 596.52067786 408.50484204 593.08027411 C404.94422492 589.47837064 401.36615561 585.89389225 397.78977966 582.30764771 C391.01258913 575.50663988 384.25040605 568.6909176 377.49384683 561.86941922 C367.59358386 551.87531567 357.67118455 541.90322886 347.74855709 531.93133736 C346.2810083 530.45643941 344.81346654 528.98153445 343.34593201 527.50662231 C342.6289525 526.78609306 341.91197299 526.06556381 341.17326683 525.32320035 C336.9254505 521.05335083 332.68198114 516.77923995 328.44241154 512.50120234 C325.79720223 509.83249663 323.15003909 507.16573414 320.50259399 504.4992466 C319.28106553 503.26791069 318.06045498 502.03566334 316.84086418 500.80240822 C308.48379161 492.34819481 308.48379161 492.34819481 299.63830471 484.4106617 C296.77702044 481.94695388 294.14634995 479.25273076 291.5 476.5625 C290.96375 476.02173828 290.4275 475.48097656 289.875 474.92382812 C288.58095964 473.61823383 287.29011826 472.30947004 286 471 C274.97587007 475.67236606 265.31964698 488.5527985 256.97039604 496.95443916 C254.88336663 499.05444568 252.79304174 501.1511244 250.70191956 503.24705505 C246.27758673 507.68269189 241.8572646 512.1223119 237.4375 516.5625 C232.27984127 521.74380687 227.12052656 526.92344324 221.9570179 532.09892082 C219.89925396 534.16315747 217.84452463 536.23038236 215.78990173 538.29774475 C214.53513043 539.55614646 213.28021971 540.81440918 212.02514648 542.07250977 C211.17193314 542.9334726 211.17193314 542.9334726 210.30148315 543.81182861 C204.30133814 549.81277887 204.30133814 549.81277887 200.58520508 550.34741211 C197.22365562 549.89567116 196.08217193 548.77451748 193.63671875 546.44140625 C192.76708496 545.61785645 191.89745117 544.79430664 191.00146484 543.94580078 C189.99931789 542.96556006 188.99894798 541.98350054 188 541 C187.43782776 540.4509198 186.87565552 539.9018396 186.29644775 539.33612061 C182.44135689 535.56538964 178.61977701 531.76231564 174.81274414 527.94311523 C172.80923014 525.93422136 170.80039848 523.93075611 168.79101562 521.92773438 C157.50422421 510.64627768 157.50422421 510.64627768 152.34985352 504.57250977 C150.36872861 502.26460137 148.22882336 500.13299531 146.0625 498 C145.29035156 497.236875 144.51820313 496.47375 143.72265625 495.6875 C143.15417969 495.130625 142.58570313 494.57375 142 494 C138.07181728 495.59280823 135.42653242 498.29627659 132.4967041 501.25605774 C131.9529962 501.79735122 131.4092883 502.33864471 130.8491044 502.89634103 C129.02807848 504.71173036 127.21429003 506.53418148 125.40039062 508.35668945 C124.09638459 509.65962258 122.79194572 510.96212264 121.48710632 512.26422119 C117.94333531 515.80314144 114.40585199 519.34828645 110.86958122 522.89469934 C107.16849459 526.60456606 103.46214037 530.30916322 99.75646973 534.01445007 C93.53231072 540.23954596 87.31203847 546.46850426 81.09423828 552.69995117 C73.90736022 559.90254463 66.71527934 567.09990857 59.5201726 574.2942813 C51.86041211 581.95336592 44.20446719 589.61625582 36.54963493 597.28026557 C34.34418741 599.48784342 32.13803091 601.69471065 29.93171692 603.9014225 C26.46233121 607.37181391 22.99551146 610.84474891 19.53064919 614.31965637 C18.25926956 615.59395318 16.98704745 616.86741006 15.71391869 618.13995934 C13.97471838 619.87866761 12.23863039 621.62042594 10.5032959 623.36299133 C10.00017962 623.86455901 9.49706334 624.36612669 8.97870111 624.88289338 C6.78392693 627.09276377 4.74831061 629.31733922 2.81146431 631.75938606 C0.68472904 634.38996104 -0.68679695 635.3234999 -4 636 C-6.11947632 634.99351501 -6.11947632 634.99351501 -8.21240234 633.21069336 C-9.3830423 632.21934891 -9.3830423 632.21934891 -10.57733154 631.20797729 C-14.69676671 627.45359675 -18.67766596 623.58683798 -22.6015625 619.62890625 C-23.4822641 618.74774643 -24.3629657 617.86658661 -25.27035522 616.95872498 C-27.11979134 615.10628549 -28.9668145 613.2514341 -30.81152344 611.39428711 C-33.61861479 608.56892676 -36.43363811 605.75166327 -39.25 602.93554688 C-41.05515987 601.12547096 -42.85986286 599.31493927 -44.6640625 597.50390625 C-45.49652496 596.67033096 -46.32898743 595.83675568 -47.18667603 594.97792053 C-47.97794891 594.18026779 -48.7692218 593.38261505 -49.58447266 592.56079102 C-50.27014313 591.87130875 -50.9558136 591.18182648 -51.66226196 590.47145081 C-53.58171765 588.44220705 -55.41053432 586.37995236 -57.2328949 584.26512146 C-61.19444462 579.71253407 -65.41346888 575.45327205 -69.68920898 571.19726562 C-70.52903824 570.35729034 -71.36886749 569.51731506 -72.23414612 568.65188599 C-74.98576266 565.9009611 -77.74089462 563.15358632 -80.49609375 560.40625 C-82.41472856 558.49004105 -84.33260686 556.57307562 -86.25050354 554.65612793 C-90.76733977 550.14238616 -95.28671649 545.63119715 -99.80703646 541.1209445 C-104.95782445 535.98137654 -110.1057359 530.83893142 -115.25342071 525.69625568 C-125.83244076 515.12765727 -136.41502554 504.56263503 -147 494 C-151.21251245 497.5406815 -155.27132434 501.14911942 -159.15332031 505.05566406 C-159.61769501 505.52149902 -160.0820697 505.98733398 -160.56051636 506.46728516 C-161.55408212 507.46461544 -162.54649294 508.46309749 -163.53781891 509.46265411 C-165.10780681 511.04555086 -166.6810248 512.62517486 -168.25506592 514.20404053 C-171.58955178 517.54987192 -174.92005532 520.89964977 -178.25 524.25 C-182.1252367 528.14887467 -186.00210837 532.0460947 -189.8832016 535.93914032 C-191.4312981 537.49370688 -192.97634859 539.05125769 -194.52130127 540.60894775 C-195.46880557 541.56008386 -196.41645015 542.51108026 -197.36425781 543.46191406 C-198.18919739 544.29209045 -199.01413696 545.12226685 -199.86407471 545.9776001 C-204.1148386 550.00243397 -204.1148386 550.00243397 -207.78567505 549.99234009 C-212.01402057 548.68694725 -214.43041053 546.22522437 -217.42919922 543.12255859 C-218.04145355 542.5094281 -218.65370789 541.89629761 -219.28451538 541.2645874 C-221.30318497 539.23734698 -223.30366416 537.19308518 -225.3046875 535.1484375 C-226.71067113 533.73057744 -228.11784535 532.3138971 -229.52615356 530.89834595 C-233.23297359 527.16677558 -236.92498939 523.42090056 -240.61364746 519.67138672 C-245.79745924 514.40726433 -251.00089583 509.16253116 -256.2024231 503.91592407 C-258.97012263 501.12417321 -261.73215998 498.32700721 -264.48971558 495.52523804 C-272.75100055 487.1235559 -272.75100055 487.1235559 -281.51504517 479.25392151 C-283.6267984 477.47072061 -285.56405027 475.53302026 -287.5 473.5625 C-288.50546875 472.54349609 -288.50546875 472.54349609 -289.53125 471.50390625 C-290.25828125 470.75947266 -290.25828125 470.75947266 -291 470 C-301.73754498 479.11314715 -312.05950483 488.57533641 -321.33984375 499.18359375 C-323.34457763 501.30607999 -325.2707952 503.12317248 -327.48434448 504.99624634 C-332.88658514 509.69460583 -337.88021783 514.78759407 -342.91064453 519.87646484 C-343.98555891 520.9598635 -345.06074151 522.04299611 -346.13616943 523.12588501 C-348.43670999 525.44303962 -350.73584098 527.76158046 -353.0340004 530.08109665 C-356.66948817 533.74938859 -360.31109167 537.41156786 -363.95407104 541.07241821 C-365.20455366 542.32916063 -366.45503622 543.58590311 -367.70551872 544.84264565 C-368.33127981 545.47152286 -368.9570409 546.10040007 -369.60176444 546.74833417 C-378.07228166 555.26178273 -386.53814126 563.77978497 -394.98974609 572.31201172 C-400.7062617 578.08296306 -406.43158762 583.84501156 -412.16720665 589.59697878 C-415.19777592 592.63692136 -418.22358213 595.68129207 -421.23859024 598.73667526 C-424.06957783 601.60547431 -426.91196416 604.46245861 -429.76354218 607.3107872 C-430.80715755 608.35737469 -431.84648472 609.40825857 -432.88113785 610.46370697 C-434.29455004 611.90425513 -435.72503002 613.32799756 -437.15628052 614.75082397 C-437.95153704 615.55198828 -438.74679356 616.35315258 -439.56614876 617.17859459 C-442.43855152 619.32819595 -444.44553931 619.78357718 -448 620 C-449.85473633 618.98979187 -449.85473633 618.98979187 -451.51953125 617.31518555 C-452.20096191 616.66149994 -452.88239258 616.00781433 -453.58447266 615.33432007 C-454.38159668 614.56399445 -455.1787207 613.79366882 -456 613 C-457.53529155 611.6522047 -459.07115189 610.30500969 -460.61584473 608.96799946 C-467.12164838 603.33017016 -473.45976847 597.51953156 -479.73498535 591.6268816 C-483.18041449 588.39813868 -486.6528811 585.22280738 -490.23193359 582.14233398 C-490.93327927 581.53066628 -491.63462494 580.91899857 -492.35722351 580.28879547 C-493.65027262 579.16516027 -494.95388323 578.05344622 -496.27229309 576.95967865 C-507.22521498 567.3706752 -516.23698746 556.16895204 -517.54072686 541.35025568 C-517.67902028 538.61660614 -517.71434904 535.90345675 -517.70411682 533.16644287 C-517.70786847 532.21057513 -517.71162012 531.25470738 -517.71548546 530.26987395 C-517.44778358 509.36491567 -508.25983239 497.5396152 -493.81822205 483.35484314 C-491.48212568 481.12220374 -489.13313781 478.90390267 -486.78071177 476.68848348 C-482.60347191 472.70613513 -478.55687427 468.59426568 -474.49185181 464.4980011 C-467.45557839 457.4422064 -460.34431818 450.47049564 -453.17332268 443.55176544 C-442.79840427 433.54147903 -432.55009242 423.40888705 -422.32700498 413.24386474 C-405.72379726 396.73757297 -389.02166684 380.33490591 -372.25708008 363.99267578 C-356.00604819 348.15056389 -339.80080458 332.26386472 -323.65551758 316.31396484 C-323.15699029 315.82150777 -322.658463 315.3290507 -322.14482883 314.82167068 C-316.63971967 309.3834751 -311.13591106 303.94396467 -305.63277996 298.50376749 C-295.91516307 288.89735704 -286.1925271 279.29603114 -276.46717834 269.69744873 C-275.99678902 269.23316438 -275.5263997 268.76888002 -275.04175616 268.29052645 C-260.67975399 254.11541186 -246.28735421 239.97173371 -231.86912537 225.8538208 C-230.99384942 224.9966336 -230.11857347 224.13944639 -229.216774 223.25628382 C-220.95565737 215.16623582 -212.69205047 207.0787649 -204.41882854 199.00109525 C-201.48063127 196.13144189 -198.54459863 193.25958068 -195.60900528 190.38726386 C-194.26676378 189.07509475 -192.92348313 187.76398757 -191.57904863 186.45406547 C-182.63037712 177.76548413 -182.63037712 177.76548413 -174.28952795 168.49920058 C-172.52991336 166.45347896 -170.5676216 164.72816133 -168.5 163 C-164.89901011 159.88281658 -161.75101873 156.61296438 -158.703125 152.95703125 C-156.57951817 150.51683166 -154.3024966 148.27220059 -152 146 C-151.02008825 145.02157899 -150.04094649 144.04238632 -149.0625 143.0625 C-142.9375 136.9375 -142.9375 136.9375 -141.44262695 135.44482422 C-140.07504302 134.07515732 -138.71502778 132.69794543 -137.35546875 131.3203125 C-134.8621165 128.86417446 -132.25357585 126.64705779 -129.55078125 124.4296875 C-127.75318225 122.88518193 -127.75318225 122.88518193 -126 120 C-125.34 120 -124.68 120 -124 120 C-123.67 119.01 -123.34 118.02 -123 117 C-121.02043058 115.30911778 -119.02054804 113.64169528 -117 112 C-116.67 111.34 -116.34 110.68 -116 110 C-115.34 110 -114.68 110 -114 110 C-114 109.34 -114 108.68 -114 108 C-112.34997172 106.64613064 -110.6825613 105.31321858 -109 104 C-108.67 103.34 -108.34 102.68 -108 102 C-107.34 102 -106.68 102 -106 102 C-105.74971259 101.42481188 -105.49942518 100.84962376 -105.24155331 100.25700569 C-103.82665852 97.6848845 -102.21167866 95.96282952 -100.13514709 93.88790894 C-99.32897446 93.07754181 -98.52280182 92.26717468 -97.69219971 91.43225098 C-96.36354889 90.11202942 -96.36354889 90.11202942 -95.00805664 88.76513672 C-94.07624069 87.83142242 -93.14442474 86.89770813 -92.18437195 85.93569946 C-89.63108348 83.37756761 -87.07159489 80.82572332 -84.51081395 78.27509451 C-81.83167582 75.60474485 -79.15781605 72.92911951 -76.48326111 70.25418091 C-71.99167379 65.76352985 -67.49623194 61.27676712 -62.99829102 56.79248047 C-57.79741253 51.60733185 -52.60178346 46.41697082 -47.40913111 41.22358501 C-42.41393102 36.22777463 -37.41587922 31.23482802 -32.41622734 26.24347305 C-30.28832388 24.11910072 -28.16127218 21.9938809 -26.03486824 19.86800766 C-23.06668668 16.90101684 -20.09426703 13.93830793 -17.12133789 10.97607422 C-15.79572342 9.64977997 -15.79572342 9.64977997 -14.44332886 8.29669189 C-13.6343364 7.49196442 -12.82534393 6.68723694 -11.99183655 5.85812378 C-11.28926255 5.15722563 -10.58668856 4.45632748 -9.86282444 3.73418999 C-6.5573025 0.65692574 -4.4960279 -0.5732757 0 0 Z " fill="#3C403F" transform="translate(515,150)"/>
<path d="M0 0 C0.66 0.33 1.32 0.66 2 1 C0.89718873 2.27200971 -0.20730769 3.54255853 -1.3125 4.8125 C-1.92738281 5.52019531 -2.54226563 6.22789062 -3.17578125 6.95703125 C-4.73334335 8.70136739 -6.32658875 10.36778041 -8 12 C-8.66 11.67 -9.32 11.34 -10 11 C-9.278125 10.29875 -8.55625 9.5975 -7.8125 8.875 C-5.00176187 6.07229255 -2.50483774 3.07737208 0 0 Z " fill="#2B2E2F" transform="translate(354,305)"/>
<path d="M0 0 C0 2 0 2 -1.64453125 3.7265625 C-2.35996094 4.35304688 -3.07539063 4.97953125 -3.8125 5.625 C-4.87404297 6.57246094 -4.87404297 6.57246094 -5.95703125 7.5390625 C-8 9 -8 9 -11 9 C-9.73965413 7.49117739 -8.46636351 5.99315956 -7.1875 4.5 C-6.47980469 3.6646875 -5.77210938 2.829375 -5.04296875 1.96875 C-3 0 -3 0 0 0 Z " fill="#282C2C" transform="translate(340,322)"/>
<path d="M0 0 C0.66 0 1.32 0 2 0 C2 3 2 3 0.5390625 4.60546875 C-0.09257812 5.12753906 -0.72421875 5.64960938 -1.375 6.1875 C-2.00148438 6.71730469 -2.62796875 7.24710937 -3.2734375 7.79296875 C-5 9 -5 9 -7 9 C-5.76465298 5.29395893 -3.80264776 3.66251537 -1 1 C-0.67 0.67 -0.34 0.34 0 0 Z " fill="#303334" transform="translate(389,270)"/>
</svg>
