<?xml version="1.0" encoding="UTF-8"?>
<svg version="1.1" xmlns="http://www.w3.org/2000/svg" width="1024" height="1024">
<path d="M0 0 C0.86797767 -0.00297112 1.73595535 -0.00594224 2.63023537 -0.0090034 C5.55592397 -0.01771602 8.48157177 -0.01920081 11.40727234 -0.02069092 C13.49795113 -0.02531728 15.58862908 -0.03034169 17.67930603 -0.03573608 C23.37149022 -0.04887964 29.06366261 -0.05530885 34.75585961 -0.05974674 C38.30946211 -0.06267433 41.86306135 -0.06677853 45.41666222 -0.07125092 C56.52733925 -0.08493102 67.63800889 -0.09459515 78.74869376 -0.09845281 C91.58863526 -0.10293491 104.42847037 -0.1204878 117.26837951 -0.1494534 C127.18349245 -0.17104702 137.09857542 -0.18115585 147.01371163 -0.18249393 C152.94004315 -0.18354362 158.86627473 -0.18948638 164.79258156 -0.20731354 C170.36656561 -0.22375409 175.94037418 -0.22596926 181.51437378 -0.21717453 C183.56184038 -0.216402 185.60931625 -0.22077519 187.65675926 -0.23063278 C190.44895521 -0.24328908 193.24052375 -0.2375099 196.03271484 -0.22705078 C197.25198015 -0.23913539 197.25198015 -0.23913539 198.49587709 -0.25146413 C203.08801146 -0.21115235 206.04866858 0.30395583 209.70683289 3.14044189 C213.0830579 6.98235311 213.21624325 10.78023448 213.06230164 15.69903564 C212.53546747 19.31740216 211.12760802 21.45069174 208.70683289 24.14044189 C205.04025477 26.67328704 201.19738803 26.40952203 196.90898132 26.36749268 C196.12811157 26.36778473 195.34724182 26.36807678 194.54270935 26.36837769 C191.967095 26.36698669 189.39177157 26.35143642 186.81620789 26.33575439 C185.02830666 26.33202344 183.24040339 26.32917686 181.45249939 26.32717896 C176.75067991 26.31954896 172.04898433 26.29990589 167.34721375 26.277771 C162.54783301 26.25729894 157.74843222 26.24817433 152.94902039 26.23809814 C143.5349035 26.21665942 134.1208785 26.18253109 124.70683289 26.14044189 C124.70683289 28.12044189 124.70683289 30.10044189 124.70683289 32.14044189 C125.28820007 32.40598877 125.86956726 32.67153564 126.46855164 32.94512939 C145.83597154 43.28794002 155.74090651 68.76592382 161.83183289 88.64044189 C169.61313145 115.14717488 173.80700706 142.9454017 173.72636414 170.56622314 C173.72495422 171.48939331 173.72354431 172.41256348 173.72209167 173.3637085 C173.71843765 175.62262637 173.71331627 177.88153067 173.70683289 180.14044189 C174.81495158 180.13873315 174.81495158 180.13873315 175.9454565 180.13698989 C219.76960805 180.06979554 263.59375398 180.01835186 307.41794676 179.98724591 C312.68481514 179.98349397 317.95168341 179.97961099 323.21855164 179.97564697 C324.26705107 179.97486004 325.3155505 179.97407311 326.39582264 179.97326233 C343.35319528 179.96022308 360.31053728 179.93657741 377.26789176 179.90898351 C394.67919818 179.88088807 412.0904886 179.86425689 429.50181675 179.85817641 C440.23783713 179.85406855 450.97377089 179.8411135 461.7097646 179.81669249 C469.08071172 179.80078419 476.45161433 179.79605303 483.82257736 179.79993776 C488.06957768 179.8018514 492.31642707 179.79900366 496.56340027 179.78282547 C500.46254125 179.76808188 504.36143173 179.76758176 508.26058495 179.77774521 C509.66059627 179.77899882 511.06062411 179.77531657 512.46060359 179.76579235 C534.03649185 179.62771509 556.5411621 184.87114682 572.76542664 200.01153564 C582.79398351 211.0086453 588.5380587 222.69498321 588.02323914 237.82403564 C586.65726746 252.14144245 578.70764756 264.16476842 568.05448914 273.45294189 C551.13889927 286.89459182 530.75801105 292.07688566 509.70683289 294.70294189 C508.12695675 294.90968237 506.54720653 295.11738703 504.96757507 295.32598877 C500.96933476 295.84998288 496.96910965 296.35645803 492.96781921 296.85656738 C490.84836633 297.12267189 488.72963151 297.39373611 486.61112976 297.66729736 C476.98508885 298.90620896 467.35045041 300.04875905 457.70683289 301.14044189 C456.90463318 301.23176392 456.10243347 301.32308594 455.27592468 301.41717529 C375.23571715 310.50397842 294.70344244 315.71809296 214.20683289 318.45294189 C213.05354492 318.49245972 211.90025696 318.53197754 210.71202087 318.57269287 C195.04078368 319.09391866 179.38611742 319.23093825 163.70683289 319.14044189 C163.65802979 319.98202347 163.60922668 320.82360504 163.5589447 321.69068909 C162.37846072 341.91901285 161.01799283 362.12487814 159.45683289 382.32794189 C159.23652009 385.2009502 159.01699098 388.07401828 158.79740906 390.94708252 C158.27682508 397.7523172 157.75350844 404.55733867 157.22900486 411.36227226 C156.83545263 416.46876067 156.44284082 421.57532033 156.05107117 426.6819458 C155.97070901 427.72941026 155.97070901 427.72941026 155.88872337 428.79803562 C155.78008345 430.21412518 155.67144533 431.63021487 155.56280899 433.0463047 C154.80975205 442.86125976 154.0554833 452.67612063 153.29862976 462.49078369 C153.04016057 465.84275266 152.78169293 469.19472174 152.52323914 472.54669189 C152.45650623 473.41215448 152.38977333 474.27761707 152.32101822 475.1693058 C151.21226603 489.5517993 150.10908853 503.93471736 149.00771767 518.31777763 C148.95319544 519.02979395 148.8986732 519.74181026 148.84249878 520.47540283 C148.7875424 521.19309404 148.73258602 521.91078526 148.6759643 522.65022469 C147.94336777 532.21661408 147.20962267 541.78291544 146.4758234 551.34921265 C145.85744329 559.41152428 145.24000587 567.47390706 144.6237362 575.53638029 C144.19589232 581.13255993 143.76686748 586.72864832 143.33700389 592.32467318 C143.08640373 595.58751782 142.8364743 598.85041135 142.5875988 602.11338806 C141.41611071 617.46813433 140.15114388 632.80882565 138.70683289 648.14044189 C139.88085663 648.12751099 141.05488037 648.11458008 142.26448059 648.10125732 C157.88380189 647.94738185 173.4764815 648.56251284 189.07914734 649.20245361 C192.20745229 649.32999816 195.33588969 649.4477918 198.46488953 649.5569458 C254.99165838 651.53950866 254.99165838 651.53950866 274.65995789 672.19122314 C281.08442909 679.78991493 284.52800826 688.36737385 284.08573914 698.38262939 C282.57407859 709.38502472 276.96919422 717.83231394 268.51933289 724.82794189 C253.74650738 735.60811186 237.01316931 739.3302245 219.05619812 739.25396729 C217.67897331 739.25418633 217.67897331 739.25418633 216.27392578 739.25440979 C213.2710678 739.25371901 210.26827364 739.24596608 207.26542664 739.23809814 C205.17078688 739.236231 203.07614669 739.23480849 200.98150635 739.23381042 C195.49233272 739.23000863 190.00318592 739.22019849 184.51402283 739.20910645 C178.90316633 739.19884188 173.29230546 739.19430203 167.68144226 739.18927002 C156.68989407 739.17857396 145.69836572 739.16152586 134.70683289 739.14044189 C134.71453705 739.96590515 134.72224121 740.79136841 134.73017883 741.6418457 C134.73617096 742.72387268 134.74216309 743.80589966 134.74833679 744.92071533 C134.75989304 746.53016022 134.75989304 746.53016022 134.77168274 748.17211914 C134.53341437 759.07819492 128.63984473 767.52081841 121.08183289 774.82794189 C113.43504092 781.15432007 104.83986427 784.07450787 94.93730164 783.61309814 C84.6726076 782.11125053 76.36959834 777.02431917 69.70683289 769.14044189 C64.84431615 761.38260917 61.59968172 753.63799424 61.66777039 744.42559814 C61.67341003 743.43567871 61.67904968 742.44575928 61.68486023 741.42584229 C61.69211121 740.67166016 61.69936218 739.91747803 61.70683289 739.14044189 C60.55663666 739.14932434 59.40644043 739.15820679 58.22138977 739.1673584 C47.30767339 739.24893821 36.39401999 739.30864218 25.4800663 739.34769058 C19.87095417 739.36844156 14.26209091 739.39652725 8.65312195 739.44219971 C3.22602822 739.48610761 -2.20082825 739.50967252 -7.62808609 739.51995087 C-9.68423312 739.52726246 -11.74036923 739.54153646 -13.79641342 739.56336212 C-29.49618128 739.72318049 -45.8553103 739.1329927 -59.91816711 731.26544189 C-60.5729303 730.91739502 -61.22769348 730.56934814 -61.90229797 730.21075439 C-71.70273784 724.89062039 -81.36145844 717.73995803 -85.62519836 707.01544189 C-87.68523356 698.14885766 -87.96931151 688.13643505 -83.66816711 679.95294189 C-82.59289477 678.31502704 -81.47093524 676.70627648 -80.29316711 675.14044189 C-79.83683899 674.48946533 -79.38051086 673.83848877 -78.91035461 673.16778564 C-69.08531108 660.39522906 -51.45516529 654.11265782 -36.09541321 651.62188721 C-32.09778483 651.11570234 -28.11946532 650.83694372 -24.09785461 650.64044189 C-23.32068085 650.60010834 -22.54350708 650.55977478 -21.74278259 650.51821899 C-19.21808398 650.38855207 -16.69316815 650.26407043 -14.16816711 650.14044189 C-12.86794617 650.07557587 -12.86794617 650.07557587 -11.54145813 650.00939941 C11.87375556 648.84294894 35.25715067 647.9150642 58.70683289 648.14044189 C58.37683289 647.48044189 58.04683289 646.82044189 57.70683289 646.14044189 C57.51810297 644.58757533 57.38247107 643.02809935 57.27372742 641.46759033 C57.20327713 640.48769135 57.13282684 639.50779236 57.0602417 638.49819946 C56.98744492 637.42623322 56.91464813 636.35426697 56.83964539 635.24981689 C56.76052414 634.13603668 56.68140289 633.02225647 56.59988403 631.87472534 C56.42948743 629.47113467 56.26095651 627.06741118 56.09407043 624.66357422 C55.65241013 618.30886729 55.19602283 611.95521205 54.74198914 605.60137939 C54.65209213 604.33786652 54.56219513 603.07435364 54.46957397 601.77255249 C53.77432272 592.01703307 53.04566876 582.26482789 52.26933289 572.51544189 C52.21230194 571.79682983 52.155271 571.07821777 52.09651184 570.33782959 C51.26953618 559.93952197 50.41093822 549.54384497 49.55058289 539.14825439 C47.3651138 512.72379124 45.23080707 486.29848705 43.30131531 459.8538208 C43.13836295 457.62123235 42.9753571 455.38864781 42.81230164 453.15606689 C42.6871241 451.44204178 42.6871241 451.44204178 42.55941772 449.69338989 C41.78943941 439.18998007 40.99434338 428.68853554 40.19511414 418.18731689 C40.12885645 417.31657909 40.06259876 416.44584129 39.99433327 415.5487175 C39.3949726 407.67411792 38.7946349 399.79959303 38.19294739 391.9251709 C37.4682684 382.43995552 36.74726647 372.9544783 36.03337097 363.46844482 C35.82011036 360.63635264 35.60499857 357.8044116 35.3881073 354.97259521 C35.0959968 351.15652651 34.8111712 347.33993379 34.52714539 343.52325439 C34.40060074 341.88899002 34.40060074 341.88899002 34.27149963 340.22171021 C33.75589418 333.18268583 33.61388912 326.19738185 33.70683289 319.14044189 C32.42727722 319.14406738 31.14772156 319.14769287 29.82939148 319.15142822 C-46.31064869 319.30214017 -122.47931391 314.34192657 -198.29316711 307.64044189 C-199.1145517 307.5680983 -199.93593628 307.4957547 -200.7822113 307.42121887 C-232.12232348 304.65927063 -263.44102379 301.58483372 -294.63911438 297.49493408 C-297.42191791 297.1317966 -300.2060849 296.78058375 -302.99043274 296.42950439 C-312.12449409 295.25534118 -321.18669221 293.88697308 -330.22285461 292.10137939 C-331.03307571 291.94218018 -331.84329681 291.78298096 -332.67807007 291.61895752 C-352.62733729 287.51978045 -371.61638145 276.59718189 -383.54316711 259.82794189 C-390.35494091 248.82860224 -391.82894376 237.88034325 -390.29316711 225.14044189 C-387.04884538 211.729582 -377.55131063 200.69197305 -366.29316711 193.14044189 C-353.26882241 185.39195549 -339.21919411 180.0119725 -323.90328312 180.01739407 C-322.03269406 180.01440749 -322.03269406 180.01440749 -320.12431532 180.01136059 C-318.7536022 180.01421307 -317.38288926 180.01715865 -316.01217651 180.02018738 C-314.54595561 180.01975104 -313.07973478 180.01887498 -311.61351436 180.01759821 C-307.59316267 180.01536553 -303.57283769 180.01935775 -299.5524894 180.02437627 C-295.21378527 180.0286982 -290.87508263 180.02723311 -286.53637695 180.026474 C-279.02214769 180.02594987 -271.50792711 180.02908509 -263.99370003 180.03471184 C-253.1294137 180.04284185 -242.26513158 180.0454436 -231.40084254 180.04669983 C-213.7738839 180.04888798 -196.14692988 180.05554167 -178.51997375 180.06500244 C-161.39790368 180.07418266 -144.27583486 180.08126052 -127.15376282 180.08551025 C-125.57042676 180.08590434 -125.57042676 180.08590434 -123.95510412 180.08630639 C-118.65963734 180.08761143 -113.36417056 180.08887514 -108.06870377 180.09011829 C-64.14352168 180.10048354 -20.21834464 180.11809545 23.70683289 180.14044189 C23.70379654 179.06239288 23.70076019 177.98434387 23.69763184 176.87362671 C23.69517528 175.43408215 23.69279382 173.99453746 23.69047546 172.55499268 C23.68718609 171.49366875 23.68718609 171.49366875 23.68383026 170.41090393 C23.63379797 128.85721516 29.67855538 77.10703496 57.70683289 44.14044189 C58.31655945 43.31802002 58.92628601 42.49559814 59.55448914 41.64825439 C62.64392983 38.04857939 66.40256716 35.791986 70.34355164 33.20294189 C73.10357089 30.79419781 73.1857128 29.64780038 73.70683289 26.14044189 C72.6906337 26.14932434 71.67443451 26.15820679 70.62744141 26.1673584 C61.04885175 26.24845925 51.47033178 26.3084145 41.89147663 26.34769058 C36.96690876 26.36856174 32.04261814 26.39687085 27.11820984 26.44219971 C22.36549341 26.48567417 17.6130436 26.50958255 12.86014366 26.51995087 C11.04723603 26.52733936 9.23434292 26.54176744 7.42154884 26.56336212 C4.88131348 26.59241776 2.34217851 26.59639706 -0.19819641 26.59454346 C-0.94698059 26.60892456 -1.69576477 26.62330566 -2.46723938 26.63812256 C-7.37113642 26.59942633 -9.84378409 25.61786208 -13.29316711 22.14044189 C-16.30936625 17.64823042 -16.05156367 12.33658465 -15.29316711 7.14044189 C-11.70263883 0.25303447 -7.09228561 -0.00749856 0 0 Z " fill="#393D3E" transform="translate(413.2931671142578,75.85955810546875)"/>
</svg>
